font.ufo
<glyph name="exclam" format="1">
  <advance width="330"/>
  <unicode hex="0021"/>
  <outline>
    <contour>
      <point x="85" y="693" type="line"/>
      <point x="105" y="222" type="line"/>
      <point x="225" y="222" type="line"/>
      <point x="245" y="693" type="line"/>
    </contour>
    <contour>
      <point x="83" y="68" type="curve" smooth="yes"/>
      <point x="83" y="23"/>
      <point x="103" y="-10"/>
      <point x="167" y="-10" type="curve" smooth="yes"/>
      <point x="229" y="-10"/>
      <point x="250" y="23"/>
      <point x="250" y="68" type="curve" smooth="yes"/>
      <point x="250" y="114"/>
      <point x="229" y="147"/>
      <point x="167" y="147" type="curve" smooth="yes"/>
      <point x="103" y="147"/>
      <point x="83" y="114"/>
    </contour>
  </outline>
</glyph>
<glyph name="numbersign" format="1">
  <advance width="629"/>
  <unicode hex="0023"/>
  <outline>
    <contour>
      <point x="406" y="693" type="line"/>
      <point x="307" y="0" type="line"/>
      <point x="439" y="0" type="line"/>
      <point x="538" y="693" type="line"/>
    </contour>
    <contour>
      <point x="37" y="301" type="line"/>
      <point x="37" y="183" type="line"/>
      <point x="551" y="183" type="line"/>
      <point x="551" y="301" type="line"/>
    </contour>
    <contour>
      <point x="181" y="693" type="line"/>
      <point x="82" y="0" type="line"/>
      <point x="214" y="0" type="line"/>
      <point x="313" y="693" type="line"/>
    </contour>
    <contour>
      <point x="67" y="510" type="line"/>
      <point x="67" y="392" type="line"/>
      <point x="581" y="392" type="line"/>
      <point x="581" y="510" type="line"/>
    </contour>
  </outline>
</glyph>
<glyph name="dollar" format="1">
  <advance width="439"/>
  <unicode hex="0024"/>
  <outline>
    <contour>
      <point x="147" y="747" type="line"/>
      <point x="147" y="682" type="line"/>
      <point x="289" y="682" type="line"/>
      <point x="289" y="747" type="line"/>
    </contour>
    <contour>
      <point x="140" y="8" type="line"/>
      <point x="140" y="-53" type="line"/>
      <point x="282" y="-53" type="line"/>
      <point x="282" y="8" type="line"/>
    </contour>
    <component base="S"/>
  </outline>
</glyph>
<glyph name="ampersand" format="1">
  <advance width="504"/>
  <unicode hex="0026"/>
  <outline>
    <contour>
      <point x="55" y="532" type="curve"/>
      <point x="55" y="472" type="line" smooth="yes"/>
      <point x="55" y="413"/>
      <point x="84" y="378"/>
      <point x="123" y="365" type="curve"/>
      <point x="79" y="352"/>
      <point x="53" y="318"/>
      <point x="53" y="258" type="curve" smooth="yes"/>
      <point x="53" y="173" type="line" smooth="yes"/>
      <point x="53" y="67"/>
      <point x="111" y="-6"/>
      <point x="252" y="-6" type="curve" smooth="yes"/>
      <point x="393" y="-6"/>
      <point x="447" y="67"/>
      <point x="447" y="173" type="curve" smooth="yes"/>
      <point x="447" y="490" type="line"/>
      <point x="303" y="490" type="line"/>
      <point x="303" y="177" type="line" smooth="yes"/>
      <point x="303" y="146"/>
      <point x="293" y="126"/>
      <point x="252" y="126" type="curve" smooth="yes"/>
      <point x="211" y="126"/>
      <point x="203" y="147"/>
      <point x="203" y="177" type="curve" smooth="yes"/>
      <point x="203" y="248" type="line" smooth="yes"/>
      <point x="203" y="281"/>
      <point x="217" y="296"/>
      <point x="254" y="296" type="curve" smooth="yes"/>
      <point x="497" y="296" type="line"/>
      <point x="497" y="424" type="line"/>
      <point x="254" y="424" type="line" smooth="yes"/>
      <point x="216" y="424"/>
      <point x="205" y="439"/>
      <point x="205" y="475" type="curve" smooth="yes"/>
      <point x="205" y="514" type="line" smooth="yes"/>
      <point x="205" y="544"/>
      <point x="220" y="562"/>
      <point x="285" y="562" type="curve" smooth="yes"/>
      <point x="337" y="562"/>
      <point x="374" y="558"/>
      <point x="408" y="545" type="curve"/>
      <point x="408" y="685" type="line"/>
      <point x="381" y="694"/>
      <point x="339" y="699"/>
      <point x="281" y="699" type="curve" smooth="yes"/>
      <point x="125" y="699"/>
      <point x="55" y="634"/>
    </contour>
  </outline>
</glyph>
<glyph name="parenright" format="1">
  <advance width="357"/>
  <unicode hex="0029"/>
  <outline>
    <contour>
      <point x="52" y="852" type="line"/>
      <point x="104" y="742"/>
      <point x="162" y="554"/>
      <point x="162" y="336" type="curve" smooth="yes"/>
      <point x="162" y="119"/>
      <point x="104" y="-69"/>
      <point x="52" y="-179" type="curve"/>
      <point x="182" y="-179" type="line"/>
      <point x="234" y="-69"/>
      <point x="292" y="119"/>
      <point x="292" y="336" type="curve" smooth="yes"/>
      <point x="292" y="554"/>
      <point x="234" y="742"/>
      <point x="182" y="852" type="curve"/>
    </contour>
  </outline>
</glyph>
<glyph name="comma" format="1">
  <advance width="220"/>
  <unicode hex="002C"/>
  <outline>
    <contour>
      <point x="61" y="145" type="line"/>
      <point x="15" y="-133" type="line"/>
      <point x="95" y="-133" type="line"/>
      <point x="126" y="-92"/>
      <point x="199" y="22"/>
      <point x="199" y="88" type="curve" smooth="yes"/>
      <point x="199" y="124"/>
      <point x="180" y="145"/>
      <point x="136" y="145" type="curve" smooth="yes"/>
    </contour>
  </outline>
</glyph>
<glyph name="hyphen" format="1">
  <advance width="312"/>
  <unicode hex="002D"/>
  <outline>
    <contour>
      <point x="41" y="397" type="line"/>
      <point x="41" y="267" type="line"/>
      <point x="277" y="267" type="line"/>
      <point x="277" y="397" type="line"/>
    </contour>
  </outline>
</glyph>
<glyph name="period" format="1">
  <advance width="246"/>
  <unicode hex="002E"/>
  <outline>
    <contour>
      <point x="38" y="68" type="curve" smooth="yes"/>
      <point x="38" y="23"/>
      <point x="58" y="-10"/>
      <point x="122" y="-10" type="curve" smooth="yes"/>
      <point x="184" y="-10"/>
      <point x="205" y="23"/>
      <point x="205" y="68" type="curve" smooth="yes"/>
      <point x="205" y="114"/>
      <point x="184" y="147"/>
      <point x="122" y="147" type="curve" smooth="yes"/>
      <point x="58" y="147"/>
      <point x="38" y="114"/>
    </contour>
  </outline>
</glyph>
<glyph name="slash" format="1">
  <advance width="458"/>
  <unicode hex="002F"/>
  <outline>
    <contour>
      <point x="294" y="852" type="line"/>
      <point x="37" y="-179" type="line"/>
      <point x="170" y="-179" type="line"/>
      <point x="427" y="852" type="line"/>
    </contour>
  </outline>
</glyph>
<glyph name="two" format="1">
  <advance width="442"/>
  <unicode hex="0032"/>
  <outline>
    <contour>
      <point x="49" y="676" type="curve"/>
      <point x="49" y="532" type="line"/>
      <point x="84" y="547"/>
      <point x="127" y="559"/>
      <point x="188" y="559" type="curve" smooth="yes"/>
      <point x="243" y="559"/>
      <point x="255" y="539"/>
      <point x="255" y="511" type="curve" smooth="yes"/>
      <point x="255" y="497" type="line"/>
      <point x="255" y="453"/>
      <point x="248" y="435"/>
      <point x="218" y="412" type="curve" smooth="yes"/>
      <point x="118" y="326" type="line" smooth="yes"/>
      <point x="71" y="290"/>
      <point x="35" y="243"/>
      <point x="35" y="163" type="curve" smooth="yes"/>
      <point x="35" y="0" type="line"/>
      <point x="398" y="0" type="line"/>
      <point x="398" y="132" type="line"/>
      <point x="188" y="132" type="line"/>
      <point x="188" y="145" type="line" smooth="yes"/>
      <point x="188" y="188"/>
      <point x="191" y="199"/>
      <point x="243" y="243" type="curve" smooth="yes"/>
      <point x="333" y="319" type="line" smooth="yes"/>
      <point x="381" y="355"/>
      <point x="407" y="407"/>
      <point x="407" y="471" type="curve" smooth="yes"/>
      <point x="407" y="530" type="line" smooth="yes"/>
      <point x="407" y="633"/>
      <point x="342" y="698"/>
      <point x="190" y="698" type="curve" smooth="yes"/>
      <point x="116" y="698"/>
      <point x="68" y="683"/>
    </contour>
  </outline>
</glyph>
<glyph name="four" format="1">
  <advance width="463"/>
  <unicode hex="0034"/>
  <outline>
    <contour>
      <point x="202" y="693" type="line"/>
      <point x="10" y="256" type="line"/>
      <point x="10" y="117" type="line"/>
      <point x="458" y="117" type="line"/>
      <point x="458" y="248" type="line"/>
      <point x="137" y="248" type="line"/>
      <point x="326" y="693" type="line"/>
    </contour>
    <contour>
      <point x="258" y="693" type="line"/>
      <point x="258" y="236" type="line"/>
      <point x="252" y="223" type="line"/>
      <point x="252" y="0" type="line"/>
      <point x="393" y="0" type="line"/>
      <point x="393" y="693" type="line"/>
    </contour>
  </outline>
</glyph>
<glyph name="eight" format="1">
  <advance width="475"/>
  <unicode hex="0038"/>
  <outline>
    <contour>
      <point x="35" y="528" type="curve" smooth="yes"/>
      <point x="35" y="458" type="line" smooth="yes"/>
      <point x="35" y="352"/>
      <point x="96" y="309"/>
      <point x="237" y="309" type="curve" smooth="yes"/>
      <point x="378" y="309"/>
      <point x="440" y="352"/>
      <point x="440" y="458" type="curve" smooth="yes"/>
      <point x="440" y="528" type="line" smooth="yes"/>
      <point x="440" y="634"/>
      <point x="378" y="703"/>
      <point x="237" y="703" type="curve" smooth="yes"/>
      <point x="96" y="703"/>
      <point x="35" y="634"/>
    </contour>
    <contour>
      <point x="35" y="233" type="curve" smooth="yes"/>
      <point x="35" y="165" type="line" smooth="yes"/>
      <point x="35" y="59"/>
      <point x="96" y="-10"/>
      <point x="237" y="-10" type="curve" smooth="yes"/>
      <point x="378" y="-10"/>
      <point x="440" y="59"/>
      <point x="440" y="165" type="curve" smooth="yes"/>
      <point x="440" y="233" type="line" smooth="yes"/>
      <point x="440" y="339"/>
      <point x="378" y="382"/>
      <point x="237" y="382" type="curve" smooth="yes"/>
      <point x="96" y="382"/>
      <point x="35" y="339"/>
    </contour>
    <contour>
      <point x="292" y="238" type="curve" smooth="yes"/>
      <point x="292" y="167" type="line" smooth="yes"/>
      <point x="292" y="136"/>
      <point x="278" y="119"/>
      <point x="237" y="119" type="curve" smooth="yes"/>
      <point x="196" y="119"/>
      <point x="183" y="137"/>
      <point x="183" y="167" type="curve" smooth="yes"/>
      <point x="183" y="238" type="line" smooth="yes"/>
      <point x="183" y="269"/>
      <point x="196" y="288"/>
      <point x="237" y="288" type="curve" smooth="yes"/>
      <point x="278" y="288"/>
      <point x="292" y="268"/>
    </contour>
    <contour>
      <point x="292" y="526" type="curve" smooth="yes"/>
      <point x="292" y="453" type="line" smooth="yes"/>
      <point x="292" y="422"/>
      <point x="278" y="403"/>
      <point x="237" y="403" type="curve" smooth="yes"/>
      <point x="196" y="403"/>
      <point x="183" y="423"/>
      <point x="183" y="453" type="curve" smooth="yes"/>
      <point x="183" y="526" type="line" smooth="yes"/>
      <point x="183" y="557"/>
      <point x="196" y="574"/>
      <point x="237" y="574" type="curve" smooth="yes"/>
      <point x="278" y="574"/>
      <point x="292" y="556"/>
    </contour>
  </outline>
</glyph>
<glyph name="semicolon" format="1">
  <advance width="263"/>
  <unicode hex="003B"/>
  <outline>
    <contour>
      <point x="61" y="145" type="line"/>
      <point x="15" y="-133" type="line"/>
      <point x="95" y="-133" type="line"/>
      <point x="126" y="-92"/>
      <point x="199" y="22"/>
      <point x="199" y="88" type="curve" smooth="yes"/>
      <point x="199" y="124"/>
      <point x="180" y="145"/>
      <point x="136" y="145" type="curve" smooth="yes"/>
    </contour>
    <contour>
      <point x="38" y="419" type="curve" smooth="yes"/>
      <point x="38" y="374"/>
      <point x="58" y="341"/>
      <point x="122" y="341" type="curve" smooth="yes"/>
      <point x="184" y="341"/>
      <point x="205" y="374"/>
      <point x="205" y="419" type="curve" smooth="yes"/>
      <point x="205" y="465"/>
      <point x="184" y="498"/>
      <point x="122" y="498" type="curve" smooth="yes"/>
      <point x="58" y="498"/>
      <point x="38" y="465"/>
    </contour>
  </outline>
</glyph>
<glyph name="less" format="1">
  <advance width="512"/>
  <unicode hex="003C"/>
  <outline>
    <contour>
      <point x="33" y="397" type="line"/>
      <point x="33" y="285" type="line"/>
      <point x="459" y="412" type="line"/>
      <point x="459" y="547" type="line"/>
    </contour>
    <contour>
      <point x="33" y="267" type="line"/>
      <point x="459" y="117" type="line"/>
      <point x="459" y="252" type="line"/>
      <point x="33" y="379" type="line"/>
    </contour>
  </outline>
</glyph>
<glyph name="greater" format="1">
  <advance width="507"/>
  <unicode hex="003E"/>
  <outline>
    <contour>
      <point x="40" y="412" type="line"/>
      <point x="467" y="285" type="line"/>
      <point x="467" y="397" type="line"/>
      <point x="40" y="547" type="line"/>
    </contour>
    <contour>
      <point x="40" y="252" type="line"/>
      <point x="40" y="117" type="line"/>
      <point x="467" y="267" type="line"/>
      <point x="467" y="379" type="line"/>
    </contour>
  </outline>
</glyph>
<glyph name="at" format="1">
  <advance width="917"/>
  <unicode hex="0040"/>
  <outline>
    <contour>
      <point x="59" y="285" type="curve" smooth="yes"/>
      <point x="59" y="38"/>
      <point x="134" y="-139"/>
      <point x="464" y="-139" type="curve" smooth="yes"/>
      <point x="557" y="-139" type="line"/>
      <point x="557" y="-22" type="line"/>
      <point x="465" y="-22" type="line" smooth="yes"/>
      <point x="202" y="-22"/>
      <point x="185" y="106"/>
      <point x="185" y="285" type="curve" smooth="yes"/>
      <point x="185" y="463"/>
      <point x="199" y="594"/>
      <point x="465" y="594" type="curve" smooth="yes"/>
      <point x="733" y="594"/>
      <point x="743" y="468"/>
      <point x="743" y="287" type="curve" smooth="yes"/>
      <point x="743" y="152"/>
      <point x="724" y="116"/>
      <point x="669" y="116" type="curve" smooth="yes"/>
      <point x="621" y="116"/>
      <point x="603" y="135"/>
      <point x="603" y="182" type="curve" smooth="yes"/>
      <point x="603" y="414" type="line" smooth="yes"/>
      <point x="603" y="496"/>
      <point x="557" y="532"/>
      <point x="453" y="532" type="curve" smooth="yes"/>
      <point x="399" y="532"/>
      <point x="352" y="521"/>
      <point x="332" y="515" type="curve"/>
      <point x="332" y="418" type="line"/>
      <point x="355" y="425"/>
      <point x="398" y="437"/>
      <point x="453" y="437" type="curve" smooth="yes"/>
      <point x="486" y="437"/>
      <point x="491" y="426"/>
      <point x="491" y="408" type="curve" smooth="yes"/>
      <point x="491" y="349" type="line"/>
      <point x="396" y="314" type="line" smooth="yes"/>
      <point x="339" y="292"/>
      <point x="316" y="256"/>
      <point x="316" y="194" type="curve" smooth="yes"/>
      <point x="316" y="166" type="line" smooth="yes"/>
      <point x="316" y="95"/>
      <point x="348" y="53"/>
      <point x="426" y="53" type="curve" smooth="yes"/>
      <point x="511" y="53"/>
      <point x="535" y="83"/>
      <point x="535" y="83" type="curve"/>
      <point x="497" y="113" type="line"/>
      <point x="514" y="41"/>
      <point x="578" y="7"/>
      <point x="659" y="7" type="curve" smooth="yes"/>
      <point x="786" y="7"/>
      <point x="867" y="73"/>
      <point x="867" y="287" type="curve" smooth="yes"/>
      <point x="867" y="536"/>
      <point x="798" y="710"/>
      <point x="465" y="710" type="curve" smooth="yes"/>
      <point x="138" y="710"/>
      <point x="59" y="531"/>
    </contour>
    <contour>
      <point x="491" y="154" type="line"/>
      <point x="491" y="154"/>
      <point x="471" y="146"/>
      <point x="456" y="146" type="curve" smooth="yes"/>
      <point x="431" y="146"/>
      <point x="428" y="152"/>
      <point x="428" y="167" type="curve" smooth="yes"/>
      <point x="428" y="198" type="line" smooth="yes"/>
      <point x="428" y="222"/>
      <point x="433" y="230"/>
      <point x="454" y="238" type="curve" smooth="yes"/>
      <point x="491" y="251" type="line"/>
    </contour>
  </outline>
</glyph>
<glyph name="B" format="1">
  <advance width="493"/>
  <unicode hex="0042"/>
  <outline>
    <contour>
      <point x="171" y="355" type="line"/>
      <point x="171" y="283" type="line"/>
      <point x="263" y="283" type="line" smooth="yes"/>
      <point x="293" y="283"/>
      <point x="310" y="272"/>
      <point x="310" y="240" type="curve" smooth="yes"/>
      <point x="310" y="169" type="line" smooth="yes"/>
      <point x="310" y="137"/>
      <point x="293" y="126"/>
      <point x="263" y="126" type="curve" smooth="yes"/>
      <point x="137" y="126" type="line"/>
      <point x="137" y="0" type="line"/>
      <point x="288" y="0" type="line" smooth="yes"/>
      <point x="394" y="0"/>
      <point x="458" y="43"/>
      <point x="458" y="159" type="curve" smooth="yes"/>
      <point x="458" y="230" type="line" smooth="yes"/>
      <point x="458" y="299"/>
      <point x="432" y="355"/>
      <point x="340" y="355" type="curve" smooth="yes"/>
    </contour>
    <contour>
      <point x="45" y="693" type="line"/>
      <point x="45" y="0" type="line"/>
      <point x="195" y="0" type="line"/>
      <point x="195" y="693" type="line"/>
    </contour>
    <contour>
      <point x="137" y="693" type="line"/>
      <point x="137" y="567" type="line"/>
      <point x="257" y="567" type="line" smooth="yes"/>
      <point x="287" y="567"/>
      <point x="304" y="556"/>
      <point x="304" y="524" type="curve" smooth="yes"/>
      <point x="304" y="459" type="line" smooth="yes"/>
      <point x="304" y="427"/>
      <point x="287" y="416"/>
      <point x="257" y="416" type="curve" smooth="yes"/>
      <point x="171" y="416" type="line"/>
      <point x="171" y="344" type="line"/>
      <point x="334" y="344" type="line" smooth="yes"/>
      <point x="426" y="344"/>
      <point x="452" y="400"/>
      <point x="452" y="469" type="curve" smooth="yes"/>
      <point x="452" y="534" type="line" smooth="yes"/>
      <point x="452" y="650"/>
      <point x="388" y="693"/>
      <point x="282" y="693" type="curve" smooth="yes"/>
    </contour>
  </outline>
</glyph>
<glyph name="C" format="1">
  <advance width="412"/>
  <unicode hex="0043"/>
  <outline>
    <contour>
      <point x="35" y="529" type="curve" smooth="yes"/>
      <point x="35" y="163" type="line" smooth="yes"/>
      <point x="35" y="59"/>
      <point x="103" y="-5"/>
      <point x="256" y="-5" type="curve" smooth="yes"/>
      <point x="307" y="-5"/>
      <point x="358" y="2"/>
      <point x="387" y="10" type="curve"/>
      <point x="387" y="145" type="line"/>
      <point x="354" y="135"/>
      <point x="306" y="130"/>
      <point x="260" y="130" type="curve" smooth="yes"/>
      <point x="204" y="130"/>
      <point x="187" y="149"/>
      <point x="187" y="178" type="curve" smooth="yes"/>
      <point x="187" y="514" type="line" smooth="yes"/>
      <point x="187" y="544"/>
      <point x="203" y="563"/>
      <point x="260" y="563" type="curve" smooth="yes"/>
      <point x="305" y="563"/>
      <point x="351" y="556"/>
      <point x="384" y="546" type="curve"/>
      <point x="384" y="684" type="line"/>
      <point x="354" y="692"/>
      <point x="307" y="698"/>
      <point x="258" y="698" type="curve" smooth="yes"/>
      <point x="105" y="698"/>
      <point x="35" y="632"/>
    </contour>
  </outline>
</glyph>
<glyph name="E" format="1">
  <advance width="421"/>
  <unicode hex="0045"/>
  <outline>
    <contour>
      <point x="45" y="693" type="line"/>
      <point x="45" y="0" type="line"/>
      <point x="396" y="0" type="line"/>
      <point x="396" y="130" type="line"/>
      <point x="195" y="130" type="line"/>
      <point x="195" y="286" type="line"/>
      <point x="369" y="286" type="line"/>
      <point x="369" y="416" type="line"/>
      <point x="195" y="416" type="line"/>
      <point x="195" y="563" type="line"/>
      <point x="396" y="563" type="line"/>
      <point x="396" y="693" type="line"/>
    </contour>
  </outline>
</glyph>
<glyph name="F" format="1">
  <advance width="403"/>
  <unicode hex="0046"/>
  <outline>
    <contour>
      <point x="45" y="693" type="line"/>
      <point x="45" y="0" type="line"/>
      <point x="197" y="0" type="line"/>
      <point x="197" y="257" type="line"/>
      <point x="373" y="257" type="line"/>
      <point x="373" y="391" type="line"/>
      <point x="197" y="391" type="line"/>
      <point x="197" y="562" type="line"/>
      <point x="388" y="562" type="line"/>
      <point x="388" y="693" type="line"/>
    </contour>
  </outline>
</glyph>
<glyph name="H" format="1">
  <advance width="532"/>
  <unicode hex="0048"/>
  <outline>
    <contour>
      <point x="335" y="693" type="line"/>
      <point x="335" y="0" type="line"/>
      <point x="487" y="0" type="line"/>
      <point x="487" y="693" type="line"/>
    </contour>
    <contour>
      <point x="45" y="693" type="line"/>
      <point x="45" y="0" type="line"/>
      <point x="197" y="0" type="line"/>
      <point x="197" y="693" type="line"/>
    </contour>
    <contour>
      <point x="188" y="408" type="line"/>
      <point x="188" y="274" type="line"/>
      <point x="345" y="274" type="line"/>
      <point x="345" y="408" type="line"/>
    </contour>
  </outline>
</glyph>
<glyph name="I" format="1">
  <advance width="242"/>
  <unicode hex="0049"/>
  <outline>
    <contour>
      <point x="45" y="693" type="line"/>
      <point x="45" y="0" type="line"/>
      <point x="197" y="0" type="line"/>
      <point x="197" y="693" type="line"/>
    </contour>
  </outline>
</glyph>
<glyph name="J" format="1">
  <advance width="247"/>
  <unicode hex="004A"/>
  <outline>
    <contour>
      <point x="50" y="693" type="line"/>
      <point x="50" y="207" type="line" smooth="yes"/>
      <point x="50" y="113"/>
      <point x="35" y="50"/>
      <point x="7" y="-46" type="curve" smooth="yes"/>
      <point x="-23" y="-149" type="line"/>
      <point x="136" y="-149" type="line"/>
      <point x="167" y="-46" type="line" smooth="yes"/>
      <point x="196" y="50"/>
      <point x="202" y="100"/>
      <point x="202" y="208" type="curve" smooth="yes"/>
      <point x="202" y="693" type="line"/>
    </contour>
  </outline>
</glyph>
<glyph name="K" format="1">
  <advance width="486"/>
  <unicode hex="004B"/>
  <outline>
    <contour>
      <point x="309" y="693" type="line"/>
      <point x="186" y="356" type="line"/>
      <point x="314" y="0" type="line"/>
      <point x="481" y="0" type="line"/>
      <point x="342" y="358" type="line"/>
      <point x="469" y="693" type="line"/>
    </contour>
    <contour>
      <point x="45" y="693" type="line"/>
      <point x="45" y="0" type="line"/>
      <point x="195" y="0" type="line"/>
      <point x="195" y="693" type="line"/>
    </contour>
  </outline>
</glyph>
<glyph name="M" format="1">
  <advance width="649"/>
  <unicode hex="004D"/>
  <outline>
    <contour>
      <point x="449" y="693" type="line"/>
      <point x="324" y="339" type="line"/>
      <point x="199" y="693" type="line"/>
      <point x="45" y="693" type="line"/>
      <point x="45" y="0" type="line"/>
      <point x="189" y="0" type="line"/>
      <point x="189" y="241" type="line"/>
      <point x="189" y="353"/>
      <point x="170" y="446"/>
      <point x="170" y="446" type="curve"/>
      <point x="266" y="176" type="line"/>
      <point x="382" y="176" type="line"/>
      <point x="478" y="446" type="line"/>
      <point x="478" y="446"/>
      <point x="459" y="353"/>
      <point x="459" y="241" type="curve"/>
      <point x="459" y="0" type="line"/>
      <point x="604" y="0" type="line"/>
      <point x="604" y="693" type="line"/>
    </contour>
  </outline>
</glyph>
<glyph name="Q" format="1">
  <advance width="489"/>
  <unicode hex="0051"/>
  <outline>
    <contour>
      <point x="131" y="121" type="line"/>
      <point x="331" y="-87" type="line"/>
      <point x="508" y="-87" type="line"/>
      <point x="306" y="121" type="line"/>
    </contour>
    <component base="O"/>
  </outline>
</glyph>
<glyph name="R" format="1">
  <advance width="482"/>
  <unicode hex="0052"/>
  <outline>
    <contour>
      <point x="45" y="693" type="line"/>
      <point x="45" y="0" type="line"/>
      <point x="195" y="0" type="line"/>
      <point x="195" y="250" type="line"/>
      <point x="285" y="250" type="line" smooth="yes"/>
      <point x="399" y="250"/>
      <point x="445" y="304"/>
      <point x="445" y="412" type="curve" smooth="yes"/>
      <point x="445" y="540" type="line" smooth="yes"/>
      <point x="445" y="643"/>
      <point x="377" y="693"/>
      <point x="271" y="693" type="curve" smooth="yes"/>
    </contour>
    <contour>
      <point x="198" y="293" type="line"/>
      <point x="307" y="0" type="line"/>
      <point x="472" y="0" type="line"/>
      <point x="350" y="293" type="line"/>
    </contour>
    <contour>
      <point x="295" y="527" type="curve" smooth="yes"/>
      <point x="295" y="414" type="line" smooth="yes"/>
      <point x="295" y="380"/>
      <point x="284" y="369"/>
      <point x="254" y="369" type="curve" smooth="yes"/>
      <point x="195" y="369" type="line"/>
      <point x="195" y="565" type="line"/>
      <point x="254" y="565" type="line" smooth="yes"/>
      <point x="280" y="565"/>
      <point x="295" y="558"/>
    </contour>
  </outline>
</glyph>
<glyph name="T" format="1">
  <advance width="412"/>
  <unicode hex="0054"/>
  <outline>
    <contour>
      <point x="130" y="693" type="line"/>
      <point x="130" y="0" type="line"/>
      <point x="282" y="0" type="line"/>
      <point x="282" y="693" type="line"/>
    </contour>
    <contour>
      <point x="5" y="693" type="line"/>
      <point x="5" y="563" type="line"/>
      <point x="407" y="563" type="line"/>
      <point x="407" y="693" type="line"/>
    </contour>
  </outline>
</glyph>
<glyph name="U" format="1">
  <advance width="495"/>
  <unicode hex="0055"/>
  <outline>
    <contour>
      <point x="305" y="693" type="line"/>
      <point x="305" y="177" type="line" smooth="yes"/>
      <point x="305" y="146"/>
      <point x="289" y="127"/>
      <point x="247" y="127" type="curve" smooth="yes"/>
      <point x="205" y="127"/>
      <point x="190" y="147"/>
      <point x="190" y="177" type="curve" smooth="yes"/>
      <point x="190" y="693" type="line"/>
      <point x="40" y="693" type="line"/>
      <point x="40" y="169" type="line" smooth="yes"/>
      <point x="40" y="63"/>
      <point x="106" y="-10"/>
      <point x="247" y="-10" type="curve" smooth="yes"/>
      <point x="388" y="-10"/>
      <point x="455" y="63"/>
      <point x="455" y="169" type="curve" smooth="yes"/>
      <point x="455" y="693" type="line"/>
    </contour>
  </outline>
</glyph>
<glyph name="V" format="1">
  <advance width="485"/>
  <unicode hex="0056"/>
  <outline>
    <contour>
      <point x="324" y="693" type="line"/>
      <point x="278" y="398" type="line"/>
      <point x="264" y="309"/>
      <point x="245" y="130"/>
      <point x="245" y="130" type="curve"/>
      <point x="245" y="130"/>
      <point x="225" y="308"/>
      <point x="209" y="400" type="curve"/>
      <point x="158" y="693" type="line"/>
      <point x="5" y="693" type="line"/>
      <point x="139" y="0" type="line"/>
      <point x="348" y="0" type="line"/>
      <point x="480" y="693" type="line"/>
    </contour>
  </outline>
</glyph>
<glyph name="W" format="1">
  <advance width="593"/>
  <unicode hex="0057"/>
  <outline>
    <contour>
      <point x="459" y="693" type="line"/>
      <point x="426" y="465" type="line" smooth="yes"/>
      <point x="414" y="381"/>
      <point x="409" y="281"/>
      <point x="409" y="281" type="curve"/>
      <point x="409" y="281"/>
      <point x="398" y="381"/>
      <point x="388" y="465" type="curve" smooth="yes"/>
      <point x="362" y="693" type="line"/>
      <point x="235" y="693" type="line"/>
      <point x="207" y="465" type="line" smooth="yes"/>
      <point x="196" y="372"/>
      <point x="185" y="274"/>
      <point x="185" y="274" type="curve"/>
      <point x="185" y="274"/>
      <point x="181" y="372"/>
      <point x="168" y="465" type="curve" smooth="yes"/>
      <point x="136" y="693" type="line"/>
      <point x="5" y="693" type="line"/>
      <point x="94" y="0" type="line"/>
      <point x="237" y="0" type="line"/>
      <point x="279" y="274" type="line" smooth="yes"/>
      <point x="291" y="354"/>
      <point x="299" y="465"/>
      <point x="299" y="465" type="curve"/>
      <point x="299" y="465"/>
      <point x="309" y="354"/>
      <point x="321" y="274" type="curve" smooth="yes"/>
      <point x="362" y="0" type="line"/>
      <point x="496" y="0" type="line"/>
      <point x="588" y="693" type="line"/>
    </contour>
  </outline>
</glyph>
<glyph name="bracketleft" format="1">
  <advance width="374"/>
  <unicode hex="005B"/>
  <outline>
    <contour>
      <point x="88" y="439" type="line"/>
      <point x="88" y="-183" type="line"/>
      <point x="329" y="-183" type="line"/>
      <point x="329" y="-65" type="line"/>
      <point x="209" y="-65" type="line"/>
      <point x="209" y="439" type="line"/>
    </contour>
    <contour>
      <point x="88" y="869" type="line"/>
      <point x="88" y="431" type="line"/>
      <point x="209" y="431" type="line"/>
      <point x="209" y="752" type="line"/>
      <point x="329" y="752" type="line"/>
      <point x="329" y="869" type="line"/>
    </contour>
  </outline>
</glyph>
<glyph name="backslash" format="1">
  <advance width="487"/>
  <unicode hex="005C"/>
  <outline>
    <contour>
      <point x="39" y="869" type="line"/>
      <point x="309" y="-183" type="line"/>
      <point x="449" y="-183" type="line"/>
      <point x="178" y="869" type="line"/>
    </contour>
  </outline>
</glyph>
<glyph name="bracketright" format="1">
  <advance width="374"/>
  <unicode hex="005D"/>
  <outline>
    <contour>
      <point x="164" y="439" type="line"/>
      <point x="164" y="-65" type="line"/>
      <point x="44" y="-65" type="line"/>
      <point x="44" y="-183" type="line"/>
      <point x="285" y="-183" type="line"/>
      <point x="285" y="439" type="line"/>
    </contour>
    <contour>
      <point x="44" y="869" type="line"/>
      <point x="44" y="752" type="line"/>
      <point x="164" y="752" type="line"/>
      <point x="164" y="431" type="line"/>
      <point x="285" y="431" type="line"/>
      <point x="285" y="869" type="line"/>
    </contour>
  </outline>
</glyph>
<glyph name="asciicircum" format="1">
  <advance width="441"/>
  <unicode hex="005E"/>
  <outline>
    <contour>
      <point x="188" y="737" type="line"/>
      <point x="290" y="400" type="line"/>
      <point x="439" y="400" type="line"/>
      <point x="304" y="737" type="line"/>
    </contour>
    <contour>
      <point x="136" y="737" type="line"/>
      <point x="0" y="400" type="line"/>
      <point x="149" y="400" type="line"/>
      <point x="251" y="737" type="line"/>
    </contour>
  </outline>
</glyph>
<glyph name="underscore" format="1">
  <advance width="565"/>
  <unicode hex="005F"/>
  <outline>
    <contour>
      <point x="10" y="0" type="line"/>
      <point x="10" y="-120" type="line"/>
      <point x="554" y="-120" type="line"/>
      <point x="555" y="0" type="line"/>
    </contour>
  </outline>
</glyph>
<glyph name="b" format="1">
  <advance width="463"/>
  <unicode hex="0062"/>
  <outline>
    <contour>
      <point x="45" y="747" type="line"/>
      <point x="45" y="0" type="line"/>
      <point x="275" y="0" type="line"/>
      <point x="363" y="0"/>
      <point x="428" y="43"/>
      <point x="428" y="147" type="curve" smooth="yes"/>
      <point x="428" y="467" type="line" smooth="yes"/>
      <point x="428" y="555"/>
      <point x="373" y="593"/>
      <point x="302" y="593" type="curve" smooth="yes"/>
      <point x="253" y="593"/>
      <point x="216" y="585"/>
      <point x="196" y="578" type="curve"/>
      <point x="196" y="747" type="line"/>
    </contour>
    <contour>
      <point x="275" y="430" type="curve" smooth="yes"/>
      <point x="275" y="171" type="line" smooth="yes"/>
      <point x="275" y="148"/>
      <point x="261" y="139"/>
      <point x="236" y="139" type="curve" smooth="yes"/>
      <point x="196" y="139" type="line"/>
      <point x="196" y="443" type="line"/>
      <point x="206" y="449"/>
      <point x="226" y="454"/>
      <point x="246" y="454" type="curve" smooth="yes"/>
      <point x="265" y="454"/>
      <point x="275" y="446"/>
    </contour>
  </outline>
</glyph>
<glyph name="e" format="1">
  <advance width="432"/>
  <unicode hex="0065"/>
  <outline>
    <contour>
      <point x="35" y="439" type="curve" smooth="yes"/>
      <point x="35" y="192" type="line"/>
      <point x="180" y="190" type="line"/>
      <point x="180" y="437" type="line" smooth="yes"/>
      <point x="180" y="462"/>
      <point x="197" y="475"/>
      <point x="224" y="475" type="curve" smooth="yes"/>
      <point x="251" y="475"/>
      <point x="268" y="462"/>
      <point x="268" y="437" type="curve" smooth="yes"/>
      <point x="268" y="317" type="line"/>
      <point x="407" y="317" type="line"/>
      <point x="407" y="439" type="line" smooth="yes"/>
      <point x="407" y="537"/>
      <point x="355" y="600"/>
      <point x="224" y="600" type="curve" smooth="yes"/>
      <point x="93" y="600"/>
      <point x="35" y="537"/>
    </contour>
    <contour>
      <point x="35" y="264" type="line"/>
      <point x="35" y="168" type="line" smooth="yes"/>
      <point x="35" y="56"/>
      <point x="96" y="-6"/>
      <point x="243" y="-6" type="curve" smooth="yes"/>
      <point x="328" y="-6"/>
      <point x="360" y="4"/>
      <point x="393" y="13" type="curve"/>
      <point x="393" y="145" type="line"/>
      <point x="373" y="139"/>
      <point x="321" y="125"/>
      <point x="258" y="125" type="curve" smooth="yes"/>
      <point x="196" y="125"/>
      <point x="180" y="141"/>
      <point x="180" y="180" type="curve" smooth="yes"/>
      <point x="180" y="264" type="line"/>
    </contour>
    <contour>
      <point x="165" y="351" type="line"/>
      <point x="165" y="236" type="line"/>
      <point x="407" y="236" type="line"/>
      <point x="407" y="351" type="line"/>
    </contour>
  </outline>
</glyph>
<glyph name="f" format="1">
  <advance width="295"/>
  <unicode hex="0066"/>
  <outline>
    <contour>
      <point x="62" y="597" type="curve" smooth="yes"/>
      <point x="62" y="590" type="line"/>
      <point x="5" y="590" type="line"/>
      <point x="5" y="472" type="line"/>
      <point x="62" y="472" type="line"/>
      <point x="62" y="0" type="line"/>
      <point x="214" y="0" type="line"/>
      <point x="214" y="472" type="line"/>
      <point x="295" y="472" type="line"/>
      <point x="295" y="590" type="line"/>
      <point x="214" y="590" type="line"/>
      <point x="214" y="599" type="line" smooth="yes"/>
      <point x="214" y="631"/>
      <point x="228" y="647"/>
      <point x="265" y="647" type="curve" smooth="yes"/>
      <point x="275" y="647"/>
      <point x="287" y="646"/>
      <point x="295" y="645" type="curve"/>
      <point x="295" y="761" type="line"/>
      <point x="276" y="764"/>
      <point x="257" y="766"/>
      <point x="240" y="766" type="curve" smooth="yes"/>
      <point x="115" y="766"/>
      <point x="62" y="701"/>
    </contour>
  </outline>
</glyph>
<glyph name="g" format="1">
  <advance width="456"/>
  <unicode hex="0067"/>
  <outline>
    <contour>
      <point x="70" y="138" type="curve" smooth="yes"/>
      <point x="70" y="122" type="line" smooth="yes"/>
      <point x="70" y="58"/>
      <point x="120" y="33"/>
      <point x="214" y="33" type="curve" smooth="yes"/>
      <point x="275" y="33" type="line" smooth="yes"/>
      <point x="301" y="33"/>
      <point x="309" y="27"/>
      <point x="309" y="13" type="curve" smooth="yes"/>
      <point x="309" y="8" type="line" smooth="yes"/>
      <point x="309" y="-13"/>
      <point x="291" y="-24"/>
      <point x="218" y="-24" type="curve" smooth="yes"/>
      <point x="197" y="-24" type="line" smooth="yes"/>
      <point x="120" y="-24"/>
      <point x="48" y="5"/>
      <point x="15" y="31" type="curve"/>
      <point x="15" y="-106" type="line"/>
      <point x="42" y="-126"/>
      <point x="108" y="-150"/>
      <point x="201" y="-150" type="curve" smooth="yes"/>
      <point x="238" y="-150" type="line" smooth="yes"/>
      <point x="382" y="-150"/>
      <point x="449" y="-90"/>
      <point x="449" y="4" type="curve" smooth="yes"/>
      <point x="449" y="29" type="line" smooth="yes"/>
      <point x="449" y="117"/>
      <point x="398" y="155"/>
      <point x="297" y="155" type="curve" smooth="yes"/>
      <point x="242" y="155" type="line" smooth="yes"/>
      <point x="212" y="155"/>
      <point x="202" y="160"/>
      <point x="202" y="177" type="curve" smooth="yes"/>
      <point x="202" y="189"/>
      <point x="209" y="199"/>
      <point x="228" y="199" type="curve"/>
      <point x="209" y="205"/>
      <point x="168" y="213"/>
      <point x="144" y="213" type="curve"/>
      <point x="91" y="213"/>
      <point x="70" y="179"/>
    </contour>
    <contour>
      <point x="23" y="443" type="curve" smooth="yes"/>
      <point x="23" y="357" type="line" smooth="yes"/>
      <point x="23" y="259"/>
      <point x="84" y="199"/>
      <point x="218" y="199" type="curve" smooth="yes"/>
      <point x="352" y="199"/>
      <point x="413" y="259"/>
      <point x="413" y="357" type="curve" smooth="yes"/>
      <point x="413" y="443" type="line" smooth="yes"/>
      <point x="413" y="541"/>
      <point x="352" y="600"/>
      <point x="218" y="600" type="curve" smooth="yes"/>
      <point x="84" y="600"/>
      <point x="23" y="541"/>
    </contour>
    <contour>
      <point x="263" y="442" type="curve" smooth="yes"/>
      <point x="263" y="358" type="line" smooth="yes"/>
      <point x="263" y="332"/>
      <point x="250" y="319"/>
      <point x="218" y="319" type="curve" smooth="yes"/>
      <point x="186" y="319"/>
      <point x="173" y="332"/>
      <point x="173" y="358" type="curve" smooth="yes"/>
      <point x="173" y="442" type="line" smooth="yes"/>
      <point x="173" y="468"/>
      <point x="186" y="481"/>
      <point x="218" y="481" type="curve" smooth="yes"/>
      <point x="250" y="481"/>
      <point x="263" y="468"/>
    </contour>
    <contour>
      <point x="435" y="659" type="line"/>
      <point x="370" y="659"/>
      <point x="327" y="620"/>
      <point x="320" y="547" type="curve"/>
      <point x="360" y="511" type="line"/>
      <point x="374" y="520"/>
      <point x="393" y="525"/>
      <point x="416" y="525" type="curve" smooth="yes"/>
      <point x="451" y="525" type="line"/>
      <point x="451" y="659" type="line"/>
    </contour>
  </outline>
</glyph>
<glyph name="h" format="1">
  <advance width="463"/>
  <unicode hex="0068"/>
  <outline>
    <contour>
      <point x="45" y="747" type="line"/>
      <point x="45" y="0" type="line"/>
      <point x="196" y="0" type="line"/>
      <point x="196" y="444" type="line"/>
      <point x="206" y="450"/>
      <point x="223" y="454"/>
      <point x="243" y="454" type="curve" smooth="yes"/>
      <point x="262" y="454"/>
      <point x="270" y="446"/>
      <point x="270" y="430" type="curve" smooth="yes"/>
      <point x="270" y="0" type="line"/>
      <point x="423" y="0" type="line"/>
      <point x="423" y="467" type="line" smooth="yes"/>
      <point x="423" y="561"/>
      <point x="362" y="594"/>
      <point x="281" y="594" type="curve" smooth="yes"/>
      <point x="252" y="594"/>
      <point x="222" y="589"/>
      <point x="196" y="580" type="curve"/>
      <point x="196" y="747" type="line"/>
    </contour>
  </outline>
</glyph>
<glyph name="j" format="1">
  <advance width="241"/>
  <unicode hex="006A"/>
  <outline>
    <contour>
      <point x="45" y="574" type="line"/>
      <point x="45" y="32" type="line" smooth="yes"/>
      <point x="45" y="4"/>
      <point x="33" y="-13"/>
      <point x="4" y="-13" type="curve" smooth="yes"/>
      <point x="-4" y="-13"/>
      <point x="-11" y="-12"/>
      <point x="-19" y="-11" type="curve"/>
      <point x="-19" y="-149" type="line"/>
      <point x="-6" y="-153"/>
      <point x="7" y="-153"/>
      <point x="17" y="-153" type="curve" smooth="yes"/>
      <point x="140" y="-153"/>
      <point x="196" y="-72"/>
      <point x="196" y="32" type="curve" smooth="yes"/>
      <point x="196" y="574" type="line"/>
    </contour>
    <contour>
      <point x="37" y="685" type="curve" smooth="yes"/>
      <point x="37" y="640"/>
      <point x="57" y="607"/>
      <point x="121" y="607" type="curve" smooth="yes"/>
      <point x="183" y="607"/>
      <point x="204" y="640"/>
      <point x="204" y="685" type="curve" smooth="yes"/>
      <point x="204" y="731"/>
      <point x="183" y="764"/>
      <point x="121" y="764" type="curve" smooth="yes"/>
      <point x="57" y="764"/>
      <point x="37" y="731"/>
    </contour>
  </outline>
</glyph>
<glyph name="l" format="1">
  <advance width="241"/>
  <unicode hex="006C"/>
  <outline>
    <contour>
      <point x="45" y="747" type="line"/>
      <point x="45" y="0" type="line"/>
      <point x="196" y="0" type="line"/>
      <point x="196" y="747" type="line"/>
    </contour>
  </outline>
</glyph>
<glyph name="p" format="1">
  <advance width="463"/>
  <unicode hex="0070"/>
  <outline>
    <contour>
      <point x="187" y="564" type="curve"/>
      <point x="187" y="590" type="line"/>
      <point x="45" y="590" type="line"/>
      <point x="45" y="-149" type="line"/>
      <point x="196" y="-149" type="line"/>
      <point x="196" y="0" type="line"/>
      <point x="275" y="0" type="line" smooth="yes"/>
      <point x="363" y="0"/>
      <point x="428" y="43"/>
      <point x="428" y="147" type="curve" smooth="yes"/>
      <point x="428" y="467" type="line" smooth="yes"/>
      <point x="428" y="555"/>
      <point x="374" y="593"/>
      <point x="303" y="593" type="curve" smooth="yes"/>
      <point x="254" y="593"/>
      <point x="207" y="575"/>
    </contour>
    <contour>
      <point x="275" y="430" type="curve" smooth="yes"/>
      <point x="275" y="171" type="line" smooth="yes"/>
      <point x="275" y="148"/>
      <point x="261" y="139"/>
      <point x="236" y="139" type="curve" smooth="yes"/>
      <point x="196" y="139" type="line"/>
      <point x="196" y="441" type="line"/>
      <point x="206" y="447"/>
      <point x="226" y="454"/>
      <point x="246" y="454" type="curve" smooth="yes"/>
      <point x="265" y="454"/>
      <point x="275" y="446"/>
    </contour>
  </outline>
</glyph>
<glyph name="u" format="1">
  <advance width="467"/>
  <unicode hex="0075"/>
  <outline>
    <contour>
      <point x="271" y="590" type="line"/>
      <point x="271" y="148" type="line"/>
      <point x="261" y="142"/>
      <point x="241" y="136"/>
      <point x="221" y="136" type="curve" smooth="yes"/>
      <point x="201" y="136"/>
      <point x="193" y="146"/>
      <point x="193" y="162" type="curve" smooth="yes"/>
      <point x="193" y="590" type="line"/>
      <point x="40" y="590" type="line"/>
      <point x="40" y="132" type="line" smooth="yes"/>
      <point x="40" y="47"/>
      <point x="85" y="0"/>
      <point x="169" y="0" type="curve" smooth="yes"/>
      <point x="224" y="0"/>
      <point x="260" y="16"/>
      <point x="280" y="27" type="curve"/>
      <point x="280" y="0" type="line"/>
      <point x="422" y="0" type="line"/>
      <point x="422" y="590" type="line"/>
    </contour>
  </outline>
</glyph>
<glyph name="w" format="1">
  <advance width="624"/>
  <unicode hex="0077"/>
  <outline>
    <contour>
      <point x="466" y="590" type="line"/>
      <point x="437" y="193" type="line"/>
      <point x="382" y="590" type="line"/>
      <point x="245" y="590" type="line"/>
      <point x="193" y="195" type="line"/>
      <point x="162" y="590" type="line"/>
      <point x="5" y="590" type="line"/>
      <point x="101" y="0" type="line"/>
      <point x="269" y="0" type="line"/>
      <point x="294" y="212" type="line"/>
      <point x="301" y="270"/>
      <point x="308" y="328"/>
      <point x="315" y="386" type="curve"/>
      <point x="322" y="328"/>
      <point x="329" y="269"/>
      <point x="336" y="211" type="curve" smooth="yes"/>
      <point x="359" y="0" type="line"/>
      <point x="528" y="0" type="line"/>
      <point x="619" y="590" type="line"/>
    </contour>
  </outline>
</glyph>
<glyph name="x" format="1">
  <advance width="409"/>
  <unicode hex="0078"/>
  <outline>
    <contour>
      <point x="239" y="590" type="line"/>
      <point x="205" y="442" type="line"/>
      <point x="169" y="590" type="line"/>
      <point x="6" y="590" type="line"/>
      <point x="124" y="298" type="line"/>
      <point x="5" y="0" type="line"/>
      <point x="169" y="0" type="line"/>
      <point x="205" y="157" type="line"/>
      <point x="239" y="0" type="line"/>
      <point x="404" y="0" type="line"/>
      <point x="281" y="298" type="line"/>
      <point x="403" y="590" type="line"/>
    </contour>
  </outline>
</glyph>
<glyph name="y" format="1">
  <advance width="448"/>
  <unicode hex="0079"/>
  <outline>
    <contour>
      <point x="293" y="590" type="line"/>
      <point x="261" y="405" type="line"/>
      <point x="232" y="240"/>
      <point x="227" y="119"/>
      <point x="227" y="119" type="curve"/>
      <point x="227" y="119"/>
      <point x="224" y="238"/>
      <point x="192" y="408" type="curve" smooth="yes"/>
      <point x="158" y="590" type="line"/>
      <point x="10" y="590" type="line"/>
      <point x="128" y="0" type="line"/>
      <point x="180" y="0" type="line"/>
      <point x="152" y="-149" type="line"/>
      <point x="298" y="-149" type="line"/>
      <point x="438" y="590" type="line"/>
    </contour>
  </outline>
</glyph>
<glyph name="bar" format="1">
  <advance width="224"/>
  <unicode hex="007C"/>
  <outline>
    <contour>
      <point x="61" y="880" type="line"/>
      <point x="61" y="-190" type="line"/>
      <point x="161" y="-190" type="line"/>
      <point x="161" y="880" type="line"/>
    </contour>
  </outline>
</glyph>
<glyph name="braceright" format="1">
  <advance width="409"/>
  <unicode hex="007D"/>
  <outline>
    <contour>
      <point x="347" y="401" type="line"/>
      <point x="304" y="401"/>
      <point x="278" y="420"/>
      <point x="278" y="460" type="curve" smooth="yes"/>
      <point x="278" y="677" type="line" smooth="yes"/>
      <point x="278" y="780"/>
      <point x="222" y="852"/>
      <point x="120" y="852" type="curve" smooth="yes"/>
      <point x="64" y="852" type="line"/>
      <point x="64" y="723" type="line"/>
      <point x="109" y="723" type="line" smooth="yes"/>
      <point x="136" y="723"/>
      <point x="148" y="708"/>
      <point x="148" y="684" type="curve" smooth="yes"/>
      <point x="148" y="497" type="line" smooth="yes"/>
      <point x="148" y="411"/>
      <point x="166" y="353"/>
      <point x="241" y="337" type="curve"/>
      <point x="166" y="323"/>
      <point x="148" y="272"/>
      <point x="148" y="186" type="curve" smooth="yes"/>
      <point x="148" y="-12" type="line" smooth="yes"/>
      <point x="148" y="-36"/>
      <point x="136" y="-51"/>
      <point x="109" y="-51" type="curve" smooth="yes"/>
      <point x="64" y="-51" type="line"/>
      <point x="64" y="-180" type="line"/>
      <point x="120" y="-180" type="line" smooth="yes"/>
      <point x="222" y="-180"/>
      <point x="278" y="-108"/>
      <point x="278" y="-5" type="curve" smooth="yes"/>
      <point x="278" y="213" type="line" smooth="yes"/>
      <point x="278" y="253"/>
      <point x="304" y="272"/>
      <point x="347" y="272" type="curve" smooth="yes"/>
      <point x="352" y="272" type="line"/>
      <point x="352" y="401" type="line"/>
    </contour>
  </outline>
</glyph>
<glyph name="sterling" format="1">
  <advance width="520"/>
  <unicode hex="00A3"/>
  <outline>
    <contour>
      <point x="118" y="496" type="curve" smooth="yes"/>
      <point x="118" y="220" type="line" smooth="yes"/>
      <point x="118" y="160"/>
      <point x="92" y="139"/>
      <point x="55" y="127" type="curve"/>
      <point x="55" y="0" type="line"/>
      <point x="462" y="0" type="line"/>
      <point x="462" y="130" type="line"/>
      <point x="222" y="130" type="line"/>
      <point x="253" y="155"/>
      <point x="268" y="179"/>
      <point x="268" y="243" type="curve"/>
      <point x="268" y="484" type="line" smooth="yes"/>
      <point x="268" y="536"/>
      <point x="291" y="561"/>
      <point x="347" y="561" type="curve" smooth="yes"/>
      <point x="393" y="561"/>
      <point x="420" y="556"/>
      <point x="451" y="546" type="curve"/>
      <point x="451" y="685" type="line"/>
      <point x="430" y="692"/>
      <point x="390" y="698"/>
      <point x="337" y="698" type="curve" smooth="yes"/>
      <point x="200" y="698"/>
      <point x="118" y="632"/>
    </contour>
    <contour>
      <point x="55" y="415" type="line"/>
      <point x="55" y="287" type="line"/>
      <point x="405" y="287" type="line"/>
      <point x="405" y="415" type="line"/>
    </contour>
  </outline>
</glyph>
<glyph name="currency" format="1">
  <advance width="460"/>
  <unicode hex="00A4"/>
  <outline>
    <contour>
      <point x="31" y="404" type="curve" smooth="yes"/>
      <point x="31" y="289" type="line" smooth="yes"/>
      <point x="31" y="183"/>
      <point x="92" y="110"/>
      <point x="233" y="110" type="curve" smooth="yes"/>
      <point x="374" y="110"/>
      <point x="435" y="183"/>
      <point x="435" y="289" type="curve" smooth="yes"/>
      <point x="435" y="404" type="line" smooth="yes"/>
      <point x="435" y="510"/>
      <point x="374" y="583"/>
      <point x="233" y="583" type="curve" smooth="yes"/>
      <point x="92" y="583"/>
      <point x="31" y="510"/>
    </contour>
    <contour>
      <point x="1" y="151" type="line"/>
      <point x="86" y="66" type="line"/>
      <point x="191" y="172" type="line"/>
      <point x="109" y="259" type="line"/>
    </contour>
    <contour>
      <point x="268" y="177" type="line"/>
      <point x="379" y="66" type="line"/>
      <point x="464" y="151" type="line"/>
      <point x="361" y="253" type="line"/>
    </contour>
    <contour>
      <point x="290" y="399" type="curve" smooth="yes"/>
      <point x="290" y="294" type="line" smooth="yes"/>
      <point x="290" y="261"/>
      <point x="273" y="241"/>
      <point x="233" y="241" type="curve" smooth="yes"/>
      <point x="193" y="241"/>
      <point x="176" y="262"/>
      <point x="176" y="294" type="curve" smooth="yes"/>
      <point x="176" y="399" type="line" smooth="yes"/>
      <point x="176" y="432"/>
      <point x="193" y="452"/>
      <point x="233" y="452" type="curve" smooth="yes"/>
      <point x="273" y="452"/>
      <point x="290" y="431"/>
    </contour>
    <contour>
      <point x="2" y="542" type="line"/>
      <point x="111" y="434" type="line"/>
      <point x="200" y="513" type="line"/>
      <point x="87" y="627" type="line"/>
    </contour>
    <contour>
      <point x="275" y="521" type="line"/>
      <point x="351" y="429" type="line"/>
      <point x="465" y="542" type="line"/>
      <point x="380" y="627" type="line"/>
    </contour>
  </outline>
</glyph>
<glyph name="yen" format="1">
  <advance width="562"/>
  <unicode hex="00A5"/>
  <outline>
    <contour>
      <point x="372" y="693" type="line"/>
      <point x="316" y="511" type="line"/>
      <point x="283" y="397" type="line"/>
      <point x="250" y="511" type="line"/>
      <point x="194" y="693" type="line"/>
      <point x="40" y="693" type="line"/>
      <point x="125" y="445" type="line"/>
      <point x="44" y="445" type="line"/>
      <point x="44" y="328" type="line"/>
      <point x="166" y="328" type="line"/>
      <point x="185" y="272" type="line"/>
      <point x="44" y="272" type="line"/>
      <point x="44" y="155" type="line"/>
      <point x="205" y="155" type="line"/>
      <point x="205" y="0" type="line"/>
      <point x="357" y="0" type="line"/>
      <point x="357" y="155" type="line"/>
      <point x="511" y="155" type="line"/>
      <point x="511" y="272" type="line"/>
      <point x="376" y="272" type="line"/>
      <point x="396" y="328" type="line"/>
      <point x="511" y="328" type="line"/>
      <point x="511" y="445" type="line"/>
      <point x="436" y="445" type="line"/>
      <point x="522" y="693" type="line"/>
    </contour>
  </outline>
</glyph>
<glyph name="brokenbar" format="1">
  <advance width="225"/>
  <unicode hex="00A6"/>
  <outline>
    <contour>
      <point x="61" y="880" type="line"/>
      <point x="61" y="490" type="line"/>
      <point x="161" y="490" type="line"/>
      <point x="161" y="880" type="line"/>
    </contour>
    <contour>
      <point x="61" y="200" type="line"/>
      <point x="61" y="-190" type="line"/>
      <point x="161" y="-190" type="line"/>
      <point x="161" y="200" type="line"/>
    </contour>
  </outline>
</glyph>
<glyph name="dieresis" format="1">
  <advance width="350"/>
  <unicode hex="00A8"/>
  <outline>
    <contour>
      <point x="32" y="689" type="curve" smooth="yes"/>
      <point x="32" y="657"/>
      <point x="45" y="635"/>
      <point x="90" y="635" type="curve" smooth="yes"/>
      <point x="134" y="635"/>
      <point x="148" y="657"/>
      <point x="148" y="689" type="curve" smooth="yes"/>
      <point x="148" y="722"/>
      <point x="134" y="744"/>
      <point x="90" y="744" type="curve" smooth="yes"/>
      <point x="45" y="744"/>
      <point x="32" y="722"/>
    </contour>
    <contour>
      <point x="203" y="689" type="curve" smooth="yes"/>
      <point x="203" y="657"/>
      <point x="216" y="635"/>
      <point x="261" y="635" type="curve" smooth="yes"/>
      <point x="305" y="635"/>
      <point x="319" y="657"/>
      <point x="319" y="689" type="curve" smooth="yes"/>
      <point x="319" y="722"/>
      <point x="305" y="744"/>
      <point x="261" y="744" type="curve" smooth="yes"/>
      <point x="216" y="744"/>
      <point x="203" y="722"/>
    </contour>
  </outline>
</glyph>
<glyph name="copyright" format="1">
  <advance width="708"/>
  <unicode hex="00A9"/>
  <outline>
    <contour>
      <point x="35" y="335" type="curve" smooth="yes"/>
      <point x="35" y="140"/>
      <point x="93" y="0"/>
      <point x="354" y="0" type="curve" smooth="yes"/>
      <point x="613" y="0"/>
      <point x="673" y="143"/>
      <point x="673" y="335" type="curve" smooth="yes"/>
      <point x="673" y="532"/>
      <point x="617" y="671"/>
      <point x="354" y="671" type="curve" smooth="yes"/>
      <point x="96" y="671"/>
      <point x="35" y="529"/>
    </contour>
    <contour>
      <point x="226" y="398" type="curve" smooth="yes"/>
      <point x="226" y="275" type="line" smooth="yes"/>
      <point x="226" y="201"/>
      <point x="265" y="158"/>
      <point x="362" y="158" type="curve" smooth="yes"/>
      <point x="412" y="158"/>
      <point x="440" y="168"/>
      <point x="440" y="168" type="curve"/>
      <point x="440" y="256" type="line"/>
      <point x="402" y="250"/>
      <point x="388" y="250"/>
      <point x="364" y="250" type="curve" smooth="yes"/>
      <point x="331" y="250"/>
      <point x="328" y="261"/>
      <point x="328" y="278" type="curve" smooth="yes"/>
      <point x="328" y="395" type="line" smooth="yes"/>
      <point x="328" y="412"/>
      <point x="331" y="423"/>
      <point x="364" y="423" type="curve" smooth="yes"/>
      <point x="388" y="423"/>
      <point x="402" y="422"/>
      <point x="440" y="416" type="curve"/>
      <point x="440" y="505" type="line"/>
      <point x="440" y="505"/>
      <point x="412" y="515"/>
      <point x="362" y="515" type="curve" smooth="yes"/>
      <point x="265" y="515"/>
      <point x="226" y="472"/>
    </contour>
    <contour>
      <point x="565" y="335" type="curve" smooth="yes"/>
      <point x="565" y="201"/>
      <point x="552" y="102"/>
      <point x="354" y="102" type="curve" smooth="yes"/>
      <point x="153" y="102"/>
      <point x="143" y="198"/>
      <point x="143" y="335" type="curve" smooth="yes"/>
      <point x="143" y="471"/>
      <point x="151" y="568"/>
      <point x="354" y="568" type="curve" smooth="yes"/>
      <point x="559" y="568"/>
      <point x="565" y="473"/>
    </contour>
  </outline>
</glyph>
<glyph name="guillemotleft" format="1">
  <advance width="640"/>
  <unicode hex="00AB"/>
  <outline>
    <contour>
      <point x="415" y="505" type="line"/>
      <point x="294" y="322" type="line"/>
      <point x="415" y="139" type="line"/>
      <point x="565" y="139" type="line"/>
      <point x="443" y="322" type="line"/>
      <point x="565" y="505" type="line"/>
    </contour>
    <contour>
      <point x="181" y="505" type="line"/>
      <point x="60" y="322" type="line"/>
      <point x="181" y="139" type="line"/>
      <point x="331" y="139" type="line"/>
      <point x="209" y="322" type="line"/>
      <point x="331" y="505" type="line"/>
    </contour>
  </outline>
</glyph>
<glyph name="softhyphen" format="1">
  <advance width="312"/>
  <unicode hex="00AD"/>
  <outline>
    <contour>
      <point x="41" y="397" type="line"/>
      <point x="41" y="267" type="line"/>
      <point x="277" y="267" type="line"/>
      <point x="277" y="397" type="line"/>
    </contour>
  </outline>
</glyph>
<glyph name="degree" format="1">
  <advance width="440"/>
  <unicode hex="00B0"/>
  <outline>
    <contour>
      <point x="42" y="674" type="curve" smooth="yes"/>
      <point x="42" y="568"/>
      <point x="93" y="492"/>
      <point x="219" y="492" type="curve" smooth="yes"/>
      <point x="345" y="492"/>
      <point x="397" y="568"/>
      <point x="397" y="674" type="curve" smooth="yes"/>
      <point x="397" y="780"/>
      <point x="345" y="856"/>
      <point x="219" y="856" type="curve" smooth="yes"/>
      <point x="93" y="856"/>
      <point x="42" y="780"/>
    </contour>
    <contour>
      <point x="273" y="674" type="curve" smooth="yes"/>
      <point x="273" y="629"/>
      <point x="259" y="605"/>
      <point x="219" y="605" type="curve" smooth="yes"/>
      <point x="179" y="605"/>
      <point x="166" y="629"/>
      <point x="166" y="674" type="curve" smooth="yes"/>
      <point x="166" y="719"/>
      <point x="179" y="743"/>
      <point x="219" y="743" type="curve" smooth="yes"/>
      <point x="259" y="743"/>
      <point x="273" y="719"/>
    </contour>
  </outline>
</glyph>
<glyph name="threesuperior" format="1">
  <advance width="290"/>
  <unicode hex="00B3"/>
  <outline>
    <contour>
      <point x="25" y="732" type="curve"/>
      <point x="25" y="645" type="line"/>
      <point x="62" y="654"/>
      <point x="85" y="658"/>
      <point x="132" y="658" type="curve" smooth="yes"/>
      <point x="155" y="658"/>
      <point x="162" y="649"/>
      <point x="162" y="631" type="curve" smooth="yes"/>
      <point x="162" y="584" type="line" smooth="yes"/>
      <point x="162" y="569"/>
      <point x="158" y="558"/>
      <point x="135" y="558" type="curve" smooth="yes"/>
      <point x="85" y="558" type="line"/>
      <point x="85" y="471" type="line"/>
      <point x="135" y="471" type="line" smooth="yes"/>
      <point x="158" y="471"/>
      <point x="162" y="461"/>
      <point x="162" y="445" type="curve" smooth="yes"/>
      <point x="162" y="397" type="line" smooth="yes"/>
      <point x="162" y="379"/>
      <point x="155" y="370"/>
      <point x="132" y="370" type="curve" smooth="yes"/>
      <point x="85" y="370"/>
      <point x="62" y="374"/>
      <point x="25" y="383" type="curve"/>
      <point x="25" y="296" type="line"/>
      <point x="40" y="291"/>
      <point x="66" y="284"/>
      <point x="136" y="284" type="curve" smooth="yes"/>
      <point x="219" y="284"/>
      <point x="257" y="324"/>
      <point x="257" y="394" type="curve" smooth="yes"/>
      <point x="257" y="445" type="line" smooth="yes"/>
      <point x="257" y="481"/>
      <point x="245" y="503"/>
      <point x="225" y="516" type="curve"/>
      <point x="247" y="530"/>
      <point x="257" y="553"/>
      <point x="257" y="584" type="curve" smooth="yes"/>
      <point x="257" y="634" type="line" smooth="yes"/>
      <point x="257" y="704"/>
      <point x="219" y="744"/>
      <point x="136" y="744" type="curve" smooth="yes"/>
      <point x="66" y="744"/>
      <point x="40" y="737"/>
    </contour>
  </outline>
</glyph>
<glyph name="acute" format="1">
  <advance width="350"/>
  <unicode hex="00B4"/>
  <outline>
    <contour>
      <point x="142" y="747" type="line"/>
      <point x="98" y="632" type="line"/>
      <point x="177" y="632" type="line"/>
      <point x="252" y="747" type="line"/>
    </contour>
  </outline>
</glyph>
<glyph name="mu.math" format="1">
  <advance width="465"/>
  <unicode hex="00B5"/>
  <outline>
    <contour>
      <point x="269" y="590" type="line"/>
      <point x="269" y="148" type="line"/>
      <point x="259" y="143"/>
      <point x="234" y="137"/>
      <point x="213" y="137" type="curve" smooth="yes"/>
      <point x="205" y="137"/>
      <point x="197" y="137"/>
      <point x="191" y="139" type="curve"/>
      <point x="191" y="590" type="line"/>
      <point x="38" y="590" type="line"/>
      <point x="38" y="-148" type="line"/>
      <point x="191" y="-148" type="line"/>
      <point x="191" y="1" type="line"/>
      <point x="197" y="1"/>
      <point x="204" y="2"/>
      <point x="209" y="3" type="curve" smooth="yes"/>
      <point x="241" y="8"/>
      <point x="264" y="19"/>
      <point x="278" y="27" type="curve"/>
      <point x="278" y="0" type="line"/>
      <point x="420" y="0" type="line"/>
      <point x="420" y="590" type="line"/>
    </contour>
  </outline>
</glyph>
<glyph name="paragraph" format="1">
  <advance width="463"/>
  <unicode hex="00B6"/>
  <outline>
    <contour>
      <point x="231" y="693" type="line"/>
      <point x="125" y="693"/>
      <point x="57" y="642"/>
      <point x="57" y="542" type="curve"/>
      <point x="57" y="439"/>
      <point x="125" y="388"/>
      <point x="231" y="388" type="curve" smooth="yes"/>
      <point x="256" y="388" type="line"/>
      <point x="256" y="0" type="line"/>
      <point x="408" y="0" type="line"/>
      <point x="408" y="693" type="line"/>
    </contour>
  </outline>
</glyph>
<glyph name="periodcentered" format="1">
  <advance width="287"/>
  <unicode hex="00B7"/>
  <outline>
    <contour>
      <point x="67" y="346" type="curve" smooth="yes"/>
      <point x="67" y="304"/>
      <point x="83" y="271"/>
      <point x="142" y="271" type="curve" smooth="yes"/>
      <point x="200" y="271"/>
      <point x="217" y="304"/>
      <point x="217" y="346" type="curve" smooth="yes"/>
      <point x="217" y="388"/>
      <point x="200" y="421"/>
      <point x="142" y="421" type="curve" smooth="yes"/>
      <point x="83" y="421"/>
      <point x="67" y="388"/>
    </contour>
  </outline>
</glyph>
<glyph name="onesuperior" format="1">
  <advance width="213"/>
  <unicode hex="00B9"/>
  <outline>
    <contour>
      <point x="84" y="737" type="line"/>
      <point x="8" y="683" type="line"/>
      <point x="8" y="578" type="line"/>
      <point x="84" y="632" type="line"/>
      <point x="84" y="288" type="line"/>
      <point x="178" y="288" type="line"/>
      <point x="178" y="737" type="line"/>
    </contour>
  </outline>
</glyph>
<glyph name="guillemotright" format="1">
  <advance width="637"/>
  <unicode hex="00BB"/>
  <outline>
    <contour>
      <point x="294" y="505" type="line"/>
      <point x="416" y="322" type="line"/>
      <point x="294" y="139" type="line"/>
      <point x="444" y="139" type="line"/>
      <point x="565" y="322" type="line"/>
      <point x="444" y="505" type="line"/>
    </contour>
    <contour>
      <point x="60" y="505" type="line"/>
      <point x="182" y="322" type="line"/>
      <point x="60" y="139" type="line"/>
      <point x="210" y="139" type="line"/>
      <point x="331" y="322" type="line"/>
      <point x="210" y="505" type="line"/>
    </contour>
  </outline>
</glyph>
<glyph name="onequarter" format="1">
  <advance width="829"/>
  <unicode hex="00BC"/>
  <outline>
    <contour>
      <point x="116" y="693" type="line"/>
      <point x="40" y="639" type="line"/>
      <point x="40" y="534" type="line"/>
      <point x="116" y="588" type="line"/>
      <point x="116" y="244" type="line"/>
      <point x="210" y="244" type="line"/>
      <point x="210" y="693" type="line"/>
    </contour>
    <contour>
      <point x="590" y="449" type="line"/>
      <point x="484" y="165" type="line"/>
      <point x="484" y="76" type="line"/>
      <point x="643" y="76" type="line"/>
      <point x="643" y="0" type="line"/>
      <point x="737" y="0" type="line"/>
      <point x="737" y="76" type="line"/>
      <point x="779" y="76" type="line"/>
      <point x="779" y="160" type="line"/>
      <point x="737" y="160" type="line"/>
      <point x="737" y="449" type="line"/>
    </contour>
    <contour>
      <point x="643" y="160" type="line"/>
      <point x="571" y="160" type="line"/>
      <point x="643" y="368" type="line"/>
    </contour>
    <contour>
      <point x="540" y="693" type="line"/>
      <point x="137" y="0" type="line"/>
      <point x="232" y="0" type="line"/>
      <point x="635" y="693" type="line"/>
    </contour>
  </outline>
</glyph>
<glyph name="threequarters" format="1">
  <advance width="851"/>
  <unicode hex="00BE"/>
  <outline>
    <contour>
      <point x="612" y="449" type="line"/>
      <point x="506" y="165" type="line"/>
      <point x="506" y="76" type="line"/>
      <point x="665" y="76" type="line"/>
      <point x="665" y="0" type="line"/>
      <point x="759" y="0" type="line"/>
      <point x="759" y="76" type="line"/>
      <point x="801" y="76" type="line"/>
      <point x="801" y="160" type="line"/>
      <point x="759" y="160" type="line"/>
      <point x="759" y="449" type="line"/>
    </contour>
    <contour>
      <point x="665" y="160" type="line"/>
      <point x="593" y="160" type="line"/>
      <point x="665" y="368" type="line"/>
    </contour>
    <contour>
      <point x="562" y="693" type="line"/>
      <point x="159" y="0" type="line"/>
      <point x="254" y="0" type="line"/>
      <point x="657" y="693" type="line"/>
    </contour>
    <contour>
      <point x="40" y="687" type="curve"/>
      <point x="40" y="600" type="line"/>
      <point x="77" y="609"/>
      <point x="100" y="613"/>
      <point x="147" y="613" type="curve" smooth="yes"/>
      <point x="170" y="613"/>
      <point x="177" y="604"/>
      <point x="177" y="586" type="curve" smooth="yes"/>
      <point x="177" y="539" type="line" smooth="yes"/>
      <point x="177" y="524"/>
      <point x="173" y="513"/>
      <point x="150" y="513" type="curve" smooth="yes"/>
      <point x="100" y="513" type="line"/>
      <point x="100" y="426" type="line"/>
      <point x="150" y="426" type="line" smooth="yes"/>
      <point x="173" y="426"/>
      <point x="177" y="416"/>
      <point x="177" y="400" type="curve" smooth="yes"/>
      <point x="177" y="352" type="line" smooth="yes"/>
      <point x="177" y="334"/>
      <point x="170" y="325"/>
      <point x="147" y="325" type="curve" smooth="yes"/>
      <point x="100" y="325"/>
      <point x="77" y="329"/>
      <point x="40" y="338" type="curve"/>
      <point x="40" y="251" type="line"/>
      <point x="55" y="246"/>
      <point x="81" y="239"/>
      <point x="151" y="239" type="curve" smooth="yes"/>
      <point x="234" y="239"/>
      <point x="272" y="279"/>
      <point x="272" y="349" type="curve" smooth="yes"/>
      <point x="272" y="400" type="line" smooth="yes"/>
      <point x="272" y="436"/>
      <point x="260" y="458"/>
      <point x="240" y="471" type="curve"/>
      <point x="262" y="485"/>
      <point x="272" y="508"/>
      <point x="272" y="539" type="curve" smooth="yes"/>
      <point x="272" y="589" type="line" smooth="yes"/>
      <point x="272" y="659"/>
      <point x="234" y="699"/>
      <point x="151" y="699" type="curve" smooth="yes"/>
      <point x="81" y="699"/>
      <point x="55" y="692"/>
    </contour>
  </outline>
</glyph>
<glyph name="multiply" format="1">
  <advance width="493"/>
  <unicode hex="00D7"/>
  <outline>
    <contour>
      <point x="44" y="444" type="line"/>
      <point x="357" y="131" type="line"/>
      <point x="449" y="223" type="line"/>
      <point x="136" y="536" type="line"/>
    </contour>
    <contour>
      <point x="42" y="223" type="line"/>
      <point x="134" y="131" type="line"/>
      <point x="447" y="444" type="line"/>
      <point x="355" y="536" type="line"/>
    </contour>
  </outline>
</glyph>
<glyph name="Oslash" format="1">
  <advance width="489"/>
  <unicode hex="00D8"/>
  <outline>
    <contour>
      <point x="369" y="693" type="line"/>
      <point x="30" y="0" type="line"/>
      <point x="120" y="0" type="line"/>
      <point x="459" y="693" type="line"/>
    </contour>
    <component base="O"/>
  </outline>
</glyph>
<glyph name="ae" format="1">
  <advance width="655"/>
  <unicode hex="00E6"/>
  <outline>
    <contour>
      <point x="318" y="572" type="curve"/>
      <point x="289" y="587"/>
      <point x="250" y="595"/>
      <point x="200" y="595" type="curve" smooth="yes"/>
      <point x="129" y="595"/>
      <point x="70" y="581"/>
      <point x="50" y="574" type="curve"/>
      <point x="50" y="442" type="line"/>
      <point x="68" y="449"/>
      <point x="126" y="464"/>
      <point x="187" y="464" type="curve" smooth="yes"/>
      <point x="240" y="464"/>
      <point x="251" y="446"/>
      <point x="251" y="426" type="curve" smooth="yes"/>
      <point x="252" y="369" type="line"/>
      <point x="144" y="335" type="line" smooth="yes"/>
      <point x="59" y="309"/>
      <point x="24" y="267"/>
      <point x="24" y="177" type="curve" smooth="yes"/>
      <point x="24" y="142" type="line" smooth="yes"/>
      <point x="24" y="42"/>
      <point x="80" y="-4"/>
      <point x="175" y="-4" type="curve" smooth="yes"/>
      <point x="241" y="-4"/>
      <point x="288" y="5"/>
      <point x="320" y="25" type="curve"/>
      <point x="353" y="5"/>
      <point x="398" y="-6"/>
      <point x="459" y="-6" type="curve" smooth="yes"/>
      <point x="544" y="-6"/>
      <point x="576" y="4"/>
      <point x="609" y="13" type="curve"/>
      <point x="609" y="145" type="line"/>
      <point x="589" y="139"/>
      <point x="537" y="125"/>
      <point x="474" y="125" type="curve" smooth="yes"/>
      <point x="421" y="125"/>
      <point x="395" y="136"/>
      <point x="395" y="180" type="curve" smooth="yes"/>
      <point x="395" y="236" type="line"/>
      <point x="623" y="236" type="line"/>
      <point x="623" y="439" type="line" smooth="yes"/>
      <point x="623" y="537"/>
      <point x="571" y="600"/>
      <point x="440" y="600" type="curve" smooth="yes"/>
      <point x="388" y="600"/>
      <point x="348" y="590"/>
    </contour>
    <contour>
      <point x="255" y="121" type="line"/>
      <point x="237" y="112"/>
      <point x="216" y="109"/>
      <point x="202" y="109" type="curve" smooth="yes"/>
      <point x="183" y="109"/>
      <point x="167" y="118"/>
      <point x="167" y="143" type="curve"/>
      <point x="167" y="171" type="line" smooth="yes"/>
      <point x="167" y="209"/>
      <point x="172" y="221"/>
      <point x="206" y="230" type="curve" smooth="yes"/>
      <point x="255" y="243" type="line"/>
    </contour>
    <contour>
      <point x="484" y="437" type="curve" smooth="yes"/>
      <point x="484" y="351" type="line"/>
      <point x="394" y="351" type="line"/>
      <point x="394" y="437" type="line"/>
      <point x="394" y="462"/>
      <point x="413" y="475"/>
      <point x="440" y="475" type="curve" smooth="yes"/>
      <point x="467" y="475"/>
      <point x="484" y="462"/>
    </contour>
  </outline>
</glyph>
<glyph name="igrave" format="1">
  <advance width="241"/>
  <unicode hex="00EC"/>
  <outline>
    <contour>
      <point x="45" y="574" type="line"/>
      <point x="45" y="0" type="line"/>
      <point x="196" y="0" type="line"/>
      <point x="196" y="574" type="line"/>
    </contour>
    <component base="grave" xOffset="-100"/>
  </outline>
</glyph>
<glyph name="iacute" format="1">
  <advance width="241"/>
  <unicode hex="00ED"/>
  <outline>
    <contour>
      <point x="45" y="574" type="line"/>
      <point x="45" y="0" type="line"/>
      <point x="196" y="0" type="line"/>
      <point x="196" y="574" type="line"/>
    </contour>
    <component base="acute" xOffset="-20"/>
  </outline>
</glyph>
<glyph name="icircumflex" format="1">
  <advance width="241"/>
  <unicode hex="00EE"/>
  <outline>
    <contour>
      <point x="45" y="574" type="line"/>
      <point x="45" y="0" type="line"/>
      <point x="196" y="0" type="line"/>
      <point x="196" y="574" type="line"/>
    </contour>
    <component base="circumflex" xOffset="-53"/>
  </outline>
</glyph>
<glyph name="idieresis" format="1">
  <advance width="241"/>
  <unicode hex="00EF"/>
  <outline>
    <contour>
      <point x="45" y="574" type="line"/>
      <point x="45" y="0" type="line"/>
      <point x="196" y="0" type="line"/>
      <point x="196" y="574" type="line"/>
    </contour>
    <component base="dieresis" xOffset="-55"/>
  </outline>
</glyph>
<glyph name="thorn" format="1">
  <advance width="463"/>
  <unicode hex="00FE"/>
  <outline>
    <contour>
      <point x="45" y="747" type="line"/>
      <point x="45" y="-157" type="line"/>
      <point x="196" y="-157" type="line"/>
      <point x="196" y="0" type="line"/>
      <point x="275" y="0" type="line" smooth="yes"/>
      <point x="363" y="0"/>
      <point x="428" y="43"/>
      <point x="428" y="147" type="curve" smooth="yes"/>
      <point x="428" y="467" type="line" smooth="yes"/>
      <point x="428" y="555"/>
      <point x="374" y="593"/>
      <point x="303" y="593" type="curve" smooth="yes"/>
      <point x="254" y="593"/>
      <point x="216" y="579"/>
      <point x="196" y="568" type="curve"/>
      <point x="196" y="747" type="line"/>
    </contour>
    <contour>
      <point x="275" y="432" type="curve" smooth="yes"/>
      <point x="275" y="167" type="line" smooth="yes"/>
      <point x="275" y="144"/>
      <point x="261" y="135"/>
      <point x="236" y="135" type="curve" smooth="yes"/>
      <point x="196" y="135" type="line"/>
      <point x="196" y="443" type="line"/>
      <point x="206" y="449"/>
      <point x="226" y="456"/>
      <point x="246" y="456" type="curve" smooth="yes"/>
      <point x="265" y="456"/>
      <point x="275" y="448"/>
    </contour>
  </outline>
</glyph>
<glyph name="dcaron" format="1">
  <advance width="490"/>
  <unicode hex="010F"/>
  <outline>
    <contour>
      <point x="265" y="747" type="line"/>
      <point x="265" y="590" type="line"/>
      <point x="221" y="590" type="line"/>
      <point x="91" y="590"/>
      <point x="35" y="518"/>
      <point x="35" y="411" type="curve"/>
      <point x="35" y="132" type="line" smooth="yes"/>
      <point x="35" y="48"/>
      <point x="78" y="-4"/>
      <point x="164" y="-4" type="curve"/>
      <point x="224" y="-4"/>
      <point x="259" y="28"/>
      <point x="270" y="42" type="curve"/>
      <point x="270" y="0" type="line"/>
      <point x="417" y="0" type="line"/>
      <point x="417" y="747" type="line"/>
    </contour>
    <contour>
      <point x="266" y="145" type="line"/>
      <point x="256" y="139"/>
      <point x="234" y="133"/>
      <point x="214" y="133" type="curve"/>
      <point x="194" y="133"/>
      <point x="186" y="143"/>
      <point x="186" y="159" type="curve" smooth="yes"/>
      <point x="186" y="406" type="line" smooth="yes"/>
      <point x="186" y="441"/>
      <point x="203" y="456"/>
      <point x="233" y="456" type="curve" smooth="yes"/>
      <point x="266" y="456" type="line"/>
    </contour>
    <contour>
      <point x="480" y="747" type="line"/>
      <point x="455" y="592" type="line"/>
      <point x="503" y="592" type="line"/>
      <point x="521" y="615"/>
      <point x="561" y="678"/>
      <point x="561" y="715" type="curve" smooth="yes"/>
      <point x="561" y="735"/>
      <point x="551" y="747"/>
      <point x="526" y="747" type="curve" smooth="yes"/>
    </contour>
  </outline>
</glyph>
<glyph name="Dcroat" format="1">
  <advance width="499"/>
  <unicode hex="0110"/>
  <outline>
    <contour>
      <point x="-9" y="403" type="line"/>
      <point x="-9" y="279" type="line"/>
      <point x="261" y="279" type="line"/>
      <point x="261" y="403" type="line"/>
    </contour>
    <component base="D" xOffset="10"/>
  </outline>
</glyph>
<glyph name="Gcommaaccent" format="1">
  <advance width="468"/>
  <unicode hex="0122"/>
  <outline>
    <contour>
      <point x="35" y="526" type="curve" smooth="yes"/>
      <point x="35" y="163" type="line" smooth="yes"/>
      <point x="35" y="59"/>
      <point x="105" y="-5"/>
      <point x="258" y="-5" type="curve" smooth="yes"/>
      <point x="352" y="-5"/>
      <point x="399" y="16"/>
      <point x="438" y="37" type="curve"/>
      <point x="438" y="372" type="line"/>
      <point x="292" y="372" type="line"/>
      <point x="292" y="138" type="line"/>
      <point x="284" y="134"/>
      <point x="269" y="130"/>
      <point x="256" y="130" type="curve" smooth="yes"/>
      <point x="200" y="130"/>
      <point x="187" y="150"/>
      <point x="187" y="179" type="curve" smooth="yes"/>
      <point x="187" y="508" type="line" smooth="yes"/>
      <point x="187" y="538"/>
      <point x="213" y="560"/>
      <point x="270" y="560" type="curve" smooth="yes"/>
      <point x="322" y="560"/>
      <point x="375" y="550"/>
      <point x="409" y="537" type="curve"/>
      <point x="409" y="679" type="line"/>
      <point x="382" y="688"/>
      <point x="326" y="698"/>
      <point x="268" y="698" type="curve" smooth="yes"/>
      <point x="115" y="698"/>
      <point x="35" y="629"/>
    </contour>
    <contour>
      <point x="225" y="-61" type="line"/>
      <point x="200" y="-216" type="line"/>
      <point x="248" y="-216" type="line"/>
      <point x="266" y="-193"/>
      <point x="306" y="-130"/>
      <point x="306" y="-93" type="curve" smooth="yes"/>
      <point x="306" y="-73"/>
      <point x="296" y="-61"/>
      <point x="271" y="-61" type="curve" smooth="yes"/>
    </contour>
  </outline>
</glyph>
<glyph name="Kcommaaccent" format="1">
  <advance width="486"/>
  <unicode hex="0136"/>
  <outline>
    <contour>
      <point x="309" y="693" type="line"/>
      <point x="186" y="356" type="line"/>
      <point x="314" y="0" type="line"/>
      <point x="481" y="0" type="line"/>
      <point x="342" y="358" type="line"/>
      <point x="469" y="693" type="line"/>
    </contour>
    <contour>
      <point x="45" y="693" type="line"/>
      <point x="45" y="0" type="line"/>
      <point x="195" y="0" type="line"/>
      <point x="195" y="693" type="line"/>
    </contour>
    <contour>
      <point x="222" y="-61" type="line"/>
      <point x="197" y="-216" type="line"/>
      <point x="245" y="-216" type="line"/>
      <point x="263" y="-193"/>
      <point x="303" y="-130"/>
      <point x="303" y="-93" type="curve" smooth="yes"/>
      <point x="303" y="-73"/>
      <point x="293" y="-61"/>
      <point x="268" y="-61" type="curve" smooth="yes"/>
    </contour>
  </outline>
</glyph>
<glyph name="Ncommaaccent" format="1">
  <advance width="532"/>
  <unicode hex="0145"/>
  <outline>
    <contour>
      <point x="339" y="693" type="line"/>
      <point x="339" y="519" type="line"/>
      <point x="339" y="316"/>
      <point x="364" y="227"/>
      <point x="364" y="227" type="curve"/>
      <point x="364" y="227"/>
      <point x="345" y="305"/>
      <point x="284" y="461" type="curve"/>
      <point x="193" y="693" type="line"/>
      <point x="45" y="693" type="line"/>
      <point x="45" y="0" type="line"/>
      <point x="193" y="0" type="line"/>
      <point x="193" y="184" type="line"/>
      <point x="193" y="387"/>
      <point x="168" y="472"/>
      <point x="168" y="472" type="curve"/>
      <point x="168" y="472"/>
      <point x="189" y="394"/>
      <point x="250" y="238" type="curve"/>
      <point x="343" y="0" type="line"/>
      <point x="487" y="0" type="line"/>
      <point x="487" y="693" type="line"/>
    </contour>
    <contour>
      <point x="224" y="-61" type="line"/>
      <point x="199" y="-216" type="line"/>
      <point x="247" y="-216" type="line"/>
      <point x="265" y="-193"/>
      <point x="305" y="-130"/>
      <point x="305" y="-93" type="curve" smooth="yes"/>
      <point x="305" y="-73"/>
      <point x="295" y="-61"/>
      <point x="270" y="-61" type="curve" smooth="yes"/>
    </contour>
  </outline>
</glyph>
<glyph name="scedilla" format="1">
  <advance width="388"/>
  <unicode hex="015F"/>
  <outline>
    <contour>
      <point x="22" y="434" type="curve" smooth="yes"/>
      <point x="22" y="408" type="line" smooth="yes"/>
      <point x="22" y="342"/>
      <point x="53" y="307"/>
      <point x="93" y="280" type="curve" smooth="yes"/>
      <point x="161" y="235" type="line" smooth="yes"/>
      <point x="206" y="205"/>
      <point x="218" y="197"/>
      <point x="218" y="176" type="curve" smooth="yes"/>
      <point x="218" y="167" type="line" smooth="yes"/>
      <point x="218" y="144"/>
      <point x="204" y="129"/>
      <point x="127" y="129" type="curve" smooth="yes"/>
      <point x="85" y="129"/>
      <point x="40" y="137"/>
      <point x="20" y="143" type="curve"/>
      <point x="20" y="8" type="line"/>
      <point x="53" y="0"/>
      <point x="87" y="-5"/>
      <point x="150" y="-5" type="curve" smooth="yes"/>
      <point x="298" y="-5"/>
      <point x="368" y="52"/>
      <point x="368" y="161" type="curve" smooth="yes"/>
      <point x="368" y="186" type="line"/>
      <point x="368" y="250"/>
      <point x="335" y="286"/>
      <point x="289" y="316" type="curve" smooth="yes"/>
      <point x="208" y="370" type="line" smooth="yes"/>
      <point x="175" y="392"/>
      <point x="168" y="400"/>
      <point x="168" y="416" type="curve" smooth="yes"/>
      <point x="168" y="424" type="line" smooth="yes"/>
      <point x="168" y="448"/>
      <point x="180" y="462"/>
      <point x="239" y="462" type="curve" smooth="yes"/>
      <point x="281" y="462"/>
      <point x="334" y="452"/>
      <point x="349" y="447" type="curve"/>
      <point x="349" y="580" type="line"/>
      <point x="320" y="589"/>
      <point x="268" y="595"/>
      <point x="227" y="595" type="curve" smooth="yes"/>
      <point x="78" y="595"/>
      <point x="22" y="537"/>
    </contour>
    <contour>
      <point x="152" y="-61" type="line"/>
      <point x="127" y="-216" type="line"/>
      <point x="175" y="-216" type="line"/>
      <point x="193" y="-193"/>
      <point x="233" y="-130"/>
      <point x="233" y="-93" type="curve" smooth="yes"/>
      <point x="233" y="-73"/>
      <point x="223" y="-61"/>
      <point x="198" y="-61" type="curve" smooth="yes"/>
    </contour>
  </outline>
</glyph>
<glyph name="Tcedilla" format="1">
  <advance width="412"/>
  <unicode hex="0162"/>
  <outline>
    <contour>
      <point x="130" y="693" type="line"/>
      <point x="130" y="0" type="line"/>
      <point x="282" y="0" type="line"/>
      <point x="282" y="693" type="line"/>
    </contour>
    <contour>
      <point x="5" y="693" type="line"/>
      <point x="5" y="563" type="line"/>
      <point x="407" y="563" type="line"/>
      <point x="407" y="693" type="line"/>
    </contour>
    <contour>
      <point x="169" y="-61" type="line"/>
      <point x="144" y="-216" type="line"/>
      <point x="192" y="-216" type="line"/>
      <point x="210" y="-193"/>
      <point x="250" y="-130"/>
      <point x="250" y="-93" type="curve" smooth="yes"/>
      <point x="250" y="-73"/>
      <point x="240" y="-61"/>
      <point x="215" y="-61" type="curve" smooth="yes"/>
    </contour>
  </outline>
</glyph>
<glyph name="Scommaaccent" format="1">
  <advance width="439"/>
  <unicode hex="0218"/>
  <outline>
    <contour>
      <point x="20" y="531" type="curve" smooth="yes"/>
      <point x="20" y="468" type="line" smooth="yes"/>
      <point x="20" y="393"/>
      <point x="60" y="348"/>
      <point x="117" y="316" type="curve" smooth="yes"/>
      <point x="224" y="258" type="line"/>
      <point x="258" y="240"/>
      <point x="269" y="229"/>
      <point x="269" y="198" type="curve" smooth="yes"/>
      <point x="269" y="183" type="line" smooth="yes"/>
      <point x="269" y="155"/>
      <point x="245" y="134"/>
      <point x="182" y="134" type="curve" smooth="yes"/>
      <point x="121" y="134"/>
      <point x="64" y="148"/>
      <point x="29" y="163" type="curve"/>
      <point x="29" y="18" type="line"/>
      <point x="48" y="10"/>
      <point x="110" y="-5"/>
      <point x="184" y="-5" type="curve" smooth="yes"/>
      <point x="342" y="-5"/>
      <point x="421" y="57"/>
      <point x="421" y="163" type="curve" smooth="yes"/>
      <point x="421" y="225" type="line"/>
      <point x="421" y="292"/>
      <point x="392" y="331"/>
      <point x="339" y="360" type="curve" smooth="yes"/>
      <point x="225" y="424" type="line" smooth="yes"/>
      <point x="183" y="447"/>
      <point x="174" y="459"/>
      <point x="174" y="496" type="curve" smooth="yes"/>
      <point x="174" y="511" type="line" smooth="yes"/>
      <point x="174" y="537"/>
      <point x="184" y="559"/>
      <point x="242" y="559" type="curve" smooth="yes"/>
      <point x="303" y="559"/>
      <point x="346" y="548"/>
      <point x="381" y="533" type="curve"/>
      <point x="381" y="677" type="line"/>
      <point x="362" y="685"/>
      <point x="313" y="698"/>
      <point x="239" y="698" type="curve" smooth="yes"/>
      <point x="87" y="698"/>
      <point x="20" y="634"/>
    </contour>
    <contour>
      <point x="182" y="-61" type="line"/>
      <point x="157" y="-216" type="line"/>
      <point x="205" y="-216" type="line"/>
      <point x="223" y="-193"/>
      <point x="263" y="-130"/>
      <point x="263" y="-93" type="curve" smooth="yes"/>
      <point x="263" y="-73"/>
      <point x="253" y="-61"/>
      <point x="228" y="-61" type="curve" smooth="yes"/>
    </contour>
  </outline>
</glyph>
<glyph name="circumflex" format="1">
  <advance width="350"/>
  <unicode hex="02C6"/>
  <outline>
    <contour>
      <point x="128" y="747" type="line"/>
      <point x="215" y="632" type="line"/>
      <point x="288" y="632" type="line"/>
      <point x="228" y="747" type="line"/>
    </contour>
    <contour>
      <point x="121" y="747" type="line"/>
      <point x="61" y="632" type="line"/>
      <point x="134" y="632" type="line"/>
      <point x="221" y="747" type="line"/>
    </contour>
  </outline>
</glyph>
<glyph name="caron" format="1">
  <advance width="350"/>
  <unicode hex="02C7"/>
  <outline>
    <contour>
      <point x="215" y="747" type="line"/>
      <point x="128" y="632" type="line"/>
      <point x="228" y="632" type="line"/>
      <point x="288" y="747" type="line"/>
    </contour>
    <contour>
      <point x="61" y="747" type="line"/>
      <point x="121" y="632" type="line"/>
      <point x="221" y="632" type="line"/>
      <point x="134" y="747" type="line"/>
    </contour>
  </outline>
</glyph>
<glyph name="breve" format="1">
  <advance width="350"/>
  <unicode hex="02D8"/>
  <outline>
    <contour>
      <point x="218" y="747" type="line"/>
      <point x="218" y="719"/>
      <point x="203" y="700"/>
      <point x="175" y="700" type="curve" smooth="yes"/>
      <point x="147" y="700"/>
      <point x="132" y="719"/>
      <point x="132" y="747" type="curve"/>
      <point x="55" y="747" type="line"/>
      <point x="55" y="678"/>
      <point x="106" y="632"/>
      <point x="175" y="632" type="curve" smooth="yes"/>
      <point x="243" y="632"/>
      <point x="295" y="677"/>
      <point x="295" y="747" type="curve"/>
    </contour>
  </outline>
</glyph>
<glyph name="dotaccent" format="1">
  <advance width="350"/>
  <unicode hex="02D9"/>
  <outline>
    <contour>
      <point x="117" y="689" type="curve" smooth="yes"/>
      <point x="117" y="657"/>
      <point x="130" y="635"/>
      <point x="175" y="635" type="curve" smooth="yes"/>
      <point x="219" y="635"/>
      <point x="233" y="657"/>
      <point x="233" y="689" type="curve" smooth="yes"/>
      <point x="233" y="722"/>
      <point x="219" y="744"/>
      <point x="175" y="744" type="curve" smooth="yes"/>
      <point x="130" y="744"/>
      <point x="117" y="722"/>
    </contour>
  </outline>
</glyph>
<glyph name="ring" format="1">
  <advance width="350"/>
  <unicode hex="02DA"/>
  <outline>
    <contour>
      <point x="94" y="689" type="curve" smooth="yes"/>
      <point x="94" y="645"/>
      <point x="123" y="609"/>
      <point x="175" y="609" type="curve" smooth="yes"/>
      <point x="228" y="609"/>
      <point x="256" y="645"/>
      <point x="256" y="689" type="curve" smooth="yes"/>
      <point x="256" y="733"/>
      <point x="228" y="768"/>
      <point x="175" y="768" type="curve" smooth="yes"/>
      <point x="123" y="768"/>
      <point x="94" y="733"/>
    </contour>
    <contour>
      <point x="203" y="689" type="curve" smooth="yes"/>
      <point x="203" y="671"/>
      <point x="192" y="660"/>
      <point x="175" y="660" type="curve" smooth="yes"/>
      <point x="158" y="660"/>
      <point x="147" y="671"/>
      <point x="147" y="689" type="curve" smooth="yes"/>
      <point x="147" y="705"/>
      <point x="158" y="717"/>
      <point x="175" y="717" type="curve" smooth="yes"/>
      <point x="192" y="717"/>
      <point x="203" y="705"/>
    </contour>
  </outline>
</glyph>
<glyph name="ogonek" format="1">
  <advance width="350"/>
  <unicode hex="02DB"/>
  <outline>
    <contour>
      <point x="183" y="0" type="line"/>
      <point x="146" y="-31"/>
      <point x="117" y="-74"/>
      <point x="117" y="-120" type="curve" smooth="yes"/>
      <point x="117" y="-170"/>
      <point x="151" y="-200"/>
      <point x="212" y="-200" type="curve" smooth="yes"/>
      <point x="236" y="-200" type="line"/>
      <point x="236" y="-131" type="line"/>
      <point x="225" y="-131" type="line" smooth="yes"/>
      <point x="206" y="-131"/>
      <point x="196" y="-120"/>
      <point x="196" y="-95" type="curve" smooth="yes"/>
      <point x="196" y="-58"/>
      <point x="214" y="-23"/>
      <point x="236" y="0" type="curve"/>
    </contour>
  </outline>
</glyph>
<glyph name="dvAnusvara" format="1">
  <advance width="0"/>
  <unicode hex="0902"/>
  <outline>
    <contour>
      <point x="-42" y="671" type="move" name="_abvm.bindu"/>
    </contour>
    <contour>
      <point x="-187" y="802" type="curve" smooth="yes"/>
      <point x="-187" y="760"/>
      <point x="-171" y="727"/>
      <point x="-112" y="727" type="curve" smooth="yes"/>
      <point x="-55" y="727"/>
      <point x="-38" y="760"/>
      <point x="-38" y="802" type="curve" smooth="yes"/>
      <point x="-38" y="844"/>
      <point x="-55" y="877"/>
      <point x="-112" y="877" type="curve" smooth="yes"/>
      <point x="-171" y="877"/>
      <point x="-187" y="844"/>
    </contour>
  </outline>
</glyph>
<glyph name="dvA" format="1">
  <advance width="608"/>
  <unicode hex="0905"/>
  <outline>
    <contour>
      <point x="219" y="213" type="line"/>
      <point x="218" y="178"/>
      <point x="199" y="163"/>
      <point x="145" y="163" type="curve" smooth="yes"/>
      <point x="120" y="163"/>
      <point x="75" y="167"/>
      <point x="42" y="176" type="curve"/>
      <point x="42" y="49" type="line"/>
      <point x="65" y="41"/>
      <point x="110" y="36"/>
      <point x="146" y="36" type="curve" smooth="yes"/>
      <point x="299" y="36"/>
      <point x="355" y="102"/>
      <point x="356" y="207" type="curve"/>
      <point x="356" y="254" type="line" smooth="yes"/>
      <point x="356" y="307"/>
      <point x="341" y="349"/>
      <point x="313" y="368" type="curve"/>
      <point x="345" y="390"/>
      <point x="356" y="432"/>
      <point x="356" y="478" type="curve" smooth="yes"/>
      <point x="356" y="505" type="line" smooth="yes"/>
      <point x="356" y="610"/>
      <point x="300" y="676"/>
      <point x="147" y="676" type="curve" smooth="yes"/>
      <point x="111" y="676"/>
      <point x="79" y="672"/>
      <point x="56" y="664" type="curve"/>
      <point x="56" y="537" type="line"/>
      <point x="89" y="546"/>
      <point x="121" y="549"/>
      <point x="146" y="549" type="curve" smooth="yes"/>
      <point x="200" y="549"/>
      <point x="219" y="534"/>
      <point x="219" y="499" type="curve" smooth="yes"/>
      <point x="219" y="478" type="line" smooth="yes"/>
      <point x="219" y="446"/>
      <point x="204" y="432"/>
      <point x="166" y="432" type="curve" smooth="yes"/>
      <point x="107" y="432" type="line"/>
      <point x="107" y="303" type="line"/>
      <point x="166" y="303" type="line" smooth="yes"/>
      <point x="204" y="303"/>
      <point x="219" y="287"/>
      <point x="219" y="254" type="curve" smooth="yes"/>
    </contour>
    <contour>
      <point x="426" y="671" type="line"/>
      <point x="426" y="0" type="line"/>
      <point x="566" y="0" type="line"/>
      <point x="566" y="554" type="line"/>
      <point x="648" y="554" type="line"/>
      <point x="648" y="671" type="line"/>
    </contour>
    <contour>
      <point x="322" y="213" type="line"/>
      <point x="474" y="213" type="line"/>
      <point x="474" y="333" type="line"/>
      <point x="322" y="333" type="line"/>
    </contour>
  </outline>
</glyph>
<glyph name="dvII" format="1">
  <advance width="419"/>
  <unicode hex="0908"/>
  <outline>
    <contour>
      <point x="370" y="671" type="line"/>
      <point x="357" y="697"/>
      <point x="350" y="723"/>
      <point x="350" y="742" type="curve" smooth="yes"/>
      <point x="350" y="774"/>
      <point x="369" y="779"/>
      <point x="396" y="779" type="curve" smooth="yes"/>
      <point x="411" y="779"/>
      <point x="426" y="776"/>
      <point x="426" y="776" type="curve"/>
      <point x="426" y="900" type="line"/>
      <point x="426" y="900"/>
      <point x="404" y="906"/>
      <point x="346" y="906" type="curve" smooth="yes"/>
      <point x="280" y="906"/>
      <point x="209" y="881"/>
      <point x="209" y="774" type="curve" smooth="yes"/>
      <point x="209" y="733"/>
      <point x="223" y="697"/>
      <point x="234" y="671" type="curve"/>
    </contour>
    <contour>
      <point x="172" y="169" type="line"/>
      <point x="34" y="169" type="line"/>
      <point x="34" y="-82" type="line"/>
      <point x="172" y="-82" type="line"/>
      <point x="172" y="1" type="line"/>
      <point x="172" y="1"/>
      <point x="202" y="-6"/>
      <point x="236" y="-6" type="curve" smooth="yes"/>
      <point x="359" y="-6"/>
      <point x="400" y="49"/>
      <point x="400" y="152" type="curve" smooth="yes"/>
      <point x="400" y="179" type="line" smooth="yes"/>
      <point x="400" y="282"/>
      <point x="344" y="328"/>
      <point x="221" y="328" type="curve" smooth="yes"/>
      <point x="195" y="328" type="line" smooth="yes"/>
      <point x="173" y="328"/>
      <point x="166" y="337"/>
      <point x="166" y="355" type="curve" smooth="yes"/>
      <point x="166" y="357" type="line" smooth="yes"/>
      <point x="166" y="376"/>
      <point x="172" y="384"/>
      <point x="195" y="384" type="curve" smooth="yes"/>
      <point x="374" y="384" type="line"/>
      <point x="374" y="554" type="line"/>
      <point x="458" y="554" type="line"/>
      <point x="458" y="671" type="line"/>
      <point x="-40" y="671" type="line"/>
      <point x="-40" y="554" type="line"/>
      <point x="234" y="554" type="line"/>
      <point x="234" y="504" type="line"/>
      <point x="195" y="504" type="line" smooth="yes"/>
      <point x="82" y="504"/>
      <point x="26" y="465"/>
      <point x="26" y="362" type="curve" smooth="yes"/>
      <point x="26" y="352" type="line" smooth="yes"/>
      <point x="26" y="249"/>
      <point x="87" y="211"/>
      <point x="195" y="211" type="curve" smooth="yes"/>
      <point x="221" y="211" type="line" smooth="yes"/>
      <point x="254" y="211"/>
      <point x="260" y="194"/>
      <point x="260" y="174" type="curve" smooth="yes"/>
      <point x="260" y="157" type="line" smooth="yes"/>
      <point x="260" y="132"/>
      <point x="251" y="118"/>
      <point x="216" y="118" type="curve" smooth="yes"/>
      <point x="195" y="118"/>
      <point x="172" y="125"/>
      <point x="172" y="125" type="curve"/>
    </contour>
  </outline>
</glyph>
<glyph name="dvU" format="1">
  <advance width="405"/>
  <unicode hex="0909"/>
  <outline>
    <contour>
      <point x="360" y="671" type="move" name="abvm.bindu"/>
    </contour>
    <contour>
      <point x="365" y="228" type="line"/>
      <point x="365" y="279"/>
      <point x="351" y="311"/>
      <point x="324" y="330" type="curve"/>
      <point x="351" y="348"/>
      <point x="365" y="378"/>
      <point x="365" y="430" type="curve" smooth="yes"/>
      <point x="365" y="507" type="line" smooth="yes"/>
      <point x="365" y="537"/>
      <point x="354" y="554"/>
      <point x="354" y="554" type="curve"/>
      <point x="444" y="554" type="line"/>
      <point x="444" y="671" type="line"/>
      <point x="-40" y="671" type="line"/>
      <point x="-40" y="554" type="line"/>
      <point x="214" y="554" type="line"/>
      <point x="214" y="554"/>
      <point x="225" y="541"/>
      <point x="225" y="507" type="curve" smooth="yes"/>
      <point x="225" y="435" type="line" smooth="yes"/>
      <point x="225" y="412"/>
      <point x="219" y="396"/>
      <point x="186" y="396" type="curve" smooth="yes"/>
      <point x="115" y="396" type="line"/>
      <point x="115" y="267" type="line"/>
      <point x="176" y="267" type="line" smooth="yes"/>
      <point x="213" y="267"/>
      <point x="225" y="246"/>
      <point x="225" y="218" type="curve" smooth="yes"/>
      <point x="225" y="171" type="line" smooth="yes"/>
      <point x="225" y="133"/>
      <point x="196" y="122"/>
      <point x="158" y="122" type="curve" smooth="yes"/>
      <point x="116" y="122"/>
      <point x="76" y="128"/>
      <point x="39" y="135" type="curve"/>
      <point x="39" y="8" type="line"/>
      <point x="85" y="0"/>
      <point x="120" y="-5"/>
      <point x="160" y="-5" type="curve" smooth="yes"/>
      <point x="296" y="-5"/>
      <point x="365" y="52"/>
      <point x="365" y="168" type="curve"/>
    </contour>
  </outline>
</glyph>
<glyph name="dvvR" format="1">
  <advance width="751"/>
  <unicode hex="090B"/>
  <outline>
    <contour>
      <point x="486" y="106" type="curve" smooth="yes"/>
      <point x="486" y="-8"/>
      <point x="559" y="-54"/>
      <point x="670" y="-54" type="curve" smooth="yes"/>
      <point x="696" y="-54"/>
      <point x="719" y="-53"/>
      <point x="745" y="-49" type="curve"/>
      <point x="745" y="67" type="line"/>
      <point x="723" y="63"/>
      <point x="709" y="62"/>
      <point x="688" y="62" type="curve" smooth="yes"/>
      <point x="645" y="62"/>
      <point x="622" y="77"/>
      <point x="622" y="113" type="curve" smooth="yes"/>
      <point x="622" y="139"/>
      <point x="633" y="163"/>
      <point x="674" y="163" type="curve" smooth="yes"/>
      <point x="721" y="163" type="line"/>
      <point x="721" y="491" type="line"/>
      <point x="585" y="491" type="line"/>
      <point x="585" y="478" type="line" smooth="yes"/>
      <point x="585" y="445"/>
      <point x="567" y="431"/>
      <point x="530" y="431" type="curve" smooth="yes"/>
      <point x="496" y="431"/>
      <point x="465" y="435"/>
      <point x="433" y="441" type="curve"/>
      <point x="433" y="312" type="line"/>
      <point x="458" y="308"/>
      <point x="497" y="302"/>
      <point x="525" y="302" type="curve" smooth="yes"/>
      <point x="552" y="302"/>
      <point x="572" y="304"/>
      <point x="592" y="314" type="curve"/>
      <point x="592" y="249" type="line"/>
      <point x="526" y="242"/>
      <point x="486" y="189"/>
    </contour>
    <contour>
      <point x="325" y="173" type="curve"/>
      <point x="327" y="173" type="line"/>
      <point x="321" y="137"/>
      <point x="317" y="77"/>
      <point x="317" y="26" type="curve"/>
      <point x="317" y="0" type="line"/>
      <point x="448" y="0" type="line"/>
      <point x="448" y="554" type="line"/>
      <point x="791" y="554" type="line"/>
      <point x="791" y="671" type="line"/>
      <point x="-40" y="671" type="line"/>
      <point x="-40" y="554" type="line"/>
      <point x="308" y="554" type="line"/>
      <point x="308" y="486" type="line"/>
      <point x="308" y="486"/>
      <point x="274" y="496"/>
      <point x="218" y="496" type="curve" smooth="yes"/>
      <point x="76" y="496"/>
      <point x="25" y="427"/>
      <point x="25" y="315" type="curve" smooth="yes"/>
      <point x="25" y="242" type="line"/>
      <point x="159" y="242" type="line"/>
      <point x="159" y="305" type="line" smooth="yes"/>
      <point x="159" y="346"/>
      <point x="176" y="367"/>
      <point x="237" y="367" type="curve" smooth="yes"/>
      <point x="273" y="367"/>
      <point x="308" y="357"/>
      <point x="308" y="357" type="curve"/>
      <point x="308" y="309" type="line"/>
      <point x="25" y="4" type="line"/>
      <point x="26" y="0" type="line"/>
      <point x="199" y="0" type="line"/>
      <point x="253" y="64" type="line" smooth="yes"/>
      <point x="276" y="90"/>
      <point x="308" y="136"/>
    </contour>
  </outline>
</glyph>
<glyph name="dvE" format="1">
  <advance width="441"/>
  <unicode hex="090F"/>
  <outline>
    <contour>
      <point x="380" y="142" type="line"/>
      <point x="342" y="131"/>
      <point x="307" y="124"/>
      <point x="256" y="124" type="curve" smooth="yes"/>
      <point x="197" y="124"/>
      <point x="181" y="146"/>
      <point x="181" y="189" type="curve" smooth="yes"/>
      <point x="181" y="554" type="line"/>
      <point x="267" y="554" type="line"/>
      <point x="267" y="413" type="line" smooth="yes"/>
      <point x="267" y="383"/>
      <point x="262" y="377"/>
      <point x="237" y="377" type="curve" smooth="yes"/>
      <point x="228" y="377" type="line"/>
      <point x="228" y="248" type="line"/>
      <point x="235" y="247"/>
      <point x="243" y="246"/>
      <point x="248" y="246" type="curve" smooth="yes"/>
      <point x="371" y="246"/>
      <point x="407" y="301"/>
      <point x="407" y="404" type="curve" smooth="yes"/>
      <point x="407" y="554" type="line"/>
      <point x="481" y="554" type="line"/>
      <point x="481" y="671" type="line"/>
      <point x="-40" y="671" type="line"/>
      <point x="-40" y="554" type="line"/>
      <point x="41" y="554" type="line"/>
      <point x="41" y="184" type="line" smooth="yes"/>
      <point x="41" y="57"/>
      <point x="102" y="-5"/>
      <point x="251" y="-5" type="curve" smooth="yes"/>
      <point x="308" y="-5"/>
      <point x="350" y="5"/>
      <point x="380" y="15" type="curve"/>
    </contour>
  </outline>
</glyph>
<glyph name="dvOcandra" format="1">
  <advance width="833"/>
  <unicode hex="0911"/>
  <outline>
    <contour>
      <point x="651" y="554" type="line"/>
      <point x="651" y="0" type="line"/>
      <point x="791" y="0" type="line"/>
      <point x="791" y="554" type="line"/>
      <point x="873" y="554" type="line"/>
      <point x="873" y="671" type="line"/>
      <point x="569" y="671" type="line"/>
      <point x="569" y="554" type="line"/>
    </contour>
    <contour>
      <point x="686" y="901" type="line"/>
      <point x="686" y="865"/>
      <point x="664" y="850"/>
      <point x="616" y="850" type="curve" smooth="yes"/>
      <point x="566" y="850"/>
      <point x="546" y="865"/>
      <point x="546" y="901" type="curve"/>
      <point x="407" y="901" type="line"/>
      <point x="407" y="896" type="line"/>
      <point x="407" y="783"/>
      <point x="480" y="729"/>
      <point x="616" y="729" type="curve" smooth="yes"/>
      <point x="754" y="729"/>
      <point x="826" y="783"/>
      <point x="826" y="896" type="curve"/>
      <point x="826" y="901" type="line"/>
    </contour>
    <component base="dvA"/>
  </outline>
</glyph>
<glyph name="dvKA" format="1">
  <advance width="632"/>
  <unicode hex="0915"/>
  <outline>
    <contour>
      <point x="383" y="671" type="move" name="abvm.bindu"/>
    </contour>
    <contour>
      <point x="383" y="0" type="move" name="blwm.virama"/>
    </contour>
    <contour>
      <point x="383" y="671" type="move" name="abvm.e"/>
    </contour>
    <contour>
      <point x="383" y="0" type="move" name="blwm.u"/>
    </contour>
    <contour>
      <point x="247" y="554" type="line"/>
      <point x="-40" y="554" type="line"/>
      <point x="-40" y="671" type="line"/>
      <point x="671" y="671" type="line"/>
      <point x="671" y="554" type="line"/>
      <point x="383" y="554" type="line"/>
      <point x="383" y="500" type="line"/>
      <point x="383" y="500"/>
      <point x="410" y="505"/>
      <point x="444" y="505" type="curve" smooth="yes"/>
      <point x="554" y="505"/>
      <point x="600" y="451"/>
      <point x="600" y="348" type="curve" smooth="yes"/>
      <point x="600" y="215" type="line" smooth="yes"/>
      <point x="600" y="112"/>
      <point x="561" y="59"/>
      <point x="448" y="59" type="curve" smooth="yes"/>
      <point x="438" y="59"/>
      <point x="427" y="61"/>
      <point x="427" y="61" type="curve"/>
      <point x="427" y="192" type="line"/>
      <point x="427" y="192"/>
      <point x="433" y="191"/>
      <point x="439" y="191" type="curve" smooth="yes"/>
      <point x="463" y="192"/>
      <point x="467" y="200"/>
      <point x="467" y="229" type="curve" smooth="yes"/>
      <point x="467" y="343" type="line" smooth="yes"/>
      <point x="467" y="368"/>
      <point x="460" y="385"/>
      <point x="425" y="385" type="curve" smooth="yes"/>
      <point x="407" y="385"/>
      <point x="383" y="380"/>
      <point x="383" y="380" type="curve"/>
      <point x="383" y="0" type="line"/>
      <point x="246" y="0" type="line"/>
      <point x="246" y="59" type="line"/>
      <point x="246" y="59"/>
      <point x="218" y="51"/>
      <point x="186" y="51" type="curve" smooth="yes"/>
      <point x="76" y="51"/>
      <point x="30" y="99"/>
      <point x="30" y="202" type="curve" smooth="yes"/>
      <point x="30" y="348" type="line" smooth="yes"/>
      <point x="30" y="451"/>
      <point x="76" y="505"/>
      <point x="186" y="505" type="curve" smooth="yes"/>
      <point x="202" y="505"/>
      <point x="215" y="502"/>
      <point x="215" y="502" type="curve"/>
      <point x="215" y="384" type="line"/>
      <point x="215" y="384"/>
      <point x="210" y="385"/>
      <point x="205" y="385" type="curve" smooth="yes"/>
      <point x="170" y="385"/>
      <point x="163" y="368"/>
      <point x="163" y="343" type="curve" smooth="yes"/>
      <point x="163" y="208" type="line" smooth="yes"/>
      <point x="163" y="183"/>
      <point x="170" y="166"/>
      <point x="205" y="166" type="curve" smooth="yes"/>
      <point x="230" y="166"/>
      <point x="247" y="174"/>
      <point x="247" y="174" type="curve"/>
    </contour>
  </outline>
</glyph>
<glyph name="dvKHA" format="1">
  <advance width="793"/>
  <unicode hex="0916"/>
  <outline>
    <contour>
      <point x="166" y="451" type="line"/>
      <point x="33" y="451" type="line"/>
      <point x="33" y="193" type="line" smooth="yes"/>
      <point x="33" y="82"/>
      <point x="93" y="-5"/>
      <point x="249" y="-5" type="curve" smooth="yes"/>
      <point x="289" y="-5"/>
      <point x="344" y="1"/>
      <point x="381" y="14" type="curve"/>
      <point x="381" y="144" type="line"/>
      <point x="345" y="129"/>
      <point x="305" y="121"/>
      <point x="262" y="121" type="curve" smooth="yes"/>
      <point x="187" y="121"/>
      <point x="166" y="151"/>
      <point x="166" y="195" type="curve" smooth="yes"/>
    </contour>
    <contour>
      <point x="140" y="235" type="line"/>
      <point x="159" y="231"/>
      <point x="189" y="226"/>
      <point x="211" y="226" type="curve"/>
      <point x="324" y="226"/>
      <point x="369" y="283"/>
      <point x="369" y="386" type="curve" smooth="yes"/>
      <point x="369" y="507" type="line" smooth="yes"/>
      <point x="369" y="538"/>
      <point x="363" y="554"/>
      <point x="363" y="554" type="curve"/>
      <point x="448" y="554" type="line"/>
      <point x="448" y="671" type="line"/>
      <point x="-40" y="671" type="line"/>
      <point x="-40" y="554" type="line"/>
      <point x="230" y="554" type="line"/>
      <point x="230" y="554"/>
      <point x="240" y="541"/>
      <point x="240" y="507" type="curve" smooth="yes"/>
      <point x="240" y="388" type="line"/>
      <point x="240" y="365"/>
      <point x="233" y="349"/>
      <point x="200" y="349" type="curve"/>
      <point x="179" y="349"/>
      <point x="166" y="351"/>
      <point x="140" y="355" type="curve"/>
    </contour>
    <contour>
      <point x="402" y="334" type="curve"/>
      <point x="402" y="256" type="line"/>
      <point x="402" y="153"/>
      <point x="438" y="99"/>
      <point x="561" y="99" type="curve"/>
      <point x="595" y="99"/>
      <point x="613" y="105"/>
      <point x="613" y="105" type="curve"/>
      <point x="613" y="0" type="line"/>
      <point x="749" y="0" type="line"/>
      <point x="749" y="554" type="line"/>
      <point x="832" y="554" type="line"/>
      <point x="832" y="671" type="line"/>
      <point x="395" y="671" type="line"/>
      <point x="395" y="554" type="line"/>
      <point x="613" y="554" type="line"/>
      <point x="613" y="491" type="line"/>
      <point x="613" y="491"/>
      <point x="587" y="496"/>
      <point x="554" y="496" type="curve"/>
      <point x="431" y="496"/>
      <point x="402" y="437"/>
    </contour>
    <contour>
      <point x="613" y="221" type="line"/>
      <point x="613" y="221"/>
      <point x="598" y="216"/>
      <point x="573" y="216" type="curve"/>
      <point x="538" y="216"/>
      <point x="527" y="231"/>
      <point x="527" y="256" type="curve" smooth="yes"/>
      <point x="527" y="335" type="line" smooth="yes"/>
      <point x="527" y="359"/>
      <point x="538" y="375"/>
      <point x="573" y="375" type="curve" smooth="yes"/>
      <point x="596" y="375"/>
      <point x="613" y="370"/>
      <point x="613" y="370" type="curve"/>
    </contour>
  </outline>
</glyph>
<glyph name="dvGA" format="1">
  <advance width="494"/>
  <unicode hex="0917"/>
  <outline>
    <contour>
      <point x="269" y="554" type="line"/>
      <point x="312" y="554" type="line"/>
      <point x="312" y="0" type="line"/>
      <point x="452" y="0" type="line"/>
      <point x="452" y="554" type="line"/>
      <point x="533" y="554" type="line"/>
      <point x="533" y="671" type="line"/>
      <point x="269" y="671" type="line"/>
    </contour>
    <contour>
      <point x="234" y="554" type="line"/>
      <point x="269" y="554" type="line"/>
      <point x="269" y="671" type="line"/>
      <point x="-40" y="671" type="line"/>
      <point x="-40" y="554" type="line"/>
      <point x="94" y="554" type="line"/>
      <point x="94" y="347" type="line" smooth="yes"/>
      <point x="94" y="316"/>
      <point x="74" y="304"/>
      <point x="44" y="304" type="curve" smooth="yes"/>
      <point x="28" y="304"/>
      <point x="10" y="306"/>
      <point x="10" y="306" type="curve"/>
      <point x="10" y="171" type="line"/>
      <point x="10" y="171"/>
      <point x="46" y="168"/>
      <point x="65" y="168" type="curve" smooth="yes"/>
      <point x="167" y="168"/>
      <point x="234" y="220"/>
      <point x="234" y="335" type="curve"/>
    </contour>
  </outline>
</glyph>
<glyph name="dvGHA" format="1">
  <advance width="505"/>
  <unicode hex="0918"/>
  <outline>
    <contour>
      <point x="544" y="671" type="line"/>
      <point x="-40" y="671" type="line"/>
      <point x="-40" y="554" type="line"/>
      <point x="47" y="554" type="line"/>
      <point x="47" y="554"/>
      <point x="41" y="538"/>
      <point x="41" y="507" type="curve"/>
      <point x="41" y="465" type="line" smooth="yes"/>
      <point x="41" y="419"/>
      <point x="54" y="389"/>
      <point x="79" y="370" type="curve"/>
      <point x="50" y="353"/>
      <point x="35" y="322"/>
      <point x="35" y="268" type="curve" smooth="yes"/>
      <point x="35" y="217" type="line" smooth="yes"/>
      <point x="35" y="125"/>
      <point x="96" y="57"/>
      <point x="227" y="57" type="curve"/>
      <point x="264" y="57"/>
      <point x="291" y="60"/>
      <point x="323" y="67" type="curve"/>
      <point x="323" y="0" type="line"/>
      <point x="463" y="0" type="line"/>
      <point x="463" y="554" type="line"/>
      <point x="544" y="554" type="line"/>
    </contour>
    <contour>
      <point x="323" y="554" type="line"/>
      <point x="323" y="192" type="line"/>
      <point x="296" y="184"/>
      <point x="272" y="182"/>
      <point x="247" y="182" type="curve"/>
      <point x="202" y="182"/>
      <point x="175" y="194"/>
      <point x="175" y="235" type="curve" smooth="yes"/>
      <point x="175" y="263" type="line" smooth="yes"/>
      <point x="175" y="286"/>
      <point x="181" y="302"/>
      <point x="214" y="302" type="curve"/>
      <point x="264" y="302" type="line"/>
      <point x="264" y="431" type="line"/>
      <point x="220" y="431" type="line" smooth="yes"/>
      <point x="187" y="431"/>
      <point x="181" y="447"/>
      <point x="181" y="470" type="curve" smooth="yes"/>
      <point x="181" y="507" type="line"/>
      <point x="181" y="541"/>
      <point x="191" y="554"/>
      <point x="191" y="554" type="curve"/>
    </contour>
  </outline>
</glyph>
<glyph name="dvCHA" format="1">
  <advance width="555"/>
  <unicode hex="091B"/>
  <outline>
    <contour>
      <point x="461" y="671" type="move" name="abvm.bindu"/>
    </contour>
    <contour>
      <point x="340" y="-3" type="move" name="blwm.virama"/>
    </contour>
    <contour>
      <point x="461" y="671" type="move" name="abvm.e"/>
    </contour>
    <contour>
      <point x="349" y="-56" type="move" name="blwm.u"/>
    </contour>
    <contour>
      <point x="40" y="368" type="line"/>
      <point x="40" y="321"/>
      <point x="53" y="291"/>
      <point x="79" y="274" type="curve"/>
      <point x="50" y="256"/>
      <point x="35" y="224"/>
      <point x="35" y="183" type="curve" smooth="yes"/>
      <point x="35" y="160" type="line" smooth="yes"/>
      <point x="35" y="47"/>
      <point x="102" y="-3"/>
      <point x="277" y="-3" type="curve" smooth="yes"/>
      <point x="458" y="-3"/>
      <point x="515" y="52"/>
      <point x="515" y="175" type="curve" smooth="yes"/>
      <point x="515" y="347" type="line" smooth="yes"/>
      <point x="515" y="414"/>
      <point x="501" y="458"/>
      <point x="461" y="479" type="curve"/>
      <point x="461" y="554" type="line"/>
      <point x="594" y="554" type="line"/>
      <point x="594" y="671" type="line"/>
      <point x="-40" y="671" type="line"/>
      <point x="-40" y="554" type="line"/>
      <point x="51" y="554" type="line"/>
      <point x="51" y="554"/>
      <point x="40" y="537"/>
      <point x="40" y="507" type="curve" smooth="yes"/>
    </contour>
    <contour>
      <point x="180" y="507" type="line"/>
      <point x="180" y="541"/>
      <point x="191" y="554"/>
      <point x="191" y="554" type="curve"/>
      <point x="331" y="554" type="line"/>
      <point x="331" y="501" type="line"/>
      <point x="293" y="501"/>
      <point x="267" y="491"/>
      <point x="267" y="491" type="curve"/>
      <point x="267" y="377" type="line"/>
      <point x="267" y="377"/>
      <point x="286" y="386"/>
      <point x="320" y="386" type="curve" smooth="yes"/>
      <point x="359" y="386"/>
      <point x="379" y="370"/>
      <point x="379" y="322" type="curve" smooth="yes"/>
      <point x="379" y="182" type="line" smooth="yes"/>
      <point x="379" y="142"/>
      <point x="366" y="122"/>
      <point x="277" y="122" type="curve" smooth="yes"/>
      <point x="188" y="122"/>
      <point x="176" y="131"/>
      <point x="176" y="168" type="curve" smooth="yes"/>
      <point x="176" y="171" type="line" smooth="yes"/>
      <point x="176" y="208"/>
      <point x="191" y="213"/>
      <point x="224" y="213" type="curve" smooth="yes"/>
      <point x="296" y="213" type="line"/>
      <point x="296" y="335" type="line"/>
      <point x="219" y="335" type="line" smooth="yes"/>
      <point x="186" y="335"/>
      <point x="180" y="351"/>
      <point x="180" y="374" type="curve" smooth="yes"/>
    </contour>
  </outline>
</glyph>
<glyph name="dvJA" format="1">
  <advance width="594"/>
  <unicode hex="091C"/>
  <outline>
    <contour>
      <point x="340" y="324" type="line"/>
      <point x="340" y="354"/>
      <point x="331" y="371"/>
      <point x="331" y="371" type="curve"/>
      <point x="412" y="371" type="line"/>
      <point x="412" y="0" type="line"/>
      <point x="552" y="0" type="line"/>
      <point x="552" y="554" type="line"/>
      <point x="633" y="554" type="line"/>
      <point x="633" y="671" type="line"/>
      <point x="-40" y="671" type="line"/>
      <point x="-40" y="554" type="line"/>
      <point x="412" y="554" type="line"/>
      <point x="412" y="491" type="line"/>
      <point x="90" y="491" type="line"/>
      <point x="90" y="362" type="line"/>
      <point x="189" y="362" type="line"/>
      <point x="189" y="362"/>
      <point x="200" y="349"/>
      <point x="200" y="315" type="curve" smooth="yes"/>
      <point x="200" y="227" type="line" smooth="yes"/>
      <point x="200" y="188"/>
      <point x="174" y="175"/>
      <point x="135" y="175" type="curve" smooth="yes"/>
      <point x="104" y="175"/>
      <point x="82" y="178"/>
      <point x="53" y="184" type="curve"/>
      <point x="53" y="58" type="line"/>
      <point x="82" y="51"/>
      <point x="105" y="48"/>
      <point x="141" y="48" type="curve" smooth="yes"/>
      <point x="266" y="48"/>
      <point x="340" y="103"/>
      <point x="340" y="222" type="curve"/>
    </contour>
  </outline>
</glyph>
<glyph name="dvJHA" format="1">
  <advance width="648"/>
  <unicode hex="091D"/>
  <outline>
    <contour>
      <point x="220" y="211" type="line"/>
      <point x="255" y="211"/>
      <point x="264" y="196"/>
      <point x="264" y="170" type="curve" smooth="yes"/>
      <point x="264" y="155" type="line" smooth="yes"/>
      <point x="264" y="130"/>
      <point x="255" y="116"/>
      <point x="220" y="116" type="curve"/>
      <point x="197" y="116"/>
      <point x="176" y="120"/>
      <point x="176" y="120" type="curve"/>
      <point x="176" y="169" type="line"/>
      <point x="38" y="169" type="line"/>
      <point x="38" y="-81" type="line"/>
      <point x="176" y="-81" type="line"/>
      <point x="176" y="1" type="line"/>
      <point x="176" y="1"/>
      <point x="209" y="-5"/>
      <point x="246" y="-5" type="curve"/>
      <point x="341" y="-5"/>
      <point x="401" y="29"/>
      <point x="401" y="144" type="curve" smooth="yes"/>
      <point x="401" y="169" type="line" smooth="yes"/>
      <point x="401" y="188"/>
      <point x="396" y="208"/>
      <point x="388" y="220" type="curve"/>
      <point x="466" y="220" type="line"/>
      <point x="466" y="0" type="line"/>
      <point x="606" y="0" type="line"/>
      <point x="606" y="554" type="line"/>
      <point x="687" y="554" type="line"/>
      <point x="687" y="671" type="line"/>
      <point x="-40" y="671" type="line"/>
      <point x="-40" y="554" type="line"/>
      <point x="248" y="554" type="line"/>
      <point x="248" y="504" type="line"/>
      <point x="209" y="504" type="line" smooth="yes"/>
      <point x="96" y="504"/>
      <point x="40" y="465"/>
      <point x="40" y="362" type="curve" smooth="yes"/>
      <point x="40" y="352" type="line" smooth="yes"/>
      <point x="40" y="249"/>
      <point x="101" y="211"/>
      <point x="209" y="211" type="curve" smooth="yes"/>
    </contour>
    <contour>
      <point x="209" y="328" type="line"/>
      <point x="186" y="328"/>
      <point x="180" y="337"/>
      <point x="180" y="356" type="curve" smooth="yes"/>
      <point x="180" y="358" type="line" smooth="yes"/>
      <point x="180" y="377"/>
      <point x="187" y="384"/>
      <point x="209" y="384" type="curve" smooth="yes"/>
      <point x="388" y="384" type="line"/>
      <point x="388" y="554" type="line"/>
      <point x="466" y="554" type="line"/>
      <point x="466" y="328" type="line"/>
    </contour>
  </outline>
</glyph>
<glyph name="dvTTA" format="1">
  <advance width="418"/>
  <unicode hex="091F"/>
  <outline>
    <contour>
      <point x="367" y="671" type="move" name="abvm.bindu"/>
    </contour>
    <contour>
      <point x="278" y="-5" type="move" name="blwm.virama"/>
    </contour>
    <contour>
      <point x="367" y="671" type="move" name="abvm.e"/>
    </contour>
    <contour>
      <point x="294" y="-56" type="move" name="blwm.u"/>
    </contour>
    <contour>
      <point x="175" y="304" type="line"/>
      <point x="175" y="342"/>
      <point x="198" y="364"/>
      <point x="238" y="364" type="curve" smooth="yes"/>
      <point x="367" y="364" type="line"/>
      <point x="367" y="554" type="line"/>
      <point x="457" y="554" type="line"/>
      <point x="457" y="671" type="line"/>
      <point x="-40" y="671" type="line"/>
      <point x="-40" y="554" type="line"/>
      <point x="227" y="554" type="line"/>
      <point x="227" y="491" type="line"/>
      <point x="221" y="491" type="line" smooth="yes"/>
      <point x="96" y="491"/>
      <point x="35" y="428"/>
      <point x="35" y="315" type="curve" smooth="yes"/>
      <point x="35" y="178" type="line" smooth="yes"/>
      <point x="35" y="57"/>
      <point x="110" y="-5"/>
      <point x="250" y="-5" type="curve" smooth="yes"/>
      <point x="305" y="-5"/>
      <point x="344" y="1"/>
      <point x="381" y="8" type="curve"/>
      <point x="381" y="133" type="line"/>
      <point x="344" y="127"/>
      <point x="310" y="122"/>
      <point x="260" y="122" type="curve" smooth="yes"/>
      <point x="204" y="122"/>
      <point x="175" y="134"/>
      <point x="175" y="181" type="curve"/>
    </contour>
  </outline>
</glyph>
<glyph name="dvDDHA" format="1">
  <advance width="435"/>
  <unicode hex="0922"/>
  <outline>
    <contour>
      <point x="383" y="671" type="move" name="abvm.bindu"/>
    </contour>
    <contour>
      <point x="289" y="-5" type="move" name="blwm.virama"/>
    </contour>
    <contour>
      <point x="383" y="671" type="move" name="abvm.e"/>
    </contour>
    <contour>
      <point x="285" y="-56" type="move" name="blwm.u"/>
    </contour>
    <contour>
      <point x="209" y="499" type="line"/>
      <point x="86" y="499"/>
      <point x="34" y="453"/>
      <point x="34" y="340" type="curve" smooth="yes"/>
      <point x="34" y="167" type="line" smooth="yes"/>
      <point x="34" y="54"/>
      <point x="92" y="-5"/>
      <point x="222" y="-5" type="curve" smooth="yes"/>
      <point x="352" y="-5"/>
      <point x="406" y="49"/>
      <point x="406" y="162" type="curve" smooth="yes"/>
      <point x="406" y="177" type="line" smooth="yes"/>
      <point x="406" y="290"/>
      <point x="354" y="329"/>
      <point x="256" y="329" type="curve"/>
      <point x="230" y="329"/>
      <point x="210" y="326"/>
      <point x="210" y="326" type="curve"/>
      <point x="210" y="203" type="line"/>
      <point x="210" y="203"/>
      <point x="219" y="206"/>
      <point x="235" y="206" type="curve"/>
      <point x="258" y="206"/>
      <point x="272" y="196"/>
      <point x="272" y="173" type="curve"/>
      <point x="272" y="170" type="line" smooth="yes"/>
      <point x="272" y="139"/>
      <point x="264" y="123"/>
      <point x="222" y="123" type="curve" smooth="yes"/>
      <point x="180" y="123"/>
      <point x="172" y="141"/>
      <point x="172" y="172" type="curve" smooth="yes"/>
      <point x="172" y="335" type="line" smooth="yes"/>
      <point x="172" y="358"/>
      <point x="176" y="372"/>
      <point x="209" y="372" type="curve" smooth="yes"/>
      <point x="383" y="372" type="line"/>
      <point x="383" y="554" type="line"/>
      <point x="474" y="554" type="line"/>
      <point x="474" y="671" type="line"/>
      <point x="-40" y="671" type="line"/>
      <point x="-40" y="554" type="line"/>
      <point x="245" y="554" type="line"/>
      <point x="245" y="499" type="line"/>
    </contour>
  </outline>
</glyph>
<glyph name="dvNNA" format="1">
  <advance width="651"/>
  <unicode hex="0923"/>
  <outline>
    <contour>
      <point x="391" y="266" type="curve" smooth="yes"/>
      <point x="391" y="554" type="line"/>
      <point x="469" y="554" type="line"/>
      <point x="469" y="0" type="line"/>
      <point x="609" y="0" type="line"/>
      <point x="609" y="554" type="line"/>
      <point x="691" y="554" type="line"/>
      <point x="691" y="671" type="line"/>
      <point x="-40" y="671" type="line"/>
      <point x="-40" y="554" type="line"/>
      <point x="35" y="554" type="line"/>
      <point x="35" y="266" type="line" smooth="yes"/>
      <point x="35" y="163"/>
      <point x="90" y="103"/>
      <point x="213" y="103" type="curve" smooth="yes"/>
      <point x="336" y="103"/>
      <point x="391" y="163"/>
    </contour>
    <contour>
      <point x="251" y="554" type="line"/>
      <point x="251" y="267" type="line" smooth="yes"/>
      <point x="251" y="244"/>
      <point x="246" y="228"/>
      <point x="213" y="228" type="curve" smooth="yes"/>
      <point x="180" y="228"/>
      <point x="175" y="244"/>
      <point x="175" y="267" type="curve" smooth="yes"/>
      <point x="175" y="554" type="line"/>
    </contour>
  </outline>
</glyph>
<glyph name="dvTA" format="1">
  <advance width="463"/>
  <unicode hex="0924"/>
  <outline>
    <contour>
      <point x="35" y="323" type="curve"/>
      <point x="35" y="154" type="line" smooth="yes"/>
      <point x="35" y="51"/>
      <point x="70" y="-2"/>
      <point x="194" y="-2" type="curve"/>
      <point x="224" y="-2" type="line"/>
      <point x="224" y="130" type="line"/>
      <point x="191" y="130"/>
      <point x="175" y="135"/>
      <point x="175" y="168" type="curve" smooth="yes"/>
      <point x="175" y="318" type="line" smooth="yes"/>
      <point x="175" y="347"/>
      <point x="189" y="367"/>
      <point x="231" y="367" type="curve"/>
      <point x="254" y="367"/>
      <point x="281" y="362"/>
      <point x="281" y="362" type="curve"/>
      <point x="281" y="0" type="line"/>
      <point x="421" y="0" type="line"/>
      <point x="421" y="554" type="line"/>
      <point x="503" y="554" type="line"/>
      <point x="503" y="671" type="line"/>
      <point x="-40" y="671" type="line"/>
      <point x="-40" y="554" type="line"/>
      <point x="281" y="554" type="line"/>
      <point x="281" y="490" type="line"/>
      <point x="281" y="490"/>
      <point x="254" y="496"/>
      <point x="210" y="496" type="curve"/>
      <point x="87" y="496"/>
      <point x="35" y="426"/>
    </contour>
  </outline>
</glyph>
<glyph name="dvTHA" format="1">
  <advance width="598"/>
  <unicode hex="0925"/>
  <outline>
    <contour>
      <point x="309" y="202" type="curve" smooth="yes"/>
      <point x="211" y="202"/>
      <point x="178" y="231"/>
      <point x="178" y="296" type="curve" smooth="yes"/>
      <point x="178" y="301" type="line"/>
      <point x="189" y="301" type="line" smooth="yes"/>
      <point x="315" y="301"/>
      <point x="366" y="360"/>
      <point x="366" y="458" type="curve" smooth="yes"/>
      <point x="366" y="516" type="line" smooth="yes"/>
      <point x="366" y="619"/>
      <point x="319" y="676"/>
      <point x="206" y="676" type="curve" smooth="yes"/>
      <point x="93" y="676"/>
      <point x="47" y="612"/>
      <point x="47" y="513" type="curve"/>
      <point x="47" y="495"/>
      <point x="50" y="481"/>
      <point x="50" y="481" type="curve"/>
      <point x="183" y="481" type="line"/>
      <point x="183" y="481"/>
      <point x="180" y="499"/>
      <point x="180" y="512" type="curve"/>
      <point x="180" y="535"/>
      <point x="185" y="551"/>
      <point x="210" y="551" type="curve" smooth="yes"/>
      <point x="235" y="551"/>
      <point x="240" y="538"/>
      <point x="240" y="515" type="curve" smooth="yes"/>
      <point x="240" y="483" type="line" smooth="yes"/>
      <point x="240" y="441"/>
      <point x="225" y="422"/>
      <point x="168" y="422" type="curve" smooth="yes"/>
      <point x="35" y="422" type="line"/>
      <point x="35" y="291" type="line" smooth="yes"/>
      <point x="35" y="153"/>
      <point x="139" y="74"/>
      <point x="299" y="74" type="curve"/>
      <point x="352" y="74"/>
      <point x="385" y="78"/>
      <point x="427" y="88" type="curve"/>
      <point x="427" y="214" type="line"/>
      <point x="389" y="205"/>
      <point x="361" y="202"/>
    </contour>
    <contour>
      <point x="416" y="0" type="line"/>
      <point x="556" y="0" type="line"/>
      <point x="556" y="554" type="line"/>
      <point x="638" y="554" type="line"/>
      <point x="638" y="671" type="line"/>
      <point x="416" y="671" type="line"/>
    </contour>
  </outline>
</glyph>
<glyph name="dvPA" format="1">
  <advance width="445"/>
  <unicode hex="092A"/>
  <outline>
    <contour>
      <point x="263" y="0" type="line"/>
      <point x="403" y="0" type="line"/>
      <point x="403" y="554" type="line"/>
      <point x="485" y="554" type="line"/>
      <point x="485" y="671" type="line"/>
      <point x="-40" y="671" type="line"/>
      <point x="-40" y="554" type="line"/>
      <point x="37" y="554" type="line"/>
      <point x="37" y="272" type="line"/>
      <point x="37" y="169"/>
      <point x="80" y="114"/>
      <point x="198" y="114" type="curve"/>
      <point x="237" y="114"/>
      <point x="263" y="122"/>
      <point x="263" y="122" type="curve"/>
    </contour>
    <contour>
      <point x="263" y="554" type="line"/>
      <point x="263" y="245" type="line"/>
      <point x="263" y="245"/>
      <point x="246" y="238"/>
      <point x="222" y="238" type="curve"/>
      <point x="186" y="238"/>
      <point x="177" y="255"/>
      <point x="177" y="278" type="curve"/>
      <point x="177" y="554" type="line"/>
    </contour>
  </outline>
</glyph>
<glyph name="dvBA" format="1">
  <advance width="470"/>
  <unicode hex="092C"/>
  <outline>
    <contour>
      <point x="295" y="495" type="line"/>
      <point x="277" y="501"/>
      <point x="251" y="506"/>
      <point x="217" y="506" type="curve" smooth="yes"/>
      <point x="94" y="506"/>
      <point x="30" y="467"/>
      <point x="30" y="338" type="curve"/>
      <point x="30" y="221" type="line" smooth="yes"/>
      <point x="30" y="92"/>
      <point x="101" y="53"/>
      <point x="223" y="53" type="curve" smooth="yes"/>
      <point x="252" y="53"/>
      <point x="278" y="56"/>
      <point x="295" y="61" type="curve"/>
      <point x="295" y="0" type="line"/>
      <point x="428" y="0" type="line"/>
      <point x="428" y="554" type="line"/>
      <point x="510" y="554" type="line"/>
      <point x="510" y="671" type="line"/>
      <point x="-40" y="671" type="line"/>
      <point x="-40" y="554" type="line"/>
      <point x="295" y="554" type="line"/>
    </contour>
    <contour>
      <point x="172" y="387" type="line"/>
      <point x="118" y="342" type="line"/>
      <point x="302" y="159" type="line"/>
      <point x="356" y="205" type="line"/>
    </contour>
    <contour>
      <point x="295" y="173" type="line"/>
      <point x="275" y="170"/>
      <point x="259" y="168"/>
      <point x="233" y="168" type="curve" smooth="yes"/>
      <point x="180" y="168"/>
      <point x="163" y="191"/>
      <point x="163" y="227" type="curve" smooth="yes"/>
      <point x="163" y="332" type="line"/>
      <point x="163" y="368"/>
      <point x="178" y="391"/>
      <point x="233" y="391" type="curve" smooth="yes"/>
      <point x="257" y="391"/>
      <point x="275" y="387"/>
      <point x="295" y="380" type="curve"/>
    </contour>
  </outline>
</glyph>
<glyph name="dvBHA" format="1">
  <advance width="648"/>
  <unicode hex="092D"/>
  <outline>
    <contour>
      <point x="248" y="212" type="line"/>
      <point x="248" y="189"/>
      <point x="242" y="173"/>
      <point x="209" y="173" type="curve" smooth="yes"/>
      <point x="176" y="173"/>
      <point x="170" y="189"/>
      <point x="170" y="212" type="curve" smooth="yes"/>
      <point x="170" y="277" type="line" smooth="yes"/>
      <point x="170" y="300"/>
      <point x="176" y="316"/>
      <point x="209" y="316" type="curve" smooth="yes"/>
      <point x="248" y="316" type="line"/>
    </contour>
    <contour>
      <point x="248" y="434" type="line"/>
      <point x="209" y="434" type="line" smooth="yes"/>
      <point x="86" y="434"/>
      <point x="36" y="375"/>
      <point x="36" y="282" type="curve" smooth="yes"/>
      <point x="36" y="207" type="line" smooth="yes"/>
      <point x="36" y="114"/>
      <point x="86" y="54"/>
      <point x="209" y="54" type="curve" smooth="yes"/>
      <point x="332" y="54"/>
      <point x="382" y="114"/>
      <point x="382" y="207" type="curve" smooth="yes"/>
      <point x="382" y="316" type="line"/>
      <point x="466" y="316" type="line"/>
      <point x="466" y="0" type="line"/>
      <point x="606" y="0" type="line"/>
      <point x="606" y="554" type="line"/>
      <point x="688" y="554" type="line"/>
      <point x="688" y="671" type="line"/>
      <point x="466" y="671" type="line"/>
      <point x="466" y="434" type="line"/>
      <point x="388" y="434" type="line"/>
      <point x="388" y="513" type="line" smooth="yes"/>
      <point x="388" y="616"/>
      <point x="335" y="676"/>
      <point x="212" y="676" type="curve" smooth="yes"/>
      <point x="89" y="676"/>
      <point x="36" y="616"/>
      <point x="36" y="513" type="curve"/>
      <point x="36" y="498"/>
      <point x="40" y="476"/>
      <point x="40" y="476" type="curve"/>
      <point x="180" y="476" type="line"/>
      <point x="180" y="476"/>
      <point x="176" y="492"/>
      <point x="176" y="508" type="curve"/>
      <point x="176" y="531"/>
      <point x="179" y="547"/>
      <point x="212" y="547" type="curve" smooth="yes"/>
      <point x="245" y="547"/>
      <point x="248" y="531"/>
      <point x="248" y="508" type="curve" smooth="yes"/>
    </contour>
  </outline>
</glyph>
<glyph name="dvMA" format="1">
  <advance width="624"/>
  <unicode hex="092E"/>
  <outline>
    <contour>
      <point x="237" y="213" type="line"/>
      <point x="237" y="190"/>
      <point x="231" y="174"/>
      <point x="198" y="174" type="curve" smooth="yes"/>
      <point x="165" y="174"/>
      <point x="159" y="190"/>
      <point x="159" y="213" type="curve"/>
      <point x="159" y="289" type="line" smooth="yes"/>
      <point x="159" y="312"/>
      <point x="165" y="328"/>
      <point x="198" y="328" type="curve" smooth="yes"/>
      <point x="237" y="328" type="line"/>
    </contour>
    <contour>
      <point x="371" y="446" type="line"/>
      <point x="371" y="554" type="line"/>
      <point x="445" y="554" type="line"/>
      <point x="445" y="446" type="line"/>
    </contour>
    <contour>
      <point x="445" y="0" type="line"/>
      <point x="582" y="0" type="line"/>
      <point x="582" y="554" type="line"/>
      <point x="664" y="554" type="line"/>
      <point x="664" y="671" type="line"/>
      <point x="-40" y="671" type="line"/>
      <point x="-40" y="554" type="line"/>
      <point x="237" y="554" type="line"/>
      <point x="237" y="446" type="line"/>
      <point x="198" y="446" type="line" smooth="yes"/>
      <point x="75" y="446"/>
      <point x="25" y="387"/>
      <point x="25" y="294" type="curve" smooth="yes"/>
      <point x="25" y="208" type="line" smooth="yes"/>
      <point x="25" y="115"/>
      <point x="75" y="55"/>
      <point x="198" y="55" type="curve" smooth="yes"/>
      <point x="321" y="55"/>
      <point x="371" y="115"/>
      <point x="371" y="208" type="curve"/>
      <point x="371" y="328" type="line"/>
      <point x="445" y="328" type="line"/>
    </contour>
  </outline>
</glyph>
<glyph name="dvRxA" format="1">
  <advance width="446"/>
  <unicode hex="0931"/>
  <outline>
    <contour>
      <point x="391" y="671" type="move" name="abvm.bindu"/>
    </contour>
    <contour>
      <point x="391" y="671" type="move" name="abvm.e"/>
    </contour>
    <contour>
      <point x="-48" y="-96" type="curve" smooth="yes"/>
      <point x="-48" y="-138"/>
      <point x="-32" y="-171"/>
      <point x="25" y="-171" type="curve" smooth="yes"/>
      <point x="83" y="-171"/>
      <point x="100" y="-138"/>
      <point x="100" y="-96" type="curve" smooth="yes"/>
      <point x="100" y="-54"/>
      <point x="83" y="-21"/>
      <point x="25" y="-21" type="curve" smooth="yes"/>
      <point x="-32" y="-21"/>
      <point x="-48" y="-54"/>
    </contour>
    <contour>
      <point x="189" y="451" type="line"/>
      <point x="49" y="451" type="line"/>
      <point x="49" y="174" type="line" smooth="yes"/>
      <point x="49" y="71"/>
      <point x="115" y="-5"/>
      <point x="258" y="-5" type="curve" smooth="yes"/>
      <point x="320" y="-5"/>
      <point x="376" y="4"/>
      <point x="413" y="17" type="curve"/>
      <point x="413" y="147" type="line"/>
      <point x="377" y="132"/>
      <point x="337" y="121"/>
      <point x="281" y="121" type="curve" smooth="yes"/>
      <point x="219" y="121"/>
      <point x="189" y="138"/>
      <point x="189" y="179" type="curve" smooth="yes"/>
      <point x="189" y="249" type="line"/>
      <point x="189" y="249"/>
      <point x="220" y="242"/>
      <point x="249" y="242" type="curve"/>
      <point x="362" y="242"/>
      <point x="407" y="299"/>
      <point x="407" y="402" type="curve" smooth="yes"/>
      <point x="407" y="507" type="line" smooth="yes"/>
      <point x="407" y="538"/>
      <point x="401" y="554"/>
      <point x="401" y="554" type="curve"/>
      <point x="486" y="554" type="line"/>
      <point x="486" y="671" type="line"/>
      <point x="-40" y="671" type="line"/>
      <point x="-40" y="554" type="line"/>
      <point x="257" y="554" type="line"/>
      <point x="257" y="554"/>
      <point x="267" y="541"/>
      <point x="267" y="507" type="curve" smooth="yes"/>
      <point x="267" y="404" type="line" smooth="yes"/>
      <point x="267" y="381"/>
      <point x="261" y="365"/>
      <point x="228" y="365" type="curve" smooth="yes"/>
      <point x="207" y="365"/>
      <point x="189" y="370"/>
      <point x="189" y="370" type="curve"/>
    </contour>
  </outline>
</glyph>
<glyph name="dvLA" format="1">
  <advance width="653"/>
  <unicode hex="0932"/>
  <outline>
    <contour>
      <point x="35" y="182" type="line"/>
      <point x="35" y="59"/>
      <point x="95" y="0"/>
      <point x="238" y="0" type="curve" smooth="yes"/>
      <point x="267" y="0"/>
      <point x="289" y="2"/>
      <point x="305" y="4" type="curve"/>
      <point x="305" y="132" type="line"/>
      <point x="287" y="130"/>
      <point x="268" y="129"/>
      <point x="246" y="129" type="curve" smooth="yes"/>
      <point x="185" y="129"/>
      <point x="175" y="154"/>
      <point x="175" y="188" type="curve" smooth="yes"/>
      <point x="175" y="326" type="line" smooth="yes"/>
      <point x="175" y="349"/>
      <point x="181" y="365"/>
      <point x="214" y="365" type="curve" smooth="yes"/>
      <point x="247" y="365"/>
      <point x="253" y="349"/>
      <point x="253" y="326" type="curve" smooth="yes"/>
      <point x="253" y="212" type="line"/>
      <point x="393" y="212" type="line"/>
      <point x="393" y="326" type="line" smooth="yes"/>
      <point x="393" y="349"/>
      <point x="403" y="365"/>
      <point x="436" y="365" type="curve" smooth="yes"/>
      <point x="456" y="365"/>
      <point x="471" y="360"/>
      <point x="471" y="360" type="curve"/>
      <point x="471" y="0" type="line"/>
      <point x="611" y="0" type="line"/>
      <point x="611" y="554" type="line"/>
      <point x="693" y="554" type="line"/>
      <point x="693" y="671" type="line"/>
      <point x="-40" y="671" type="line"/>
      <point x="-40" y="554" type="line"/>
      <point x="471" y="554" type="line"/>
      <point x="471" y="488" type="line"/>
      <point x="471" y="488"/>
      <point x="450" y="493"/>
      <point x="423" y="493" type="curve" smooth="yes"/>
      <point x="365" y="493"/>
      <point x="340" y="469"/>
      <point x="320" y="439" type="curve"/>
      <point x="308" y="463"/>
      <point x="275" y="494"/>
      <point x="209" y="494" type="curve" smooth="yes"/>
      <point x="96" y="494"/>
      <point x="35" y="434"/>
      <point x="35" y="331" type="curve" smooth="yes"/>
    </contour>
  </outline>
</glyph>
<glyph name="dvLLA" format="1">
  <advance width="624"/>
  <unicode hex="0933"/>
  <outline>
    <contour>
      <point x="499" y="671" type="move" name="abvm.bindu"/>
    </contour>
    <contour>
      <point x="382" y="-5" type="move" name="blwm.virama"/>
    </contour>
    <contour>
      <point x="499" y="671" type="move" name="abvm.e"/>
    </contour>
    <contour>
      <point x="383" y="-56" type="move" name="blwm.u"/>
    </contour>
    <contour>
      <point x="589" y="333" type="line"/>
      <point x="589" y="411"/>
      <point x="563" y="465"/>
      <point x="499" y="486" type="curve"/>
      <point x="499" y="554" type="line"/>
      <point x="664" y="554" type="line"/>
      <point x="664" y="671" type="line"/>
      <point x="-40" y="671" type="line"/>
      <point x="-40" y="554" type="line"/>
      <point x="359" y="554" type="line"/>
      <point x="359" y="482" type="line"/>
      <point x="342" y="475"/>
      <point x="328" y="464"/>
      <point x="316" y="450" type="curve"/>
      <point x="289" y="480"/>
      <point x="251" y="496"/>
      <point x="203" y="496" type="curve" smooth="yes"/>
      <point x="85" y="496"/>
      <point x="35" y="440"/>
      <point x="35" y="337" type="curve" smooth="yes"/>
      <point x="35" y="158" type="line" smooth="yes"/>
      <point x="35" y="55"/>
      <point x="85" y="-5"/>
      <point x="203" y="-5" type="curve" smooth="yes"/>
      <point x="251" y="-5"/>
      <point x="289" y="11"/>
      <point x="316" y="40" type="curve"/>
      <point x="341" y="11"/>
      <point x="379" y="-5"/>
      <point x="427" y="-5" type="curve" smooth="yes"/>
      <point x="545" y="-5"/>
      <point x="589" y="55"/>
      <point x="589" y="158" type="curve" smooth="yes"/>
    </contour>
    <contour>
      <point x="167" y="331" type="line"/>
      <point x="167" y="356"/>
      <point x="173" y="373"/>
      <point x="208" y="373" type="curve" smooth="yes"/>
      <point x="243" y="373"/>
      <point x="249" y="356"/>
      <point x="249" y="331" type="curve" smooth="yes"/>
      <point x="249" y="160" type="line"/>
      <point x="249" y="135"/>
      <point x="243" y="118"/>
      <point x="208" y="118" type="curve" smooth="yes"/>
      <point x="173" y="118"/>
      <point x="167" y="135"/>
      <point x="167" y="160" type="curve" smooth="yes"/>
    </contour>
    <contour>
      <point x="381" y="331" type="line"/>
      <point x="381" y="356"/>
      <point x="387" y="373"/>
      <point x="422" y="373" type="curve" smooth="yes"/>
      <point x="457" y="373"/>
      <point x="463" y="356"/>
      <point x="463" y="331" type="curve" smooth="yes"/>
      <point x="463" y="160" type="line"/>
      <point x="463" y="135"/>
      <point x="457" y="118"/>
      <point x="422" y="118" type="curve" smooth="yes"/>
      <point x="387" y="118"/>
      <point x="381" y="135"/>
      <point x="381" y="160" type="curve" smooth="yes"/>
    </contour>
  </outline>
</glyph>
<glyph name="dvVA" format="1">
  <advance width="447"/>
  <unicode hex="0935"/>
  <outline>
    <contour>
      <point x="265" y="499" type="line"/>
      <point x="250" y="502"/>
      <point x="226" y="506"/>
      <point x="199" y="506" type="curve" smooth="yes"/>
      <point x="80" y="506"/>
      <point x="35" y="449"/>
      <point x="35" y="346" type="curve" smooth="yes"/>
      <point x="35" y="211" type="line" smooth="yes"/>
      <point x="35" y="108"/>
      <point x="76" y="52"/>
      <point x="199" y="52" type="curve" smooth="yes"/>
      <point x="228" y="52"/>
      <point x="250" y="56"/>
      <point x="265" y="59" type="curve"/>
      <point x="265" y="0" type="line"/>
      <point x="405" y="0" type="line"/>
      <point x="405" y="554" type="line"/>
      <point x="487" y="554" type="line"/>
      <point x="487" y="671" type="line"/>
      <point x="-40" y="671" type="line"/>
      <point x="-40" y="554" type="line"/>
      <point x="265" y="554" type="line"/>
    </contour>
    <contour>
      <point x="272" y="177" type="line"/>
      <point x="261" y="173"/>
      <point x="245" y="170"/>
      <point x="225" y="170" type="curve" smooth="yes"/>
      <point x="190" y="170"/>
      <point x="171" y="184"/>
      <point x="171" y="214" type="curve" smooth="yes"/>
      <point x="171" y="345" type="line" smooth="yes"/>
      <point x="171" y="375"/>
      <point x="189" y="388"/>
      <point x="224" y="388" type="curve" smooth="yes"/>
      <point x="242" y="388"/>
      <point x="257" y="386"/>
      <point x="272" y="383" type="curve"/>
    </contour>
  </outline>
</glyph>
<glyph name="dvSSA" format="1">
  <advance width="469"/>
  <unicode hex="0937"/>
  <outline>
    <contour>
      <point x="287" y="0" type="line"/>
      <point x="427" y="0" type="line"/>
      <point x="427" y="554" type="line"/>
      <point x="509" y="554" type="line"/>
      <point x="509" y="671" type="line"/>
      <point x="-42" y="671" type="line"/>
      <point x="-42" y="554" type="line"/>
      <point x="35" y="554" type="line"/>
      <point x="35" y="272" type="line" smooth="yes"/>
      <point x="35" y="169"/>
      <point x="82" y="114"/>
      <point x="200" y="114" type="curve" smooth="yes"/>
      <point x="231" y="114"/>
      <point x="259" y="117"/>
      <point x="287" y="124" type="curve"/>
    </contour>
    <contour>
      <point x="153" y="512" type="line"/>
      <point x="104" y="459" type="line"/>
      <point x="301" y="287" type="line"/>
      <point x="350" y="341" type="line"/>
    </contour>
    <contour>
      <point x="287" y="248" type="line"/>
      <point x="265" y="241"/>
      <point x="251" y="238"/>
      <point x="227" y="238" type="curve" smooth="yes"/>
      <point x="191" y="238"/>
      <point x="175" y="253"/>
      <point x="175" y="278" type="curve"/>
      <point x="175" y="554" type="line"/>
      <point x="287" y="554" type="line"/>
    </contour>
  </outline>
</glyph>
<glyph name="dvHA" format="1">
  <advance width="448"/>
  <unicode hex="0939"/>
  <outline>
    <contour>
      <point x="393" y="671" type="move" name="abvm.bindu"/>
    </contour>
    <contour>
      <point x="393" y="671" type="move" name="abvm.e"/>
    </contour>
    <contour>
      <point x="326" y="-56" type="move" name="blwm.u"/>
    </contour>
    <contour>
      <point x="38" y="158" type="line"/>
      <point x="38" y="48"/>
      <point x="119" y="-7"/>
      <point x="254" y="-7" type="curve"/>
      <point x="312" y="-7"/>
      <point x="364" y="2"/>
      <point x="403" y="13" type="curve"/>
      <point x="403" y="134" type="line"/>
      <point x="357" y="120"/>
      <point x="323" y="114"/>
      <point x="264" y="114" type="curve"/>
      <point x="210" y="114"/>
      <point x="178" y="128"/>
      <point x="178" y="167" type="curve" smooth="yes"/>
      <point x="178" y="180" type="line" smooth="yes"/>
      <point x="178" y="203"/>
      <point x="184" y="219"/>
      <point x="217" y="219" type="curve" smooth="yes"/>
      <point x="261" y="219" type="line" smooth="yes"/>
      <point x="288" y="219"/>
      <point x="295" y="210"/>
      <point x="295" y="184" type="curve" smooth="yes"/>
      <point x="295" y="166" type="line"/>
      <point x="418" y="166" type="line"/>
      <point x="418" y="197" type="line" smooth="yes"/>
      <point x="418" y="288"/>
      <point x="381" y="334"/>
      <point x="279" y="334" type="curve" smooth="yes"/>
      <point x="206" y="334" type="line" smooth="yes"/>
      <point x="186" y="334"/>
      <point x="177" y="340"/>
      <point x="177" y="357" type="curve" smooth="yes"/>
      <point x="177" y="365" type="line" smooth="yes"/>
      <point x="177" y="382"/>
      <point x="186" y="388"/>
      <point x="206" y="388" type="curve" smooth="yes"/>
      <point x="393" y="388" type="line"/>
      <point x="393" y="554" type="line"/>
      <point x="488" y="554" type="line"/>
      <point x="488" y="671" type="line"/>
      <point x="-40" y="671" type="line"/>
      <point x="-40" y="554" type="line"/>
      <point x="253" y="554" type="line"/>
      <point x="253" y="508" type="line"/>
      <point x="206" y="508" type="line" smooth="yes"/>
      <point x="93" y="508"/>
      <point x="37" y="473"/>
      <point x="37" y="377" type="curve" smooth="yes"/>
      <point x="37" y="359" type="line" smooth="yes"/>
      <point x="38" y="315"/>
      <point x="54" y="288"/>
      <point x="81" y="272" type="curve"/>
      <point x="53" y="253"/>
      <point x="38" y="223"/>
      <point x="38" y="175" type="curve" smooth="yes"/>
    </contour>
  </outline>
</glyph>
<glyph name="dvAvagraha" format="1">
  <advance width="421"/>
  <unicode hex="093D"/>
  <outline>
    <contour>
      <point x="396" y="189" type="line"/>
      <point x="396" y="257"/>
      <point x="387" y="298"/>
      <point x="321" y="345" type="curve" smooth="yes"/>
      <point x="200" y="431" type="line" smooth="yes"/>
      <point x="174" y="450"/>
      <point x="163" y="462"/>
      <point x="163" y="492" type="curve" smooth="yes"/>
      <point x="163" y="503" type="line" smooth="yes"/>
      <point x="163" y="524"/>
      <point x="168" y="541"/>
      <point x="202" y="541" type="curve" smooth="yes"/>
      <point x="371" y="541" type="line"/>
      <point x="371" y="671" type="line"/>
      <point x="191" y="671" type="line" smooth="yes"/>
      <point x="68" y="671"/>
      <point x="23" y="614"/>
      <point x="23" y="511" type="curve" smooth="yes"/>
      <point x="23" y="485" type="line" smooth="yes"/>
      <point x="23" y="427"/>
      <point x="49" y="381"/>
      <point x="95" y="348" type="curve" smooth="yes"/>
      <point x="220" y="259" type="line" smooth="yes"/>
      <point x="248" y="239"/>
      <point x="256" y="226"/>
      <point x="256" y="192" type="curve" smooth="yes"/>
      <point x="256" y="163" type="line" smooth="yes"/>
      <point x="256" y="143"/>
      <point x="248" y="125"/>
      <point x="212" y="125" type="curve" smooth="yes"/>
      <point x="206" y="125" type="line"/>
      <point x="170" y="125"/>
      <point x="162" y="143"/>
      <point x="162" y="163" type="curve" smooth="yes"/>
      <point x="162" y="223" type="line"/>
      <point x="22" y="223" type="line"/>
      <point x="22" y="168" type="line" smooth="yes"/>
      <point x="22" y="55"/>
      <point x="78" y="-5"/>
      <point x="201" y="-5" type="curve" smooth="yes"/>
      <point x="219" y="-5" type="line"/>
      <point x="342" y="-5"/>
      <point x="396" y="55"/>
      <point x="396" y="168" type="curve"/>
    </contour>
  </outline>
</glyph>
<glyph name="dvmU" format="1">
  <advance width="0"/>
  <unicode hex="0941"/>
  <outline>
    <contour>
      <point x="-42" y="0" type="move" name="_blwm.u"/>
    </contour>
    <contour>
      <point x="-479" y="-45" type="line"/>
      <point x="-387" y="-166" type="line" smooth="yes"/>
      <point x="-327" y="-245"/>
      <point x="-277" y="-259"/>
      <point x="-211" y="-259" type="curve" smooth="yes"/>
      <point x="-118" y="-259" type="line"/>
      <point x="-24" y="-259"/>
      <point x="17" y="-218"/>
      <point x="17" y="-119" type="curve" smooth="yes"/>
      <point x="17" y="-17"/>
      <point x="-36" y="20"/>
      <point x="-133" y="20" type="curve"/>
      <point x="-193" y="20"/>
      <point x="-228" y="12"/>
      <point x="-228" y="12" type="curve"/>
      <point x="-228" y="-96" type="line"/>
      <point x="-228" y="-96"/>
      <point x="-198" y="-88"/>
      <point x="-146" y="-88" type="curve"/>
      <point x="-118" y="-88"/>
      <point x="-105" y="-95"/>
      <point x="-105" y="-120" type="curve" smooth="yes"/>
      <point x="-105" y="-146"/>
      <point x="-118" y="-153"/>
      <point x="-146" y="-153" type="curve" smooth="yes"/>
      <point x="-193" y="-153" type="line" smooth="yes"/>
      <point x="-236" y="-153"/>
      <point x="-248" y="-145"/>
      <point x="-282" y="-101" type="curve" smooth="yes"/>
      <point x="-326" y="-45" type="line"/>
    </contour>
  </outline>
</glyph>
<glyph name="dvmvR" format="1">
  <advance width="0"/>
  <unicode hex="0943"/>
  <outline>
    <contour>
      <point x="-42" y="0" type="move" name="_blwm.u"/>
    </contour>
    <contour>
      <point x="-146" y="-117" type="curve"/>
      <point x="-96" y="-117"/>
      <point x="-42" y="-126"/>
      <point x="-42" y="-126" type="curve"/>
      <point x="-42" y="1" type="line"/>
      <point x="-42" y="1"/>
      <point x="-104" y="11"/>
      <point x="-147" y="11" type="curve"/>
      <point x="-270" y="11"/>
      <point x="-334" y="-49"/>
      <point x="-334" y="-157" type="curve" smooth="yes"/>
      <point x="-334" y="-265"/>
      <point x="-270" y="-325"/>
      <point x="-147" y="-325" type="curve"/>
      <point x="-91" y="-325"/>
      <point x="-41" y="-315"/>
      <point x="-41" y="-315" type="curve"/>
      <point x="-41" y="-188" type="line"/>
      <point x="-41" y="-188"/>
      <point x="-95" y="-197"/>
      <point x="-145" y="-197" type="curve"/>
      <point x="-174" y="-197"/>
      <point x="-196" y="-189"/>
      <point x="-196" y="-157" type="curve" smooth="yes"/>
      <point x="-196" y="-126"/>
      <point x="-174" y="-117"/>
    </contour>
  </outline>
</glyph>
<glyph name="dvmOcandra" format="1">
  <advance width="224"/>
  <unicode hex="0949"/>
  <outline>
    <contour>
      <point x="42" y="554" type="line"/>
      <point x="42" y="0" type="line"/>
      <point x="182" y="0" type="line"/>
      <point x="182" y="554" type="line"/>
      <point x="264" y="554" type="line"/>
      <point x="264" y="671" type="line"/>
      <point x="-40" y="671" type="line"/>
      <point x="-40" y="554" type="line"/>
    </contour>
    <contour>
      <point x="187" y="901" type="line"/>
      <point x="187" y="865"/>
      <point x="165" y="850"/>
      <point x="117" y="850" type="curve" smooth="yes"/>
      <point x="67" y="850"/>
      <point x="47" y="865"/>
      <point x="47" y="901" type="curve"/>
      <point x="-92" y="901" type="line"/>
      <point x="-92" y="896" type="line"/>
      <point x="-92" y="783"/>
      <point x="-19" y="729"/>
      <point x="117" y="729" type="curve" smooth="yes"/>
      <point x="255" y="729"/>
      <point x="327" y="783"/>
      <point x="327" y="896" type="curve"/>
      <point x="327" y="901" type="line"/>
    </contour>
  </outline>
</glyph>
<glyph name="dvKHxA" format="1">
  <advance width="796"/>
  <unicode hex="0959"/>
  <outline>
    <contour>
      <point x="-23" y="-71" type="curve" smooth="yes"/>
      <point x="-23" y="-113"/>
      <point x="-7" y="-146"/>
      <point x="50" y="-146" type="curve" smooth="yes"/>
      <point x="108" y="-146"/>
      <point x="125" y="-113"/>
      <point x="125" y="-71" type="curve" smooth="yes"/>
      <point x="125" y="-29"/>
      <point x="108" y="4"/>
      <point x="50" y="4" type="curve" smooth="yes"/>
      <point x="-7" y="4"/>
      <point x="-23" y="-29"/>
    </contour>
    <contour>
      <point x="171" y="451" type="line"/>
      <point x="38" y="451" type="line"/>
      <point x="38" y="193" type="line" smooth="yes"/>
      <point x="38" y="82"/>
      <point x="98" y="-5"/>
      <point x="254" y="-5" type="curve" smooth="yes"/>
      <point x="294" y="-5"/>
      <point x="349" y="1"/>
      <point x="386" y="14" type="curve"/>
      <point x="386" y="144" type="line"/>
      <point x="350" y="129"/>
      <point x="310" y="121"/>
      <point x="267" y="121" type="curve" smooth="yes"/>
      <point x="192" y="121"/>
      <point x="171" y="151"/>
      <point x="171" y="195" type="curve" smooth="yes"/>
    </contour>
    <contour>
      <point x="145" y="235" type="line"/>
      <point x="164" y="231"/>
      <point x="194" y="226"/>
      <point x="216" y="226" type="curve"/>
      <point x="329" y="226"/>
      <point x="374" y="283"/>
      <point x="374" y="386" type="curve" smooth="yes"/>
      <point x="374" y="507" type="line" smooth="yes"/>
      <point x="374" y="538"/>
      <point x="368" y="554"/>
      <point x="368" y="554" type="curve"/>
      <point x="453" y="554" type="line"/>
      <point x="453" y="671" type="line"/>
      <point x="-40" y="671" type="line"/>
      <point x="-40" y="554" type="line"/>
      <point x="235" y="554" type="line"/>
      <point x="235" y="554"/>
      <point x="245" y="541"/>
      <point x="245" y="507" type="curve" smooth="yes"/>
      <point x="245" y="388" type="line"/>
      <point x="245" y="365"/>
      <point x="238" y="349"/>
      <point x="205" y="349" type="curve"/>
      <point x="184" y="349"/>
      <point x="171" y="351"/>
      <point x="145" y="355" type="curve"/>
    </contour>
    <contour>
      <point x="407" y="334" type="curve"/>
      <point x="407" y="256" type="line"/>
      <point x="407" y="153"/>
      <point x="443" y="99"/>
      <point x="566" y="99" type="curve"/>
      <point x="600" y="99"/>
      <point x="618" y="105"/>
      <point x="618" y="105" type="curve"/>
      <point x="618" y="0" type="line"/>
      <point x="754" y="0" type="line"/>
      <point x="754" y="554" type="line"/>
      <point x="836" y="554" type="line"/>
      <point x="836" y="671" type="line"/>
      <point x="400" y="671" type="line"/>
      <point x="400" y="554" type="line"/>
      <point x="618" y="554" type="line"/>
      <point x="618" y="491" type="line"/>
      <point x="618" y="491"/>
      <point x="592" y="496"/>
      <point x="559" y="496" type="curve"/>
      <point x="436" y="496"/>
      <point x="407" y="437"/>
    </contour>
    <contour>
      <point x="618" y="221" type="line"/>
      <point x="618" y="221"/>
      <point x="603" y="216"/>
      <point x="578" y="216" type="curve"/>
      <point x="543" y="216"/>
      <point x="532" y="231"/>
      <point x="532" y="256" type="curve" smooth="yes"/>
      <point x="532" y="335" type="line" smooth="yes"/>
      <point x="532" y="359"/>
      <point x="543" y="375"/>
      <point x="578" y="375" type="curve" smooth="yes"/>
      <point x="601" y="375"/>
      <point x="618" y="370"/>
      <point x="618" y="370" type="curve"/>
    </contour>
  </outline>
</glyph>
<glyph name="dvJxA" format="1">
  <advance width="594"/>
  <unicode hex="095B"/>
  <outline>
    <contour>
      <point x="-11" y="-64" type="curve" smooth="yes"/>
      <point x="-11" y="-106"/>
      <point x="5" y="-139"/>
      <point x="64" y="-139" type="curve" smooth="yes"/>
      <point x="122" y="-139"/>
      <point x="139" y="-106"/>
      <point x="139" y="-64" type="curve" smooth="yes"/>
      <point x="139" y="-22"/>
      <point x="123" y="11"/>
      <point x="65" y="11" type="curve" smooth="yes"/>
      <point x="6" y="11"/>
      <point x="-11" y="-22"/>
    </contour>
    <component base="dvJA"/>
  </outline>
</glyph>
<glyph name="dvDDHxA" format="1">
  <advance width="435"/>
  <unicode hex="095D"/>
  <outline>
    <contour>
      <point x="383" y="671" type="move" name="abvm.bindu"/>
    </contour>
    <contour>
      <point x="295" y="-199" type="move" name="blwm.virama"/>
    </contour>
    <contour>
      <point x="383" y="671" type="move" name="abvm.e"/>
    </contour>
    <contour>
      <point x="289" y="-249" type="move" name="blwm.u"/>
    </contour>
    <contour>
      <point x="209" y="499" type="line"/>
      <point x="86" y="499"/>
      <point x="34" y="453"/>
      <point x="34" y="340" type="curve" smooth="yes"/>
      <point x="34" y="167" type="line" smooth="yes"/>
      <point x="34" y="54"/>
      <point x="92" y="-5"/>
      <point x="222" y="-5" type="curve" smooth="yes"/>
      <point x="352" y="-5"/>
      <point x="406" y="49"/>
      <point x="406" y="162" type="curve" smooth="yes"/>
      <point x="406" y="177" type="line" smooth="yes"/>
      <point x="406" y="290"/>
      <point x="356" y="329"/>
      <point x="258" y="329" type="curve" smooth="yes"/>
      <point x="229" y="329"/>
      <point x="210" y="321"/>
      <point x="210" y="321" type="curve"/>
      <point x="210" y="198" type="line"/>
      <point x="210" y="198"/>
      <point x="221" y="206"/>
      <point x="239" y="206" type="curve" smooth="yes"/>
      <point x="259" y="206"/>
      <point x="272" y="200"/>
      <point x="272" y="172" type="curve"/>
      <point x="272" y="170" type="line" smooth="yes"/>
      <point x="272" y="139"/>
      <point x="264" y="123"/>
      <point x="222" y="123" type="curve" smooth="yes"/>
      <point x="180" y="123"/>
      <point x="172" y="141"/>
      <point x="172" y="172" type="curve" smooth="yes"/>
      <point x="172" y="335" type="line" smooth="yes"/>
      <point x="172" y="358"/>
      <point x="176" y="372"/>
      <point x="209" y="372" type="curve" smooth="yes"/>
      <point x="383" y="372" type="line"/>
      <point x="383" y="554" type="line"/>
      <point x="474" y="554" type="line"/>
      <point x="474" y="671" type="line"/>
      <point x="-40" y="671" type="line"/>
      <point x="-40" y="554" type="line"/>
      <point x="245" y="554" type="line"/>
      <point x="245" y="499" type="line"/>
    </contour>
    <component base="dvNukta" xOffset="429"/>
  </outline>
</glyph>
<glyph name="dvPHxA" format="1">
  <advance width="656"/>
  <unicode hex="095E"/>
  <outline>
    <contour>
      <point x="408" y="671" type="move" name="abvm.bindu"/>
    </contour>
    <contour>
      <point x="408" y="0" type="move" name="blwm.virama"/>
    </contour>
    <contour>
      <point x="408" y="671" type="move" name="abvm.e"/>
    </contour>
    <contour>
      <point x="408" y="-43" type="move" name="blwm.u"/>
    </contour>
    <contour>
      <point x="21" y="-24" type="curve" smooth="yes"/>
      <point x="21" y="-66"/>
      <point x="37" y="-99"/>
      <point x="96" y="-99" type="curve" smooth="yes"/>
      <point x="154" y="-99"/>
      <point x="171" y="-66"/>
      <point x="171" y="-24" type="curve" smooth="yes"/>
      <point x="171" y="18"/>
      <point x="154" y="51"/>
      <point x="96" y="51" type="curve" smooth="yes"/>
      <point x="37" y="51"/>
      <point x="21" y="18"/>
    </contour>
    <contour>
      <point x="268" y="0" type="line"/>
      <point x="408" y="0" type="line"/>
      <point x="408" y="366" type="line"/>
      <point x="408" y="366"/>
      <point x="423" y="372"/>
      <point x="444" y="372" type="curve"/>
      <point x="477" y="372"/>
      <point x="486" y="356"/>
      <point x="486" y="333" type="curve"/>
      <point x="486" y="228" type="line" smooth="yes"/>
      <point x="486" y="198"/>
      <point x="480" y="189"/>
      <point x="450" y="189" type="curve"/>
      <point x="450" y="59" type="line"/>
      <point x="456" y="58"/>
      <point x="461" y="58"/>
      <point x="467" y="58" type="curve"/>
      <point x="580" y="58"/>
      <point x="626" y="111"/>
      <point x="626" y="214" type="curve" smooth="yes"/>
      <point x="626" y="338" type="line" smooth="yes"/>
      <point x="626" y="441"/>
      <point x="577" y="501"/>
      <point x="464" y="501" type="curve"/>
      <point x="430" y="501"/>
      <point x="408" y="493"/>
      <point x="408" y="493" type="curve"/>
      <point x="408" y="554" type="line"/>
      <point x="696" y="554" type="line"/>
      <point x="696" y="671" type="line"/>
      <point x="-40" y="671" type="line"/>
      <point x="-40" y="554" type="line"/>
      <point x="50" y="554" type="line"/>
      <point x="50" y="258" type="line" smooth="yes"/>
      <point x="50" y="155"/>
      <point x="93" y="100"/>
      <point x="211" y="100" type="curve" smooth="yes"/>
      <point x="238" y="100"/>
      <point x="258" y="104"/>
      <point x="268" y="106" type="curve"/>
    </contour>
    <contour>
      <point x="268" y="228" type="line"/>
      <point x="261" y="226"/>
      <point x="249" y="224"/>
      <point x="235" y="224" type="curve" smooth="yes"/>
      <point x="199" y="224"/>
      <point x="190" y="241"/>
      <point x="190" y="264" type="curve"/>
      <point x="190" y="554" type="line"/>
      <point x="268" y="554" type="line"/>
    </contour>
  </outline>
</glyph>
<glyph name="dvvRR" format="1">
  <advance width="775"/>
  <unicode hex="0960"/>
  <outline>
    <contour>
      <point x="716" y="-34" type="line"/>
      <point x="716" y="62" type="line"/>
      <point x="675" y="62" type="line" smooth="yes"/>
      <point x="572" y="62"/>
      <point x="497" y="26"/>
      <point x="497" y="-92" type="curve" smooth="yes"/>
      <point x="497" y="-180"/>
      <point x="549" y="-233"/>
      <point x="675" y="-233" type="curve" smooth="yes"/>
      <point x="711" y="-233"/>
      <point x="727" y="-231"/>
      <point x="760" y="-226" type="curve"/>
      <point x="760" y="-107" type="line"/>
      <point x="732" y="-112"/>
      <point x="708" y="-114"/>
      <point x="681" y="-114" type="curve" smooth="yes"/>
      <point x="654" y="-114"/>
      <point x="636" y="-107"/>
      <point x="636" y="-74" type="curve" smooth="yes"/>
      <point x="636" y="-41"/>
      <point x="648" y="-34"/>
      <point x="671" y="-34" type="curve"/>
    </contour>
    <contour>
      <point x="500" y="116" type="curve" smooth="yes"/>
      <point x="500" y="13"/>
      <point x="553" y="-24"/>
      <point x="659" y="-24" type="curve"/>
      <point x="716" y="-24" type="line"/>
      <point x="716" y="82" type="line"/>
      <point x="669" y="82" type="line" smooth="yes"/>
      <point x="638" y="82"/>
      <point x="636" y="102"/>
      <point x="636" y="123" type="curve" smooth="yes"/>
      <point x="636" y="144"/>
      <point x="638" y="163"/>
      <point x="669" y="163" type="curve" smooth="yes"/>
      <point x="735" y="163" type="line"/>
      <point x="735" y="491" type="line"/>
      <point x="599" y="491" type="line"/>
      <point x="599" y="478" type="line" smooth="yes"/>
      <point x="599" y="445"/>
      <point x="581" y="431"/>
      <point x="544" y="431" type="curve" smooth="yes"/>
      <point x="510" y="431"/>
      <point x="479" y="435"/>
      <point x="447" y="441" type="curve"/>
      <point x="447" y="312" type="line"/>
      <point x="472" y="308"/>
      <point x="511" y="302"/>
      <point x="539" y="302" type="curve" smooth="yes"/>
      <point x="566" y="302"/>
      <point x="586" y="304"/>
      <point x="606" y="314" type="curve"/>
      <point x="606" y="249" type="line"/>
      <point x="540" y="242"/>
      <point x="500" y="199"/>
    </contour>
    <contour>
      <point x="26" y="0" type="line"/>
      <point x="199" y="0" type="line"/>
      <point x="253" y="64" type="line"/>
      <point x="276" y="90"/>
      <point x="308" y="136"/>
      <point x="325" y="173" type="curve"/>
      <point x="327" y="173" type="line"/>
      <point x="321" y="137"/>
      <point x="317" y="77"/>
      <point x="317" y="26" type="curve"/>
      <point x="317" y="0" type="line"/>
      <point x="448" y="0" type="line"/>
      <point x="448" y="554" type="line"/>
      <point x="814" y="554" type="line"/>
      <point x="814" y="671" type="line"/>
      <point x="-40" y="671" type="line"/>
      <point x="-40" y="554" type="line"/>
      <point x="308" y="554" type="line"/>
      <point x="308" y="486" type="line"/>
      <point x="308" y="486"/>
      <point x="274" y="496"/>
      <point x="218" y="496" type="curve" smooth="yes"/>
      <point x="76" y="496"/>
      <point x="25" y="427"/>
      <point x="25" y="315" type="curve" smooth="yes"/>
      <point x="25" y="242" type="line"/>
      <point x="159" y="242" type="line"/>
      <point x="159" y="305" type="line" smooth="yes"/>
      <point x="159" y="346"/>
      <point x="176" y="367"/>
      <point x="237" y="367" type="curve" smooth="yes"/>
      <point x="273" y="367"/>
      <point x="308" y="357"/>
      <point x="308" y="357" type="curve"/>
      <point x="308" y="309" type="line"/>
      <point x="25" y="4" type="line"/>
    </contour>
  </outline>
</glyph>
<glyph name="dvAbbreviationsign" format="1">
  <advance width="440"/>
  <unicode hex="0970"/>
  <outline>
    <contour>
      <point x="42" y="324" type="curve" smooth="yes"/>
      <point x="42" y="218"/>
      <point x="93" y="147"/>
      <point x="219" y="147" type="curve" smooth="yes"/>
      <point x="345" y="147"/>
      <point x="397" y="218"/>
      <point x="397" y="324" type="curve" smooth="yes"/>
      <point x="397" y="430"/>
      <point x="345" y="502"/>
      <point x="219" y="502" type="curve" smooth="yes"/>
      <point x="93" y="502"/>
      <point x="42" y="430"/>
    </contour>
    <contour>
      <point x="166" y="324" type="curve" smooth="yes"/>
      <point x="166" y="369"/>
      <point x="179" y="389"/>
      <point x="219" y="389" type="curve" smooth="yes"/>
      <point x="259" y="389"/>
      <point x="273" y="369"/>
      <point x="273" y="324" type="curve" smooth="yes"/>
      <point x="273" y="279"/>
      <point x="259" y="260"/>
      <point x="219" y="260" type="curve" smooth="yes"/>
      <point x="179" y="260"/>
      <point x="166" y="279"/>
    </contour>
  </outline>
</glyph>
<glyph name="endash" format="1">
  <advance width="625"/>
  <unicode hex="2013"/>
  <outline>
    <contour>
      <point x="41" y="397" type="line"/>
      <point x="41" y="267" type="line"/>
      <point x="567" y="267" type="line"/>
      <point x="567" y="397" type="line"/>
    </contour>
  </outline>
</glyph>
<glyph name="quoteleft" format="1">
  <advance width="205"/>
  <unicode hex="2018"/>
  <outline>
    <contour>
      <point x="116" y="733" type="line"/>
      <point x="86" y="693"/>
      <point x="25" y="600"/>
      <point x="25" y="542" type="curve" smooth="yes"/>
      <point x="25" y="506"/>
      <point x="42" y="485"/>
      <point x="86" y="485" type="curve" smooth="yes"/>
      <point x="138" y="485" type="line"/>
      <point x="180" y="733" type="line"/>
    </contour>
  </outline>
</glyph>
<glyph name="quotesinglbase" format="1">
  <advance width="205"/>
  <unicode hex="201A"/>
  <outline>
    <contour>
      <point x="67" y="145" type="line"/>
      <point x="25" y="-103" type="line"/>
      <point x="89" y="-103" type="line"/>
      <point x="119" y="-63"/>
      <point x="180" y="30"/>
      <point x="180" y="88" type="curve" smooth="yes"/>
      <point x="180" y="124"/>
      <point x="163" y="145"/>
      <point x="119" y="145" type="curve" smooth="yes"/>
    </contour>
  </outline>
</glyph>
<glyph name="quotedblright" format="1">
  <advance width="369"/>
  <unicode hex="201D"/>
  <outline>
    <contour>
      <point x="237" y="733" type="line"/>
      <point x="195" y="485" type="line"/>
      <point x="253" y="485" type="line"/>
      <point x="283" y="525"/>
      <point x="344" y="618"/>
      <point x="344" y="676" type="curve" smooth="yes"/>
      <point x="344" y="712"/>
      <point x="327" y="733"/>
      <point x="283" y="733" type="curve" smooth="yes"/>
    </contour>
    <contour>
      <point x="67" y="733" type="line"/>
      <point x="25" y="485" type="line"/>
      <point x="83" y="485" type="line"/>
      <point x="113" y="525"/>
      <point x="174" y="618"/>
      <point x="174" y="676" type="curve" smooth="yes"/>
      <point x="174" y="712"/>
      <point x="157" y="733"/>
      <point x="113" y="733" type="curve" smooth="yes"/>
    </contour>
  </outline>
</glyph>
<glyph name="dagger" format="1">
  <advance width="390"/>
  <unicode hex="2020"/>
  <outline>
    <contour>
      <point x="127" y="833" type="line"/>
      <point x="127" y="752"/>
      <point x="137" y="661"/>
      <point x="137" y="661" type="curve"/>
      <point x="137" y="661"/>
      <point x="84" y="671"/>
      <point x="19" y="671" type="curve"/>
      <point x="19" y="554" type="line"/>
      <point x="84" y="554"/>
      <point x="137" y="564"/>
      <point x="137" y="564" type="curve"/>
      <point x="137" y="564"/>
      <point x="127" y="472"/>
      <point x="127" y="363" type="curve"/>
      <point x="127" y="-30" type="line"/>
      <point x="267" y="-30" type="line"/>
      <point x="267" y="363" type="line"/>
      <point x="267" y="472"/>
      <point x="257" y="564"/>
      <point x="257" y="564" type="curve"/>
      <point x="257" y="564"/>
      <point x="310" y="554"/>
      <point x="375" y="554" type="curve"/>
      <point x="375" y="671" type="line"/>
      <point x="310" y="671"/>
      <point x="257" y="661"/>
      <point x="257" y="661" type="curve"/>
      <point x="257" y="661"/>
      <point x="267" y="752"/>
      <point x="267" y="833" type="curve"/>
    </contour>
  </outline>
</glyph>
<glyph name="bullet" format="1">
  <advance width="252"/>
  <unicode hex="2022"/>
  <outline>
    <contour>
      <point x="24" y="338" type="curve" smooth="yes"/>
      <point x="24" y="282"/>
      <point x="46" y="238"/>
      <point x="124" y="238" type="curve" smooth="yes"/>
      <point x="201" y="238"/>
      <point x="224" y="282"/>
      <point x="224" y="338" type="curve" smooth="yes"/>
      <point x="224" y="394"/>
      <point x="201" y="438"/>
      <point x="124" y="438" type="curve" smooth="yes"/>
      <point x="46" y="438"/>
      <point x="24" y="394"/>
    </contour>
  </outline>
</glyph>
<glyph name="perthousand" format="1">
  <advance width="1040"/>
  <unicode hex="2030"/>
  <outline>
    <contour>
      <point x="472" y="693" type="line"/>
      <point x="149" y="0" type="line"/>
      <point x="249" y="0" type="line"/>
      <point x="572" y="693" type="line"/>
    </contour>
    <contour>
      <point x="220" y="528" type="curve" smooth="yes"/>
      <point x="220" y="484"/>
      <point x="213" y="449"/>
      <point x="178" y="449" type="curve" smooth="yes"/>
      <point x="143" y="449"/>
      <point x="136" y="484"/>
      <point x="136" y="528" type="curve" smooth="yes"/>
      <point x="136" y="570"/>
      <point x="143" y="605"/>
      <point x="178" y="605" type="curve" smooth="yes"/>
      <point x="213" y="605"/>
      <point x="220" y="571"/>
    </contour>
    <contour>
      <point x="35" y="528" type="curve" smooth="yes"/>
      <point x="35" y="430"/>
      <point x="71" y="355"/>
      <point x="179" y="355" type="curve" smooth="yes"/>
      <point x="287" y="355"/>
      <point x="323" y="430"/>
      <point x="323" y="528" type="curve" smooth="yes"/>
      <point x="323" y="625"/>
      <point x="287" y="699"/>
      <point x="179" y="699" type="curve" smooth="yes"/>
      <point x="71" y="699"/>
      <point x="35" y="625"/>
    </contour>
    <contour>
      <point x="583" y="167" type="curve"/>
      <point x="583" y="123"/>
      <point x="576" y="88"/>
      <point x="541" y="88" type="curve" smooth="yes"/>
      <point x="506" y="88"/>
      <point x="499" y="123"/>
      <point x="499" y="167" type="curve" smooth="yes"/>
      <point x="499" y="209"/>
      <point x="506" y="244"/>
      <point x="541" y="244" type="curve" smooth="yes"/>
      <point x="576" y="244"/>
      <point x="583" y="210"/>
    </contour>
    <contour>
      <point x="398" y="167" type="curve"/>
      <point x="398" y="69"/>
      <point x="434" y="-6"/>
      <point x="542" y="-6" type="curve" smooth="yes"/>
      <point x="650" y="-6"/>
      <point x="686" y="69"/>
      <point x="686" y="167" type="curve" smooth="yes"/>
      <point x="686" y="264"/>
      <point x="650" y="338"/>
      <point x="542" y="338" type="curve" smooth="yes"/>
      <point x="434" y="338"/>
      <point x="398" y="264"/>
    </contour>
    <contour>
      <point x="904" y="167" type="curve" smooth="yes"/>
      <point x="904" y="123"/>
      <point x="897" y="88"/>
      <point x="862" y="88" type="curve" smooth="yes"/>
      <point x="827" y="88"/>
      <point x="820" y="123"/>
      <point x="820" y="167" type="curve" smooth="yes"/>
      <point x="820" y="209"/>
      <point x="827" y="244"/>
      <point x="862" y="244" type="curve" smooth="yes"/>
      <point x="897" y="244"/>
      <point x="904" y="210"/>
    </contour>
    <contour>
      <point x="719" y="167" type="curve" smooth="yes"/>
      <point x="719" y="69"/>
      <point x="755" y="-6"/>
      <point x="863" y="-6" type="curve" smooth="yes"/>
      <point x="971" y="-6"/>
      <point x="1007" y="69"/>
      <point x="1007" y="167" type="curve" smooth="yes"/>
      <point x="1007" y="264"/>
      <point x="971" y="338"/>
      <point x="863" y="338" type="curve" smooth="yes"/>
      <point x="755" y="338"/>
      <point x="719" y="264"/>
    </contour>
  </outline>
</glyph>
<glyph name="Euro" format="1">
  <advance width="472"/>
  <unicode hex="20AC"/>
  <outline>
    <contour>
      <point x="20" y="467" type="line"/>
      <point x="20" y="369" type="line"/>
      <point x="324" y="369" type="line"/>
      <point x="324" y="467" type="line"/>
    </contour>
    <contour>
      <point x="20" y="329" type="line"/>
      <point x="20" y="231" type="line"/>
      <point x="324" y="231" type="line"/>
      <point x="324" y="329" type="line"/>
    </contour>
    <component base="C" xOffset="37"/>
  </outline>
</glyph>
<glyph name="litre" format="1">
  <advance width="531"/>
  <unicode hex="2113"/>
  <outline>
    <contour>
      <point x="106" y="566" type="curve" smooth="yes"/>
      <point x="106" y="190" type="line"/>
      <point x="253" y="190" type="line"/>
      <point x="253" y="567" type="line" smooth="yes"/>
      <point x="253" y="601"/>
      <point x="266" y="620"/>
      <point x="295" y="620" type="curve" smooth="yes"/>
      <point x="321" y="620"/>
      <point x="341" y="605"/>
      <point x="341" y="549" type="curve" smooth="yes"/>
      <point x="341" y="336"/>
      <point x="21" y="272"/>
      <point x="21" y="272" type="curve"/>
      <point x="21" y="122" type="line" smooth="yes"/>
      <point x="21" y="122"/>
      <point x="489" y="199"/>
      <point x="489" y="548" type="curve" smooth="yes"/>
      <point x="489" y="683"/>
      <point x="418" y="757"/>
      <point x="290" y="757" type="curve" smooth="yes"/>
      <point x="159" y="757"/>
      <point x="106" y="677"/>
    </contour>
    <contour>
      <point x="106" y="245" type="line"/>
      <point x="106" y="147" type="line" smooth="yes"/>
      <point x="106" y="52"/>
      <point x="143" y="-9"/>
      <point x="262" y="-9" type="curve" smooth="yes"/>
      <point x="317" y="-9"/>
      <point x="351" y="7"/>
      <point x="351" y="7" type="curve"/>
      <point x="351" y="139" type="line"/>
      <point x="351" y="139"/>
      <point x="329" y="125"/>
      <point x="294" y="125" type="curve" smooth="yes"/>
      <point x="267" y="125"/>
      <point x="253" y="139"/>
      <point x="253" y="161" type="curve" smooth="yes"/>
      <point x="253" y="255" type="line"/>
    </contour>
  </outline>
</glyph>
<glyph name="trademark" format="1">
  <advance width="650"/>
  <unicode hex="2122"/>
  <outline>
    <contour>
      <point x="371" y="721" type="line"/>
      <point x="435" y="448" type="line"/>
      <point x="475" y="448" type="line"/>
      <point x="459" y="569" type="line"/>
      <point x="431" y="721" type="line"/>
    </contour>
    <contour>
      <point x="162" y="651" type="line"/>
      <point x="162" y="448" type="line"/>
      <point x="235" y="448" type="line"/>
      <point x="235" y="651" type="line"/>
    </contour>
    <contour>
      <point x="95" y="721" type="line"/>
      <point x="95" y="666" type="line"/>
      <point x="162" y="666" type="line"/>
      <point x="162" y="651" type="line"/>
      <point x="235" y="651" type="line"/>
      <point x="235" y="666" type="line"/>
      <point x="300" y="666" type="line"/>
      <point x="300" y="721" type="line"/>
    </contour>
    <contour>
      <point x="321" y="721" type="line"/>
      <point x="321" y="448" type="line"/>
      <point x="388" y="448" type="line"/>
      <point x="388" y="605" type="line"/>
      <point x="372" y="721" type="line"/>
    </contour>
    <contour>
      <point x="498" y="721" type="line"/>
      <point x="470" y="569" type="line"/>
      <point x="455" y="448" type="line"/>
      <point x="494" y="448" type="line"/>
      <point x="558" y="721" type="line"/>
    </contour>
    <contour>
      <point x="557" y="721" type="line"/>
      <point x="541" y="605" type="line"/>
      <point x="541" y="448" type="line"/>
      <point x="608" y="448" type="line"/>
      <point x="608" y="721" type="line"/>
    </contour>
  </outline>
</glyph>
<glyph name="Omega.math" format="1">
  <advance width="600"/>
  <unicode hex="2126"/>
  <outline>
    <contour>
      <point x="91" y="524" type="curve" smooth="yes"/>
      <point x="91" y="199" type="line" smooth="yes"/>
      <point x="91" y="162"/>
      <point x="100" y="140"/>
      <point x="109" y="130" type="curve"/>
      <point x="53" y="130" type="line"/>
      <point x="53" y="0" type="line"/>
      <point x="273" y="0" type="line"/>
      <point x="273" y="125" type="line"/>
      <point x="251" y="132"/>
      <point x="241" y="154"/>
      <point x="241" y="177" type="curve" smooth="yes"/>
      <point x="241" y="516" type="line" smooth="yes"/>
      <point x="241" y="546"/>
      <point x="259" y="566"/>
      <point x="301" y="566" type="curve"/>
      <point x="343" y="566"/>
      <point x="361" y="546"/>
      <point x="361" y="516" type="curve" smooth="yes"/>
      <point x="361" y="177" type="line" smooth="yes"/>
      <point x="361" y="154"/>
      <point x="351" y="132"/>
      <point x="329" y="125" type="curve"/>
      <point x="329" y="0" type="line"/>
      <point x="549" y="0" type="line"/>
      <point x="549" y="130" type="line"/>
      <point x="493" y="130" type="line"/>
      <point x="502" y="140"/>
      <point x="511" y="162"/>
      <point x="511" y="199" type="curve" smooth="yes"/>
      <point x="511" y="524" type="line" smooth="yes"/>
      <point x="511" y="630"/>
      <point x="442" y="703"/>
      <point x="301" y="703" type="curve"/>
      <point x="160" y="703"/>
      <point x="91" y="630"/>
    </contour>
  </outline>
</glyph>
<glyph name="estimated" format="1">
  <advance width="690"/>
  <unicode hex="212E"/>
  <outline>
    <contour>
      <point x="65" y="282" type="curve" smooth="yes"/>
      <point x="65" y="116"/>
      <point x="176" y="-10"/>
      <point x="361" y="-10" type="curve" smooth="yes"/>
      <point x="478" y="-10"/>
      <point x="566" y="36"/>
      <point x="620" y="124" type="curve"/>
      <point x="552" y="168" type="line"/>
      <point x="515" y="109"/>
      <point x="455" y="72"/>
      <point x="364" y="72" type="curve" smooth="yes"/>
      <point x="313" y="72"/>
      <point x="266" y="87"/>
      <point x="237" y="112" type="curve"/>
      <point x="237" y="263" type="line"/>
      <point x="630" y="263" type="line"/>
      <point x="632" y="282"/>
      <point x="632" y="303"/>
      <point x="632" y="308" type="curve" smooth="yes"/>
      <point x="632" y="476"/>
      <point x="515" y="576"/>
      <point x="359" y="576" type="curve" smooth="yes"/>
      <point x="177" y="576"/>
      <point x="65" y="444"/>
    </contour>
    <contour>
      <point x="476" y="462" type="curve"/>
      <point x="476" y="337" type="line"/>
      <point x="237" y="337" type="line"/>
      <point x="237" y="457" type="line"/>
      <point x="263" y="484"/>
      <point x="312" y="499"/>
      <point x="362" y="499" type="curve" smooth="yes"/>
      <point x="413" y="499"/>
      <point x="457" y="482"/>
    </contour>
  </outline>
</glyph>
<glyph name="Delta.math" format="1">
  <advance width="485"/>
  <unicode hex="2206"/>
  <outline>
    <contour>
      <point x="225" y="693" type="line"/>
      <point x="315" y="133" type="line"/>
      <point x="197" y="133" type="line"/>
      <point x="287" y="693" type="line"/>
      <point x="175" y="693" type="line"/>
      <point x="45" y="0" type="line"/>
      <point x="467" y="0" type="line"/>
      <point x="337" y="693" type="line"/>
    </contour>
  </outline>
</glyph>
<glyph name="radical" format="1">
  <advance width="485"/>
  <unicode hex="221A"/>
  <outline>
    <contour>
      <point x="338" y="693" type="line"/>
      <point x="240" y="140" type="line"/>
      <point x="198" y="382" type="line"/>
      <point x="21" y="382" type="line"/>
      <point x="21" y="254" type="line"/>
      <point x="89" y="254" type="line"/>
      <point x="137" y="0" type="line"/>
      <point x="343" y="0" type="line"/>
      <point x="480" y="693" type="line"/>
    </contour>
  </outline>
</glyph>
<glyph name="infinity" format="1">
  <advance width="735"/>
  <unicode hex="221E"/>
  <outline>
    <contour>
      <point x="207" y="281" type="curve" smooth="yes"/>
      <point x="171" y="281"/>
      <point x="160" y="297"/>
      <point x="160" y="337" type="curve" smooth="yes"/>
      <point x="160" y="377"/>
      <point x="169" y="394"/>
      <point x="207" y="394" type="curve" smooth="yes"/>
      <point x="259" y="394"/>
      <point x="293" y="349"/>
      <point x="330" y="299" type="curve"/>
      <point x="404" y="376" type="line"/>
      <point x="357" y="441"/>
      <point x="304" y="515"/>
      <point x="197" y="515" type="curve" smooth="yes"/>
      <point x="71" y="515"/>
      <point x="30" y="443"/>
      <point x="30" y="337" type="curve" smooth="yes"/>
      <point x="30" y="231"/>
      <point x="71" y="160"/>
      <point x="197" y="160" type="curve" smooth="yes"/>
      <point x="387" y="160"/>
      <point x="407" y="394"/>
      <point x="527" y="394" type="curve" smooth="yes"/>
      <point x="563" y="394"/>
      <point x="575" y="377"/>
      <point x="575" y="337" type="curve" smooth="yes"/>
      <point x="575" y="297"/>
      <point x="570" y="281"/>
      <point x="527" y="281" type="curve" smooth="yes"/>
      <point x="474" y="281"/>
      <point x="441" y="326"/>
      <point x="404" y="376" type="curve"/>
      <point x="330" y="299" type="line"/>
      <point x="377" y="234"/>
      <point x="430" y="160"/>
      <point x="537" y="160" type="curve" smooth="yes"/>
      <point x="663" y="160"/>
      <point x="705" y="231"/>
      <point x="705" y="337" type="curve" smooth="yes"/>
      <point x="705" y="443"/>
      <point x="663" y="515"/>
      <point x="537" y="515" type="curve" smooth="yes"/>
      <point x="347" y="515"/>
      <point x="327" y="281"/>
    </contour>
  </outline>
</glyph>
<glyph name="fi" format="1">
  <advance width="486"/>
  <unicode hex="FB01"/>
  <outline>
    <contour>
      <point x="62" y="597" type="curve" smooth="yes"/>
      <point x="62" y="590" type="line"/>
      <point x="5" y="590" type="line"/>
      <point x="5" y="472" type="line"/>
      <point x="62" y="472" type="line"/>
      <point x="62" y="0" type="line"/>
      <point x="214" y="0" type="line"/>
      <point x="214" y="472" type="line"/>
      <point x="395" y="472" type="line"/>
      <point x="395" y="590" type="line"/>
      <point x="214" y="590" type="line"/>
      <point x="214" y="599" type="line" smooth="yes"/>
      <point x="214" y="633"/>
      <point x="235" y="648"/>
      <point x="294" y="648" type="curve" smooth="yes"/>
      <point x="328" y="648"/>
      <point x="382" y="643"/>
      <point x="409" y="636" type="curve"/>
      <point x="409" y="752" type="line"/>
      <point x="375" y="759"/>
      <point x="323" y="766"/>
      <point x="278" y="766" type="curve" smooth="yes"/>
      <point x="167" y="766"/>
      <point x="62" y="732"/>
    </contour>
    <contour>
      <point x="290" y="590" type="line"/>
      <point x="290" y="0" type="line"/>
      <point x="441" y="0" type="line"/>
      <point x="441" y="590" type="line"/>
    </contour>
  </outline>
</glyph>
<glyph name="fl" format="1">
  <advance width="486"/>
  <unicode hex="FB02"/>
  <outline>
    <contour>
      <point x="62" y="597" type="curve" smooth="yes"/>
      <point x="62" y="590" type="line"/>
      <point x="5" y="590" type="line"/>
      <point x="5" y="472" type="line"/>
      <point x="62" y="472" type="line"/>
      <point x="62" y="0" type="line"/>
      <point x="214" y="0" type="line"/>
      <point x="214" y="472" type="line"/>
      <point x="265" y="472" type="line"/>
      <point x="265" y="590" type="line"/>
      <point x="213" y="590" type="line"/>
      <point x="213" y="599" type="line" smooth="yes"/>
      <point x="213" y="633"/>
      <point x="231" y="650"/>
      <point x="283" y="650" type="curve" smooth="yes"/>
      <point x="317" y="650"/>
      <point x="371" y="643"/>
      <point x="398" y="628" type="curve"/>
      <point x="430" y="737" type="line"/>
      <point x="386" y="754"/>
      <point x="323" y="766"/>
      <point x="268" y="766" type="curve" smooth="yes"/>
      <point x="135" y="766"/>
      <point x="62" y="709"/>
    </contour>
    <contour>
      <point x="293" y="747" type="line"/>
      <point x="293" y="0" type="line"/>
      <point x="441" y="0" type="line"/>
      <point x="441" y="747" type="line"/>
    </contour>
  </outline>
</glyph>
<glyph name="dvBH" format="1">
  <advance width="437"/>
  <outline>
    <contour>
      <point x="247" y="212" type="line"/>
      <point x="247" y="189"/>
      <point x="241" y="173"/>
      <point x="208" y="173" type="curve" smooth="yes"/>
      <point x="175" y="173"/>
      <point x="169" y="189"/>
      <point x="169" y="212" type="curve" smooth="yes"/>
      <point x="169" y="277" type="line" smooth="yes"/>
      <point x="169" y="300"/>
      <point x="175" y="316"/>
      <point x="208" y="316" type="curve" smooth="yes"/>
      <point x="247" y="316" type="line"/>
    </contour>
    <contour>
      <point x="518" y="434" type="line"/>
      <point x="387" y="434" type="line"/>
      <point x="387" y="513" type="line" smooth="yes"/>
      <point x="387" y="616"/>
      <point x="334" y="676"/>
      <point x="211" y="676" type="curve" smooth="yes"/>
      <point x="88" y="676"/>
      <point x="35" y="616"/>
      <point x="35" y="513" type="curve"/>
      <point x="35" y="492"/>
      <point x="39" y="476"/>
      <point x="39" y="476" type="curve"/>
      <point x="179" y="476" type="line"/>
      <point x="179" y="476"/>
      <point x="175" y="491"/>
      <point x="175" y="508" type="curve"/>
      <point x="175" y="531"/>
      <point x="178" y="547"/>
      <point x="211" y="547" type="curve" smooth="yes"/>
      <point x="244" y="547"/>
      <point x="247" y="531"/>
      <point x="247" y="508" type="curve" smooth="yes"/>
      <point x="247" y="434" type="line"/>
      <point x="208" y="434" type="line" smooth="yes"/>
      <point x="85" y="434"/>
      <point x="35" y="375"/>
      <point x="35" y="282" type="curve" smooth="yes"/>
      <point x="35" y="207" type="line" smooth="yes"/>
      <point x="35" y="114"/>
      <point x="85" y="54"/>
      <point x="208" y="54" type="curve" smooth="yes"/>
      <point x="331" y="54"/>
      <point x="381" y="114"/>
      <point x="381" y="207" type="curve" smooth="yes"/>
      <point x="381" y="316" type="line"/>
      <point x="518" y="316" type="line"/>
    </contour>
  </outline>
</glyph>
<glyph name="dvBH_R" format="1">
  <advance width="462"/>
  <outline>
    <contour>
      <point x="520" y="453" type="line"/>
      <point x="388" y="453" type="line"/>
      <point x="388" y="513" type="line" smooth="yes"/>
      <point x="388" y="616"/>
      <point x="335" y="676"/>
      <point x="212" y="676" type="curve" smooth="yes"/>
      <point x="89" y="676"/>
      <point x="36" y="616"/>
      <point x="36" y="513" type="curve"/>
      <point x="36" y="501"/>
      <point x="38" y="491"/>
      <point x="38" y="491" type="curve"/>
      <point x="178" y="491" type="line"/>
      <point x="178" y="491"/>
      <point x="176" y="498"/>
      <point x="176" y="508" type="curve"/>
      <point x="176" y="531"/>
      <point x="179" y="547"/>
      <point x="212" y="547" type="curve" smooth="yes"/>
      <point x="245" y="547"/>
      <point x="248" y="531"/>
      <point x="248" y="508" type="curve" smooth="yes"/>
      <point x="248" y="453" type="line"/>
      <point x="209" y="453" type="line" smooth="yes"/>
      <point x="86" y="453"/>
      <point x="35" y="393"/>
      <point x="35" y="300" type="curve" smooth="yes"/>
      <point x="35" y="273" type="line" smooth="yes"/>
      <point x="35" y="180"/>
      <point x="86" y="120"/>
      <point x="209" y="120" type="curve" smooth="yes"/>
      <point x="330" y="120"/>
      <point x="382" y="180"/>
      <point x="382" y="273" type="curve" smooth="yes"/>
      <point x="382" y="335" type="line"/>
      <point x="520" y="335" type="line"/>
    </contour>
    <contour>
      <point x="520" y="324" type="line"/>
      <point x="204" y="-58" type="line"/>
      <point x="366" y="-58" type="line"/>
      <point x="425" y="13" type="line" smooth="yes"/>
      <point x="474" y="71"/>
      <point x="512" y="147"/>
      <point x="520" y="174" type="curve"/>
    </contour>
    <contour>
      <point x="248" y="278" type="line"/>
      <point x="248" y="255"/>
      <point x="242" y="239"/>
      <point x="209" y="239" type="curve" smooth="yes"/>
      <point x="176" y="239"/>
      <point x="170" y="255"/>
      <point x="170" y="278" type="curve" smooth="yes"/>
      <point x="170" y="296" type="line" smooth="yes"/>
      <point x="170" y="319"/>
      <point x="176" y="335"/>
      <point x="209" y="335" type="curve" smooth="yes"/>
      <point x="248" y="335" type="line"/>
    </contour>
  </outline>
</glyph>
